<svg width="1280" height="629" viewBox="0 0 1280 629" fill="none" xmlns="http://www.w3.org/2000/svg">
<rect y="29" width="1280" height="600" fill="white"/>
<rect x="329" y="62" width="581" height="117" rx="12" fill="#9E2A2B"/>
<path d="M399.501 120.8C399.501 118 400.061 115.507 401.181 113.32C402.327 111.133 403.954 109.44 406.061 108.24C408.167 107.013 410.647 106.4 413.501 106.4C415.954 106.4 418.141 106.867 420.061 107.8C422.007 108.707 423.581 110 424.781 111.68C426.007 113.36 426.821 115.32 427.221 117.56H417.861C417.434 116.627 416.821 115.907 416.021 115.4C415.247 114.867 414.354 114.6 413.341 114.6C411.847 114.6 410.661 115.16 409.781 116.28C408.927 117.4 408.501 118.907 408.501 120.8C408.501 122.693 408.927 124.2 409.781 125.32C410.661 126.44 411.847 127 413.341 127C414.354 127 415.247 126.747 416.021 126.24C416.821 125.707 417.434 124.973 417.861 124.04H427.221C426.821 126.28 426.007 128.24 424.781 129.92C423.581 131.6 422.007 132.907 420.061 133.84C418.141 134.747 415.954 135.2 413.501 135.2C410.647 135.2 408.167 134.6 406.061 133.4C403.954 132.173 402.327 130.467 401.181 128.28C400.061 126.093 399.501 123.6 399.501 120.8ZM441.138 135.28C438.871 135.28 436.831 134.813 435.018 133.88C433.205 132.947 431.778 131.613 430.738 129.88C429.725 128.12 429.218 126.067 429.218 123.72C429.218 121.373 429.725 119.333 430.738 117.6C431.778 115.84 433.205 114.493 435.018 113.56C436.831 112.627 438.871 112.16 441.138 112.16C443.405 112.16 445.445 112.627 447.258 113.56C449.071 114.493 450.485 115.84 451.498 117.6C452.538 119.333 453.058 121.373 453.058 123.72C453.058 126.067 452.538 128.12 451.498 129.88C450.485 131.613 449.071 132.947 447.258 133.88C445.445 134.813 443.405 135.28 441.138 135.28ZM441.138 127.6C441.965 127.6 442.658 127.28 443.218 126.64C443.778 125.973 444.058 125 444.058 123.72C444.058 122.44 443.778 121.48 443.218 120.84C442.658 120.173 441.965 119.84 441.138 119.84C440.311 119.84 439.618 120.173 439.058 120.84C438.498 121.48 438.218 122.44 438.218 123.72C438.218 125 438.485 125.973 439.018 126.64C439.578 127.28 440.285 127.6 441.138 127.6ZM471.648 112.28C474.234 112.28 476.248 113.147 477.688 114.88C479.154 116.613 479.888 118.96 479.888 121.92V135H471.048V123.04C471.048 121.973 470.754 121.133 470.168 120.52C469.608 119.88 468.848 119.56 467.888 119.56C466.901 119.56 466.128 119.88 465.568 120.52C465.008 121.133 464.728 121.973 464.728 123.04V135H455.848V112.44H464.728V115.88C465.421 114.813 466.341 113.947 467.488 113.28C468.661 112.613 470.048 112.28 471.648 112.28ZM495.178 126.56L498.778 112.44H508.218L500.698 135H489.618L482.098 112.44H491.538L495.178 126.56ZM532.414 123.52C532.414 124.133 532.374 124.72 532.294 125.28H518.014C518.148 127.227 518.961 128.2 520.454 128.2C521.414 128.2 522.108 127.76 522.534 126.88H531.934C531.614 128.48 530.934 129.92 529.894 131.2C528.881 132.453 527.588 133.453 526.014 134.2C524.468 134.92 522.761 135.28 520.894 135.28C518.654 135.28 516.654 134.813 514.894 133.88C513.161 132.947 511.801 131.613 510.814 129.88C509.854 128.12 509.374 126.067 509.374 123.72C509.374 121.373 509.854 119.333 510.814 117.6C511.801 115.84 513.161 114.493 514.894 113.56C516.654 112.627 518.654 112.16 520.894 112.16C523.134 112.16 525.121 112.627 526.854 113.56C528.614 114.467 529.974 115.773 530.934 117.48C531.921 119.187 532.414 121.2 532.414 123.52ZM523.414 121.4C523.414 120.653 523.174 120.093 522.694 119.72C522.214 119.32 521.614 119.12 520.894 119.12C519.321 119.12 518.401 119.88 518.134 121.4H523.414ZM544.103 116.6C545.009 115.293 546.116 114.253 547.423 113.48C548.729 112.68 550.089 112.28 551.503 112.28V121.76H548.983C547.303 121.76 546.063 122.053 545.263 122.64C544.489 123.227 544.103 124.267 544.103 125.76V135H535.223V112.44H544.103V116.6ZM563.935 135.28C561.801 135.28 559.908 134.933 558.255 134.24C556.628 133.547 555.335 132.587 554.375 131.36C553.415 130.133 552.868 128.747 552.735 127.2H561.255C561.361 127.867 561.641 128.36 562.095 128.68C562.575 129 563.175 129.16 563.895 129.16C564.348 129.16 564.708 129.067 564.975 128.88C565.241 128.667 565.375 128.413 565.375 128.12C565.375 127.613 565.095 127.253 564.535 127.04C563.975 126.827 563.028 126.587 561.695 126.32C560.068 126 558.721 125.653 557.655 125.28C556.615 124.907 555.695 124.267 554.895 123.36C554.121 122.453 553.735 121.2 553.735 119.6C553.735 118.213 554.095 116.96 554.815 115.84C555.561 114.693 556.655 113.8 558.095 113.16C559.535 112.493 561.281 112.16 563.335 112.16C566.375 112.16 568.748 112.907 570.455 114.4C572.188 115.893 573.228 117.84 573.575 120.24H565.695C565.561 119.627 565.281 119.16 564.855 118.84C564.428 118.493 563.855 118.32 563.135 118.32C562.681 118.32 562.335 118.413 562.095 118.6C561.855 118.76 561.735 119.013 561.735 119.36C561.735 119.813 562.015 120.16 562.575 120.4C563.135 120.613 564.028 120.84 565.255 121.08C566.881 121.4 568.255 121.76 569.375 122.16C570.495 122.56 571.468 123.253 572.295 124.24C573.121 125.2 573.535 126.533 573.535 128.24C573.535 129.573 573.148 130.773 572.375 131.84C571.601 132.907 570.481 133.747 569.015 134.36C567.575 134.973 565.881 135.28 563.935 135.28ZM575.859 123.72C575.859 121.347 576.259 119.293 577.059 117.56C577.885 115.8 579.005 114.467 580.419 113.56C581.832 112.627 583.419 112.16 585.179 112.16C586.645 112.16 587.912 112.467 588.979 113.08C590.045 113.667 590.859 114.48 591.419 115.52V112.44H600.259V135H591.419V131.92C590.859 132.96 590.045 133.787 588.979 134.4C587.912 134.987 586.645 135.28 585.179 135.28C583.419 135.28 581.832 134.827 580.419 133.92C579.005 132.987 577.885 131.653 577.059 129.92C576.259 128.16 575.859 126.093 575.859 123.72ZM591.419 123.72C591.419 122.52 591.112 121.587 590.499 120.92C589.885 120.253 589.099 119.92 588.139 119.92C587.179 119.92 586.392 120.253 585.779 120.92C585.165 121.587 584.859 122.52 584.859 123.72C584.859 124.92 585.165 125.853 585.779 126.52C586.392 127.187 587.179 127.52 588.139 127.52C589.099 127.52 589.885 127.187 590.499 126.52C591.112 125.853 591.419 124.92 591.419 123.72ZM618.286 127.44V135H614.926C608.739 135 605.646 131.92 605.646 125.76V119.84H602.846V112.44H605.646V107H614.526V112.44H618.206V119.84H614.526V125.92C614.526 126.453 614.646 126.84 614.886 127.08C615.153 127.32 615.579 127.44 616.166 127.44H618.286ZM626.148 110.64C624.601 110.64 623.361 110.227 622.428 109.4C621.495 108.573 621.028 107.533 621.028 106.28C621.028 105 621.495 103.947 622.428 103.12C623.361 102.267 624.601 101.84 626.148 101.84C627.668 101.84 628.895 102.267 629.828 103.12C630.761 103.947 631.228 105 631.228 106.28C631.228 107.533 630.761 108.573 629.828 109.4C628.895 110.227 627.668 110.64 626.148 110.64ZM630.548 112.44V135H621.668V112.44H630.548ZM645.279 135.28C643.012 135.28 640.972 134.813 639.159 133.88C637.345 132.947 635.919 131.613 634.879 129.88C633.865 128.12 633.359 126.067 633.359 123.72C633.359 121.373 633.865 119.333 634.879 117.6C635.919 115.84 637.345 114.493 639.159 113.56C640.972 112.627 643.012 112.16 645.279 112.16C647.545 112.16 649.585 112.627 651.399 113.56C653.212 114.493 654.625 115.84 655.639 117.6C656.679 119.333 657.199 121.373 657.199 123.72C657.199 126.067 656.679 128.12 655.639 129.88C654.625 131.613 653.212 132.947 651.399 133.88C649.585 134.813 647.545 135.28 645.279 135.28ZM645.279 127.6C646.105 127.6 646.799 127.28 647.359 126.64C647.919 125.973 648.199 125 648.199 123.72C648.199 122.44 647.919 121.48 647.359 120.84C646.799 120.173 646.105 119.84 645.279 119.84C644.452 119.84 643.759 120.173 643.199 120.84C642.639 121.48 642.359 122.44 642.359 123.72C642.359 125 642.625 125.973 643.159 126.64C643.719 127.28 644.425 127.6 645.279 127.6ZM675.788 112.28C678.375 112.28 680.388 113.147 681.828 114.88C683.295 116.613 684.028 118.96 684.028 121.92V135H675.188V123.04C675.188 121.973 674.895 121.133 674.308 120.52C673.748 119.88 672.988 119.56 672.028 119.56C671.042 119.56 670.268 119.88 669.708 120.52C669.148 121.133 668.868 121.973 668.868 123.04V135H659.988V112.44H668.868V115.88C669.562 114.813 670.482 113.947 671.628 113.28C672.802 112.613 674.188 112.28 675.788 112.28ZM705.756 135.28C702.369 135.28 699.569 134.493 697.356 132.92C695.169 131.32 693.982 128.987 693.796 125.92H703.236C703.369 127.547 704.089 128.36 705.396 128.36C705.876 128.36 706.276 128.253 706.596 128.04C706.942 127.8 707.116 127.44 707.116 126.96C707.116 126.293 706.756 125.76 706.036 125.36C705.316 124.933 704.196 124.453 702.676 123.92C700.862 123.28 699.356 122.653 698.156 122.04C696.982 121.427 695.969 120.533 695.116 119.36C694.262 118.187 693.849 116.68 693.876 114.84C693.876 113 694.342 111.44 695.276 110.16C696.236 108.853 697.529 107.867 699.156 107.2C700.809 106.533 702.662 106.2 704.716 106.2C708.182 106.2 710.929 107 712.956 108.6C715.009 110.2 716.089 112.453 716.196 115.36H706.636C706.609 114.56 706.409 113.987 706.036 113.64C705.662 113.293 705.209 113.12 704.676 113.12C704.302 113.12 703.996 113.253 703.756 113.52C703.516 113.76 703.396 114.107 703.396 114.56C703.396 115.2 703.742 115.733 704.436 116.16C705.156 116.56 706.289 117.053 707.836 117.64C709.622 118.307 711.089 118.947 712.236 119.56C713.409 120.173 714.422 121.027 715.276 122.12C716.129 123.213 716.556 124.587 716.556 126.24C716.556 127.973 716.129 129.533 715.276 130.92C714.422 132.28 713.182 133.347 711.556 134.12C709.929 134.893 707.996 135.28 705.756 135.28ZM733.716 127.44V135H730.356C724.169 135 721.076 131.92 721.076 125.76V119.84H718.276V112.44H721.076V107H729.956V112.44H733.636V119.84H729.956V125.92C729.956 126.453 730.076 126.84 730.316 127.08C730.582 127.32 731.009 127.44 731.596 127.44H733.716ZM735.898 123.72C735.898 121.347 736.298 119.293 737.098 117.56C737.924 115.8 739.044 114.467 740.458 113.56C741.871 112.627 743.458 112.16 745.218 112.16C746.684 112.16 747.951 112.467 749.018 113.08C750.084 113.667 750.898 114.48 751.458 115.52V112.44H760.298V135H751.458V131.92C750.898 132.96 750.084 133.787 749.018 134.4C747.951 134.987 746.684 135.28 745.218 135.28C743.458 135.28 741.871 134.827 740.458 133.92C739.044 132.987 737.924 131.653 737.098 129.92C736.298 128.16 735.898 126.093 735.898 123.72ZM751.458 123.72C751.458 122.52 751.151 121.587 750.538 120.92C749.924 120.253 749.138 119.92 748.178 119.92C747.218 119.92 746.431 120.253 745.818 120.92C745.204 121.587 744.898 122.52 744.898 123.72C744.898 124.92 745.204 125.853 745.818 126.52C746.431 127.187 747.218 127.52 748.178 127.52C749.138 127.52 749.924 127.187 750.538 126.52C751.151 125.853 751.458 124.92 751.458 123.72ZM773.165 116.6C774.072 115.293 775.178 114.253 776.485 113.48C777.792 112.68 779.152 112.28 780.565 112.28V121.76H778.045C776.365 121.76 775.125 122.053 774.325 122.64C773.552 123.227 773.165 124.267 773.165 125.76V135H764.285V112.44H773.165V116.6ZM796.997 127.44V135H793.637C787.45 135 784.357 131.92 784.357 125.76V119.84H781.557V112.44H784.357V107H793.237V112.44H796.917V119.84H793.237V125.92C793.237 126.453 793.357 126.84 793.597 127.08C793.864 127.32 794.29 127.44 794.877 127.44H796.997ZM822.219 123.52C822.219 124.133 822.179 124.72 822.099 125.28H807.819C807.952 127.227 808.766 128.2 810.259 128.2C811.219 128.2 811.912 127.76 812.339 126.88H821.739C821.419 128.48 820.739 129.92 819.699 131.2C818.686 132.453 817.392 133.453 815.819 134.2C814.272 134.92 812.566 135.28 810.699 135.28C808.459 135.28 806.459 134.813 804.699 133.88C802.966 132.947 801.606 131.613 800.619 129.88C799.659 128.12 799.179 126.067 799.179 123.72C799.179 121.373 799.659 119.333 800.619 117.6C801.606 115.84 802.966 114.493 804.699 113.56C806.459 112.627 808.459 112.16 810.699 112.16C812.939 112.16 814.926 112.627 816.659 113.56C818.419 114.467 819.779 115.773 820.739 117.48C821.726 119.187 822.219 121.2 822.219 123.52ZM813.219 121.4C813.219 120.653 812.979 120.093 812.499 119.72C812.019 119.32 811.419 119.12 810.699 119.12C809.126 119.12 808.206 119.88 807.939 121.4H813.219ZM833.907 116.6C834.814 115.293 835.921 114.253 837.227 113.48C838.534 112.68 839.894 112.28 841.307 112.28V121.76H838.787C837.107 121.76 835.867 122.053 835.067 122.64C834.294 123.227 833.907 124.267 833.907 125.76V135H825.027V112.44H833.907V116.6Z" fill="white"/>
<path d="M149.976 273.4V270.08H157.496V299H153.816V273.4H149.976ZM165.508 299.24C164.815 299.24 164.228 299 163.748 298.52C163.268 298.04 163.028 297.453 163.028 296.76C163.028 296.067 163.268 295.48 163.748 295C164.228 294.52 164.815 294.28 165.508 294.28C166.175 294.28 166.735 294.52 167.188 295C167.668 295.48 167.908 296.067 167.908 296.76C167.908 297.453 167.668 298.04 167.188 298.52C166.735 299 166.175 299.24 165.508 299.24ZM221.12 271.12L213.04 299H208.96L202.48 276.56L195.76 299L191.72 299.04L183.92 271.12H187.8L193.88 294.76L200.6 271.12H204.68L211.08 294.68L217.2 271.12H221.12ZM235.983 276.68C237.637 276.68 239.13 277.04 240.463 277.76C241.797 278.453 242.837 279.507 243.583 280.92C244.357 282.333 244.743 284.053 244.743 286.08V299H241.143V286.6C241.143 284.413 240.597 282.747 239.503 281.6C238.41 280.427 236.917 279.84 235.023 279.84C233.103 279.84 231.57 280.44 230.423 281.64C229.303 282.84 228.743 284.587 228.743 286.88V299H225.103V269.4H228.743V280.2C229.463 279.08 230.45 278.213 231.703 277.6C232.983 276.987 234.41 276.68 235.983 276.68ZM249.329 287.96C249.329 285.72 249.783 283.76 250.689 282.08C251.596 280.373 252.836 279.053 254.409 278.12C256.009 277.187 257.783 276.72 259.729 276.72C261.649 276.72 263.316 277.133 264.729 277.96C266.143 278.787 267.196 279.827 267.889 281.08V277.08H271.569V299H267.889V294.92C267.169 296.2 266.089 297.267 264.649 298.12C263.236 298.947 261.583 299.36 259.689 299.36C257.743 299.36 255.983 298.88 254.409 297.92C252.836 296.96 251.596 295.613 250.689 293.88C249.783 292.147 249.329 290.173 249.329 287.96ZM267.889 288C267.889 286.347 267.556 284.907 266.889 283.68C266.223 282.453 265.316 281.52 264.169 280.88C263.049 280.213 261.809 279.88 260.449 279.88C259.089 279.88 257.849 280.2 256.729 280.84C255.609 281.48 254.716 282.413 254.049 283.64C253.383 284.867 253.049 286.307 253.049 287.96C253.049 289.64 253.383 291.107 254.049 292.36C254.716 293.587 255.609 294.533 256.729 295.2C257.849 295.84 259.089 296.16 260.449 296.16C261.809 296.16 263.049 295.84 264.169 295.2C265.316 294.533 266.223 293.587 266.889 292.36C267.556 291.107 267.889 289.653 267.889 288ZM282.161 280.08V293C282.161 294.067 282.387 294.827 282.841 295.28C283.294 295.707 284.081 295.92 285.201 295.92H287.881V299H284.601C282.574 299 281.054 298.533 280.041 297.6C279.027 296.667 278.521 295.133 278.521 293V280.08H275.681V277.08H278.521V271.56H282.161V277.08H287.881V280.08H282.161ZM292.851 271.12H296.891L293.051 280.2H290.491L292.851 271.12ZM308.801 299.36C307.121 299.36 305.614 299.08 304.281 298.52C302.948 297.933 301.894 297.133 301.121 296.12C300.348 295.08 299.921 293.893 299.841 292.56H303.601C303.708 293.653 304.214 294.547 305.121 295.24C306.054 295.933 307.268 296.28 308.761 296.28C310.148 296.28 311.241 295.973 312.041 295.36C312.841 294.747 313.241 293.973 313.241 293.04C313.241 292.08 312.814 291.373 311.961 290.92C311.108 290.44 309.788 289.973 308.001 289.52C306.374 289.093 305.041 288.667 304.001 288.24C302.988 287.787 302.108 287.133 301.361 286.28C300.641 285.4 300.281 284.253 300.281 282.84C300.281 281.72 300.614 280.693 301.281 279.76C301.948 278.827 302.894 278.093 304.121 277.56C305.348 277 306.748 276.72 308.321 276.72C310.748 276.72 312.708 277.333 314.201 278.56C315.694 279.787 316.494 281.467 316.601 283.6H312.961C312.881 282.453 312.414 281.533 311.561 280.84C310.734 280.147 309.614 279.8 308.201 279.8C306.894 279.8 305.854 280.08 305.081 280.64C304.308 281.2 303.921 281.933 303.921 282.84C303.921 283.56 304.148 284.16 304.601 284.64C305.081 285.093 305.668 285.467 306.361 285.76C307.081 286.027 308.068 286.333 309.321 286.68C310.894 287.107 312.174 287.533 313.161 287.96C314.148 288.36 314.988 288.973 315.681 289.8C316.401 290.627 316.774 291.707 316.801 293.04C316.801 294.24 316.468 295.32 315.801 296.28C315.134 297.24 314.188 298 312.961 298.56C311.761 299.093 310.374 299.36 308.801 299.36ZM337.043 280.08V293C337.043 294.067 337.27 294.827 337.723 295.28C338.177 295.707 338.963 295.92 340.083 295.92H342.763V299H339.483C337.457 299 335.937 298.533 334.923 297.6C333.91 296.667 333.403 295.133 333.403 293V280.08H330.563V277.08H333.403V271.56H337.043V277.08H342.763V280.08H337.043ZM358.054 276.68C359.707 276.68 361.2 277.04 362.534 277.76C363.867 278.453 364.907 279.507 365.654 280.92C366.427 282.333 366.814 284.053 366.814 286.08V299H363.214V286.6C363.214 284.413 362.667 282.747 361.574 281.6C360.48 280.427 358.987 279.84 357.094 279.84C355.174 279.84 353.64 280.44 352.494 281.64C351.374 282.84 350.814 284.587 350.814 286.88V299H347.174V269.4H350.814V280.2C351.534 279.08 352.52 278.213 353.774 277.6C355.054 276.987 356.48 276.68 358.054 276.68ZM392.76 287.2C392.76 287.893 392.72 288.627 392.64 289.4H375.12C375.253 291.56 375.986 293.253 377.32 294.48C378.68 295.68 380.32 296.28 382.24 296.28C383.813 296.28 385.12 295.92 386.16 295.2C387.226 294.453 387.973 293.467 388.4 292.24H392.32C391.733 294.347 390.56 296.067 388.8 297.4C387.04 298.707 384.853 299.36 382.24 299.36C380.16 299.36 378.293 298.893 376.64 297.96C375.013 297.027 373.733 295.707 372.8 294C371.866 292.267 371.4 290.267 371.4 288C371.4 285.733 371.853 283.747 372.76 282.04C373.666 280.333 374.933 279.027 376.56 278.12C378.213 277.187 380.106 276.72 382.24 276.72C384.32 276.72 386.16 277.173 387.76 278.08C389.36 278.987 390.586 280.24 391.44 281.84C392.32 283.413 392.76 285.2 392.76 287.2ZM389 286.44C389 285.053 388.693 283.867 388.08 282.88C387.466 281.867 386.626 281.107 385.56 280.6C384.52 280.067 383.36 279.8 382.08 279.8C380.24 279.8 378.666 280.387 377.36 281.56C376.08 282.733 375.346 284.36 375.16 286.44H389ZM411.868 281.16C412.615 279.853 413.708 278.787 415.148 277.96C416.588 277.133 418.228 276.72 420.068 276.72C422.042 276.72 423.815 277.187 425.388 278.12C426.962 279.053 428.202 280.373 429.108 282.08C430.015 283.76 430.468 285.72 430.468 287.96C430.468 290.173 430.015 292.147 429.108 293.88C428.202 295.613 426.948 296.96 425.348 297.92C423.775 298.88 422.015 299.36 420.068 299.36C418.175 299.36 416.508 298.947 415.068 298.12C413.655 297.293 412.588 296.24 411.868 294.96V299H408.228V269.4H411.868V281.16ZM426.748 287.96C426.748 286.307 426.415 284.867 425.748 283.64C425.082 282.413 424.175 281.48 423.028 280.84C421.908 280.2 420.668 279.88 419.308 279.88C417.975 279.88 416.735 280.213 415.588 280.88C414.468 281.52 413.562 282.467 412.868 283.72C412.202 284.947 411.868 286.373 411.868 288C411.868 289.653 412.202 291.107 412.868 292.36C413.562 293.587 414.468 294.533 415.588 295.2C416.735 295.84 417.975 296.16 419.308 296.16C420.668 296.16 421.908 295.84 423.028 295.2C424.175 294.533 425.082 293.587 425.748 292.36C426.415 291.107 426.748 289.64 426.748 287.96ZM455.26 287.2C455.26 287.893 455.22 288.627 455.14 289.4H437.62C437.753 291.56 438.486 293.253 439.82 294.48C441.18 295.68 442.82 296.28 444.74 296.28C446.313 296.28 447.62 295.92 448.66 295.2C449.726 294.453 450.473 293.467 450.9 292.24H454.82C454.233 294.347 453.06 296.067 451.3 297.4C449.54 298.707 447.353 299.36 444.74 299.36C442.66 299.36 440.793 298.893 439.14 297.96C437.513 297.027 436.233 295.707 435.3 294C434.366 292.267 433.9 290.267 433.9 288C433.9 285.733 434.353 283.747 435.26 282.04C436.166 280.333 437.433 279.027 439.06 278.12C440.713 277.187 442.606 276.72 444.74 276.72C446.82 276.72 448.66 277.173 450.26 278.08C451.86 278.987 453.086 280.24 453.94 281.84C454.82 283.413 455.26 285.2 455.26 287.2ZM451.5 286.44C451.5 285.053 451.193 283.867 450.58 282.88C449.966 281.867 449.126 281.107 448.06 280.6C447.02 280.067 445.86 279.8 444.58 279.8C442.74 279.8 441.166 280.387 439.86 281.56C438.58 282.733 437.846 284.36 437.66 286.44H451.5ZM467.824 299.36C466.144 299.36 464.638 299.08 463.304 298.52C461.971 297.933 460.918 297.133 460.144 296.12C459.371 295.08 458.944 293.893 458.864 292.56H462.624C462.731 293.653 463.238 294.547 464.144 295.24C465.078 295.933 466.291 296.28 467.784 296.28C469.171 296.28 470.264 295.973 471.064 295.36C471.864 294.747 472.264 293.973 472.264 293.04C472.264 292.08 471.838 291.373 470.984 290.92C470.131 290.44 468.811 289.973 467.024 289.52C465.398 289.093 464.064 288.667 463.024 288.24C462.011 287.787 461.131 287.133 460.384 286.28C459.664 285.4 459.304 284.253 459.304 282.84C459.304 281.72 459.638 280.693 460.304 279.76C460.971 278.827 461.918 278.093 463.144 277.56C464.371 277 465.771 276.72 467.344 276.72C469.771 276.72 471.731 277.333 473.224 278.56C474.718 279.787 475.518 281.467 475.624 283.6H471.984C471.904 282.453 471.438 281.533 470.584 280.84C469.758 280.147 468.638 279.8 467.224 279.8C465.918 279.8 464.878 280.08 464.104 280.64C463.331 281.2 462.944 281.933 462.944 282.84C462.944 283.56 463.171 284.16 463.624 284.64C464.104 285.093 464.691 285.467 465.384 285.76C466.104 286.027 467.091 286.333 468.344 286.68C469.918 287.107 471.198 287.533 472.184 287.96C473.171 288.36 474.011 288.973 474.704 289.8C475.424 290.627 475.798 291.707 475.824 293.04C475.824 294.24 475.491 295.32 474.824 296.28C474.158 297.24 473.211 298 471.984 298.56C470.784 299.093 469.398 299.36 467.824 299.36ZM485.403 280.08V293C485.403 294.067 485.629 294.827 486.083 295.28C486.536 295.707 487.323 295.92 488.443 295.92H491.123V299H487.843C485.816 299 484.296 298.533 483.283 297.6C482.269 296.667 481.763 295.133 481.763 293V280.08H478.923V277.08H481.763V271.56H485.403V277.08H491.123V280.08H485.403ZM532.557 276.68C534.264 276.68 535.784 277.04 537.117 277.76C538.451 278.453 539.504 279.507 540.277 280.92C541.051 282.333 541.437 284.053 541.437 286.08V299H537.837V286.6C537.837 284.413 537.291 282.747 536.197 281.6C535.131 280.427 533.677 279.84 531.837 279.84C529.944 279.84 528.437 280.453 527.317 281.68C526.197 282.88 525.637 284.627 525.637 286.92V299H522.037V286.6C522.037 284.413 521.491 282.747 520.397 281.6C519.331 280.427 517.877 279.84 516.037 279.84C514.144 279.84 512.637 280.453 511.517 281.68C510.397 282.88 509.837 284.627 509.837 286.92V299H506.197V277.08H509.837V280.24C510.557 279.093 511.517 278.213 512.717 277.6C513.944 276.987 515.291 276.68 516.757 276.68C518.597 276.68 520.224 277.093 521.637 277.92C523.051 278.747 524.104 279.96 524.797 281.56C525.411 280.013 526.424 278.813 527.837 277.96C529.251 277.107 530.824 276.68 532.557 276.68ZM567.408 287.2C567.408 287.893 567.368 288.627 567.288 289.4H549.768C549.901 291.56 550.635 293.253 551.968 294.48C553.328 295.68 554.968 296.28 556.888 296.28C558.461 296.28 559.768 295.92 560.808 295.2C561.875 294.453 562.621 293.467 563.048 292.24H566.968C566.381 294.347 565.208 296.067 563.448 297.4C561.688 298.707 559.501 299.36 556.888 299.36C554.808 299.36 552.941 298.893 551.288 297.96C549.661 297.027 548.381 295.707 547.448 294C546.515 292.267 546.048 290.267 546.048 288C546.048 285.733 546.501 283.747 547.408 282.04C548.315 280.333 549.581 279.027 551.208 278.12C552.861 277.187 554.755 276.72 556.888 276.72C558.968 276.72 560.808 277.173 562.408 278.08C564.008 278.987 565.235 280.24 566.088 281.84C566.968 283.413 567.408 285.2 567.408 287.2ZM563.648 286.44C563.648 285.053 563.341 283.867 562.728 282.88C562.115 281.867 561.275 281.107 560.208 280.6C559.168 280.067 558.008 279.8 556.728 279.8C554.888 279.8 553.315 280.387 552.008 281.56C550.728 282.733 549.995 284.36 549.808 286.44H563.648ZM598.573 276.68C600.279 276.68 601.799 277.04 603.133 277.76C604.466 278.453 605.519 279.507 606.293 280.92C607.066 282.333 607.453 284.053 607.453 286.08V299H603.853V286.6C603.853 284.413 603.306 282.747 602.213 281.6C601.146 280.427 599.693 279.84 597.853 279.84C595.959 279.84 594.453 280.453 593.333 281.68C592.213 282.88 591.653 284.627 591.653 286.92V299H588.053V286.6C588.053 284.413 587.506 282.747 586.413 281.6C585.346 280.427 583.893 279.84 582.053 279.84C580.159 279.84 578.653 280.453 577.533 281.68C576.413 282.88 575.853 284.627 575.853 286.92V299H572.213V277.08H575.853V280.24C576.573 279.093 577.533 278.213 578.733 277.6C579.959 276.987 581.306 276.68 582.773 276.68C584.613 276.68 586.239 277.093 587.653 277.92C589.066 278.747 590.119 279.96 590.813 281.56C591.426 280.013 592.439 278.813 593.853 277.96C595.266 277.107 596.839 276.68 598.573 276.68ZM622.984 299.36C620.93 299.36 619.064 298.893 617.384 297.96C615.73 297.027 614.424 295.707 613.464 294C612.53 292.267 612.064 290.267 612.064 288C612.064 285.76 612.544 283.787 613.504 282.08C614.49 280.347 615.824 279.027 617.504 278.12C619.184 277.187 621.064 276.72 623.144 276.72C625.224 276.72 627.104 277.187 628.784 278.12C630.464 279.027 631.784 280.333 632.744 282.04C633.73 283.747 634.224 285.733 634.224 288C634.224 290.267 633.717 292.267 632.704 294C631.717 295.707 630.37 297.027 628.664 297.96C626.957 298.893 625.064 299.36 622.984 299.36ZM622.984 296.16C624.29 296.16 625.517 295.853 626.664 295.24C627.81 294.627 628.73 293.707 629.424 292.48C630.144 291.253 630.504 289.76 630.504 288C630.504 286.24 630.157 284.747 629.464 283.52C628.77 282.293 627.864 281.387 626.744 280.8C625.624 280.187 624.41 279.88 623.104 279.88C621.77 279.88 620.544 280.187 619.424 280.8C618.33 281.387 617.45 282.293 616.784 283.52C616.117 284.747 615.784 286.24 615.784 288C615.784 289.787 616.104 291.293 616.744 292.52C617.41 293.747 618.29 294.667 619.384 295.28C620.477 295.867 621.677 296.16 622.984 296.16ZM642.65 280.64C643.29 279.387 644.196 278.413 645.37 277.72C646.57 277.027 648.023 276.68 649.73 276.68V280.44H648.77C644.69 280.44 642.65 282.653 642.65 287.08V299H639.01V277.08H642.65V280.64ZM672.812 277.08L659.612 309.32H655.852L660.172 298.76L651.332 277.08H655.372L662.252 294.84L669.052 277.08H672.812ZM706.015 277.08L692.815 309.32H689.055L693.375 298.76L684.535 277.08H688.575L695.455 294.84L702.255 277.08H706.015ZM719.234 299.36C717.18 299.36 715.314 298.893 713.634 297.96C711.98 297.027 710.674 295.707 709.714 294C708.78 292.267 708.314 290.267 708.314 288C708.314 285.76 708.794 283.787 709.754 282.08C710.74 280.347 712.074 279.027 713.754 278.12C715.434 277.187 717.314 276.72 719.394 276.72C721.474 276.72 723.354 277.187 725.034 278.12C726.714 279.027 728.034 280.333 728.994 282.04C729.98 283.747 730.474 285.733 730.474 288C730.474 290.267 729.967 292.267 728.954 294C727.967 295.707 726.62 297.027 724.914 297.96C723.207 298.893 721.314 299.36 719.234 299.36ZM719.234 296.16C720.54 296.16 721.767 295.853 722.914 295.24C724.06 294.627 724.98 293.707 725.674 292.48C726.394 291.253 726.754 289.76 726.754 288C726.754 286.24 726.407 284.747 725.714 283.52C725.02 282.293 724.114 281.387 722.994 280.8C721.874 280.187 720.66 279.88 719.354 279.88C718.02 279.88 716.794 280.187 715.674 280.8C714.58 281.387 713.7 282.293 713.034 283.52C712.367 284.747 712.034 286.24 712.034 288C712.034 289.787 712.354 291.293 712.994 292.52C713.66 293.747 714.54 294.667 715.634 295.28C716.727 295.867 717.927 296.16 719.234 296.16ZM754.7 277.08V299H751.06V295.76C750.366 296.88 749.393 297.76 748.14 298.4C746.913 299.013 745.553 299.32 744.06 299.32C742.353 299.32 740.82 298.973 739.46 298.28C738.1 297.56 737.02 296.493 736.22 295.08C735.446 293.667 735.06 291.947 735.06 289.92V277.08H738.66V289.44C738.66 291.6 739.206 293.267 740.3 294.44C741.393 295.587 742.886 296.16 744.78 296.16C746.726 296.16 748.26 295.56 749.38 294.36C750.5 293.16 751.06 291.413 751.06 289.12V277.08H754.7ZM782.39 276.68C784.043 276.68 785.536 277.04 786.87 277.76C788.203 278.453 789.243 279.507 789.99 280.92C790.763 282.333 791.15 284.053 791.15 286.08V299H787.55V286.6C787.55 284.413 787.003 282.747 785.91 281.6C784.816 280.427 783.323 279.84 781.43 279.84C779.51 279.84 777.976 280.44 776.83 281.64C775.71 282.84 775.15 284.587 775.15 286.88V299H771.51V269.4H775.15V280.2C775.87 279.08 776.856 278.213 778.11 277.6C779.39 276.987 780.816 276.68 782.39 276.68ZM795.736 287.96C795.736 285.72 796.189 283.76 797.096 282.08C798.002 280.373 799.242 279.053 800.816 278.12C802.416 277.187 804.189 276.72 806.136 276.72C808.056 276.72 809.722 277.133 811.136 277.96C812.549 278.787 813.602 279.827 814.296 281.08V277.08H817.976V299H814.296V294.92C813.576 296.2 812.496 297.267 811.056 298.12C809.642 298.947 807.989 299.36 806.096 299.36C804.149 299.36 802.389 298.88 800.816 297.92C799.242 296.96 798.002 295.613 797.096 293.88C796.189 292.147 795.736 290.173 795.736 287.96ZM814.296 288C814.296 286.347 813.962 284.907 813.296 283.68C812.629 282.453 811.722 281.52 810.576 280.88C809.456 280.213 808.216 279.88 806.856 279.88C805.496 279.88 804.256 280.2 803.136 280.84C802.016 281.48 801.122 282.413 800.456 283.64C799.789 284.867 799.456 286.307 799.456 287.96C799.456 289.64 799.789 291.107 800.456 292.36C801.122 293.587 802.016 294.533 803.136 295.2C804.256 295.84 805.496 296.16 806.856 296.16C808.216 296.16 809.456 295.84 810.576 295.2C811.722 294.533 812.629 293.587 813.296 292.36C813.962 291.107 814.296 289.653 814.296 288ZM832.287 295.64L839.087 277.08H842.967L834.367 299H830.127L821.527 277.08H825.447L832.287 295.64ZM866.549 287.2C866.549 287.893 866.509 288.627 866.429 289.4H848.909C849.042 291.56 849.775 293.253 851.109 294.48C852.469 295.68 854.109 296.28 856.029 296.28C857.602 296.28 858.909 295.92 859.949 295.2C861.015 294.453 861.762 293.467 862.189 292.24H866.109C865.522 294.347 864.349 296.067 862.589 297.4C860.829 298.707 858.642 299.36 856.029 299.36C853.949 299.36 852.082 298.893 850.429 297.96C848.802 297.027 847.522 295.707 846.589 294C845.655 292.267 845.189 290.267 845.189 288C845.189 285.733 845.642 283.747 846.549 282.04C847.455 280.333 848.722 279.027 850.349 278.12C852.002 277.187 853.895 276.72 856.029 276.72C858.109 276.72 859.949 277.173 861.549 278.08C863.149 278.987 864.375 280.24 865.229 281.84C866.109 283.413 866.549 285.2 866.549 287.2ZM862.789 286.44C862.789 285.053 862.482 283.867 861.869 282.88C861.255 281.867 860.415 281.107 859.349 280.6C858.309 280.067 857.149 279.8 855.869 279.8C854.029 279.8 852.455 280.387 851.149 281.56C849.869 282.733 849.135 284.36 848.949 286.44H862.789ZM891.578 299.36C889.524 299.36 887.658 298.893 885.978 297.96C884.324 297.027 883.018 295.707 882.058 294C881.124 292.267 880.658 290.267 880.658 288C880.658 285.76 881.138 283.787 882.098 282.08C883.084 280.347 884.418 279.027 886.098 278.12C887.778 277.187 889.658 276.72 891.738 276.72C893.818 276.72 895.698 277.187 897.378 278.12C899.058 279.027 900.378 280.333 901.338 282.04C902.324 283.747 902.818 285.733 902.818 288C902.818 290.267 902.311 292.267 901.298 294C900.311 295.707 898.964 297.027 897.258 297.96C895.551 298.893 893.658 299.36 891.578 299.36ZM891.578 296.16C892.884 296.16 894.111 295.853 895.258 295.24C896.404 294.627 897.324 293.707 898.018 292.48C898.738 291.253 899.098 289.76 899.098 288C899.098 286.24 898.751 284.747 898.058 283.52C897.364 282.293 896.458 281.387 895.338 280.8C894.218 280.187 893.004 279.88 891.698 279.88C890.364 279.88 889.138 280.187 888.018 280.8C886.924 281.387 886.044 282.293 885.378 283.52C884.711 284.747 884.378 286.24 884.378 288C884.378 289.787 884.698 291.293 885.338 292.52C886.004 293.747 886.884 294.667 887.978 295.28C889.071 295.867 890.271 296.16 891.578 296.16ZM916.523 280.08H911.923V299H908.283V280.08H905.443V277.08H908.283V275.52C908.283 273.067 908.91 271.28 910.163 270.16C911.443 269.013 913.483 268.44 916.283 268.44V271.48C914.683 271.48 913.55 271.8 912.883 272.44C912.243 273.053 911.923 274.08 911.923 275.52V277.08H916.523V280.08ZM930.072 285.04C930.072 282.32 930.685 279.88 931.912 277.72C933.138 275.533 934.805 273.827 936.912 272.6C939.045 271.373 941.405 270.76 943.992 270.76C947.032 270.76 949.685 271.493 951.952 272.96C954.218 274.427 955.872 276.507 956.912 279.2H952.552C951.778 277.52 950.658 276.227 949.192 275.32C947.752 274.413 946.018 273.96 943.992 273.96C942.045 273.96 940.298 274.413 938.752 275.32C937.205 276.227 935.992 277.52 935.112 279.2C934.232 280.853 933.792 282.8 933.792 285.04C933.792 287.253 934.232 289.2 935.112 290.88C935.992 292.533 937.205 293.813 938.752 294.72C940.298 295.627 942.045 296.08 943.992 296.08C946.018 296.08 947.752 295.64 949.192 294.76C950.658 293.853 951.778 292.56 952.552 290.88H956.912C955.872 293.547 954.218 295.613 951.952 297.08C949.685 298.52 947.032 299.24 943.992 299.24C941.405 299.24 939.045 298.64 936.912 297.44C934.805 296.213 933.138 294.52 931.912 292.36C930.685 290.2 930.072 287.76 930.072 285.04ZM973.21 276.68C974.863 276.68 976.357 277.04 977.69 277.76C979.023 278.453 980.063 279.507 980.81 280.92C981.583 282.333 981.97 284.053 981.97 286.08V299H978.37V286.6C978.37 284.413 977.823 282.747 976.73 281.6C975.637 280.427 974.143 279.84 972.25 279.84C970.33 279.84 968.797 280.44 967.65 281.64C966.53 282.84 965.97 284.587 965.97 286.88V299H962.33V269.4H965.97V280.2C966.69 279.08 967.677 278.213 968.93 277.6C970.21 276.987 971.637 276.68 973.21 276.68ZM991.556 280.64C992.196 279.387 993.103 278.413 994.276 277.72C995.476 277.027 996.929 276.68 998.636 276.68V280.44H997.676C993.596 280.44 991.556 282.653 991.556 287.08V299H987.916V277.08H991.556V280.64ZM1004.72 273.52C1004.02 273.52 1003.44 273.28 1002.96 272.8C1002.48 272.32 1002.24 271.733 1002.24 271.04C1002.24 270.347 1002.48 269.76 1002.96 269.28C1003.44 268.8 1004.02 268.56 1004.72 268.56C1005.38 268.56 1005.94 268.8 1006.4 269.28C1006.88 269.76 1007.12 270.347 1007.12 271.04C1007.12 271.733 1006.88 272.32 1006.4 272.8C1005.94 273.28 1005.38 273.52 1004.72 273.52ZM1006.48 277.08V299H1002.84V277.08H1006.48ZM1020.44 299.36C1018.76 299.36 1017.25 299.08 1015.92 298.52C1014.59 297.933 1013.53 297.133 1012.76 296.12C1011.99 295.08 1011.56 293.893 1011.48 292.56H1015.24C1015.35 293.653 1015.85 294.547 1016.76 295.24C1017.69 295.933 1018.91 296.28 1020.4 296.28C1021.79 296.28 1022.88 295.973 1023.68 295.36C1024.48 294.747 1024.88 293.973 1024.88 293.04C1024.88 292.08 1024.45 291.373 1023.6 290.92C1022.75 290.44 1021.43 289.973 1019.64 289.52C1018.01 289.093 1016.68 288.667 1015.64 288.24C1014.63 287.787 1013.75 287.133 1013 286.28C1012.28 285.4 1011.92 284.253 1011.92 282.84C1011.92 281.72 1012.25 280.693 1012.92 279.76C1013.59 278.827 1014.53 278.093 1015.76 277.56C1016.99 277 1018.39 276.72 1019.96 276.72C1022.39 276.72 1024.35 277.333 1025.84 278.56C1027.33 279.787 1028.13 281.467 1028.24 283.6H1024.6C1024.52 282.453 1024.05 281.533 1023.2 280.84C1022.37 280.147 1021.25 279.8 1019.84 279.8C1018.53 279.8 1017.49 280.08 1016.72 280.64C1015.95 281.2 1015.56 281.933 1015.56 282.84C1015.56 283.56 1015.79 284.16 1016.24 284.64C1016.72 285.093 1017.31 285.467 1018 285.76C1018.72 286.027 1019.71 286.333 1020.96 286.68C1022.53 287.107 1023.81 287.533 1024.8 287.96C1025.79 288.36 1026.63 288.973 1027.32 289.8C1028.04 290.627 1028.41 291.707 1028.44 293.04C1028.44 294.24 1028.11 295.32 1027.44 296.28C1026.77 297.24 1025.83 298 1024.6 298.56C1023.4 299.093 1022.01 299.36 1020.44 299.36ZM1038.02 280.08V293C1038.02 294.067 1038.25 294.827 1038.7 295.28C1039.15 295.707 1039.94 295.92 1041.06 295.92H1043.74V299H1040.46C1038.43 299 1036.91 298.533 1035.9 297.6C1034.89 296.667 1034.38 295.133 1034.38 293V280.08H1031.54V277.08H1034.38V271.56H1038.02V277.08H1043.74V280.08H1038.02ZM1074.51 276.68C1076.22 276.68 1077.74 277.04 1079.07 277.76C1080.4 278.453 1081.46 279.507 1082.23 280.92C1083 282.333 1083.39 284.053 1083.39 286.08V299H1079.79V286.6C1079.79 284.413 1079.24 282.747 1078.15 281.6C1077.08 280.427 1075.63 279.84 1073.79 279.84C1071.9 279.84 1070.39 280.453 1069.27 281.68C1068.15 282.88 1067.59 284.627 1067.59 286.92V299H1063.99V286.6C1063.99 284.413 1063.44 282.747 1062.35 281.6C1061.28 280.427 1059.83 279.84 1057.99 279.84C1056.1 279.84 1054.59 280.453 1053.47 281.68C1052.35 282.88 1051.79 284.627 1051.79 286.92V299H1048.15V277.08H1051.79V280.24C1052.51 279.093 1053.47 278.213 1054.67 277.6C1055.9 276.987 1057.24 276.68 1058.71 276.68C1060.55 276.68 1062.18 277.093 1063.59 277.92C1065 278.747 1066.06 279.96 1066.75 281.56C1067.36 280.013 1068.38 278.813 1069.79 277.96C1071.2 277.107 1072.78 276.68 1074.51 276.68ZM1088 287.96C1088 285.72 1088.45 283.76 1089.36 282.08C1090.27 280.373 1091.51 279.053 1093.08 278.12C1094.68 277.187 1096.45 276.72 1098.4 276.72C1100.32 276.72 1101.99 277.133 1103.4 277.96C1104.81 278.787 1105.87 279.827 1106.56 281.08V277.08H1110.24V299H1106.56V294.92C1105.84 296.2 1104.76 297.267 1103.32 298.12C1101.91 298.947 1100.25 299.36 1098.36 299.36C1096.41 299.36 1094.65 298.88 1093.08 297.92C1091.51 296.96 1090.27 295.613 1089.36 293.88C1088.45 292.147 1088 290.173 1088 287.96ZM1106.56 288C1106.56 286.347 1106.23 284.907 1105.56 283.68C1104.89 282.453 1103.99 281.52 1102.84 280.88C1101.72 280.213 1100.48 279.88 1099.12 279.88C1097.76 279.88 1096.52 280.2 1095.4 280.84C1094.28 281.48 1093.39 282.413 1092.72 283.64C1092.05 284.867 1091.72 286.307 1091.72 287.96C1091.72 289.64 1092.05 291.107 1092.72 292.36C1093.39 293.587 1094.28 294.533 1095.4 295.2C1096.52 295.84 1097.76 296.16 1099.12 296.16C1100.48 296.16 1101.72 295.84 1102.84 295.2C1103.99 294.533 1104.89 293.587 1105.56 292.36C1106.23 291.107 1106.56 289.653 1106.56 288ZM1124.15 299.36C1122.47 299.36 1120.97 299.08 1119.63 298.52C1118.3 297.933 1117.25 297.133 1116.47 296.12C1115.7 295.08 1115.27 293.893 1115.19 292.56H1118.95C1119.06 293.653 1119.57 294.547 1120.47 295.24C1121.41 295.933 1122.62 296.28 1124.11 296.28C1125.5 296.28 1126.59 295.973 1127.39 295.36C1128.19 294.747 1128.59 293.973 1128.59 293.04C1128.59 292.08 1128.17 291.373 1127.31 290.92C1126.46 290.44 1125.14 289.973 1123.35 289.52C1121.73 289.093 1120.39 288.667 1119.35 288.24C1118.34 287.787 1117.46 287.133 1116.71 286.28C1115.99 285.4 1115.63 284.253 1115.63 282.84C1115.63 281.72 1115.97 280.693 1116.63 279.76C1117.3 278.827 1118.25 278.093 1119.47 277.56C1120.7 277 1122.1 276.72 1123.67 276.72C1126.1 276.72 1128.06 277.333 1129.55 278.56C1131.05 279.787 1131.85 281.467 1131.95 283.6H1128.31C1128.23 282.453 1127.77 281.533 1126.91 280.84C1126.09 280.147 1124.97 279.8 1123.55 279.8C1122.25 279.8 1121.21 280.08 1120.43 280.64C1119.66 281.2 1119.27 281.933 1119.27 282.84C1119.27 283.56 1119.5 284.16 1119.95 284.64C1120.43 285.093 1121.02 285.467 1121.71 285.76C1122.43 286.027 1123.42 286.333 1124.67 286.68C1126.25 287.107 1127.53 287.533 1128.51 287.96C1129.5 288.36 1130.34 288.973 1131.03 289.8C1131.75 290.627 1132.13 291.707 1132.15 293.04C1132.15 294.24 1131.82 295.32 1131.15 296.28C1130.49 297.24 1129.54 298 1128.31 298.56C1127.11 299.093 1125.73 299.36 1124.15 299.36ZM1144.41 270.76C1147.05 270.76 1149.18 271.507 1150.81 273C1152.44 274.493 1153.25 276.493 1153.25 279C1153.25 281.8 1152.38 283.88 1150.65 285.24C1148.92 286.573 1146.57 287.24 1143.61 287.24L1143.49 291.04H1140.33L1140.17 284.72H1141.33C1143.97 284.72 1146.04 284.32 1147.53 283.52C1149.02 282.72 1149.77 281.213 1149.77 279C1149.77 277.4 1149.29 276.133 1148.33 275.2C1147.37 274.267 1146.08 273.8 1144.45 273.8C1142.8 273.8 1141.49 274.253 1140.53 275.16C1139.6 276.04 1139.13 277.253 1139.13 278.8H1135.69C1135.69 277.2 1136.05 275.8 1136.77 274.6C1137.49 273.373 1138.5 272.427 1139.81 271.76C1141.14 271.093 1142.68 270.76 1144.41 270.76ZM1141.89 299.24C1141.2 299.24 1140.61 299 1140.13 298.52C1139.65 298.04 1139.41 297.453 1139.41 296.76C1139.41 296.067 1139.65 295.48 1140.13 295C1140.61 294.52 1141.2 294.28 1141.89 294.28C1142.56 294.28 1143.12 294.52 1143.57 295C1144.05 295.48 1144.29 296.067 1144.29 296.76C1144.29 297.453 1144.05 298.04 1143.57 298.52C1143.12 299 1142.56 299.24 1141.89 299.24ZM140.301 376.08C143.687 373.36 146.341 371.133 148.261 369.4C150.181 367.64 151.794 365.813 153.101 363.92C154.434 362 155.101 360.12 155.101 358.28C155.101 356.547 154.674 355.187 153.821 354.2C152.994 353.187 151.647 352.68 149.781 352.68C147.967 352.68 146.554 353.253 145.541 354.4C144.554 355.52 144.021 357.027 143.941 358.92H140.421C140.527 355.933 141.434 353.627 143.141 352C144.847 350.373 147.047 349.56 149.741 349.56C152.487 349.56 154.661 350.32 156.261 351.84C157.887 353.36 158.701 355.453 158.701 358.12C158.701 360.333 158.034 362.493 156.701 364.6C155.394 366.68 153.901 368.52 152.221 370.12C150.541 371.693 148.394 373.533 145.781 375.64H159.541V378.68H140.301V376.08ZM165.508 379.24C164.815 379.24 164.228 379 163.748 378.52C163.268 378.04 163.028 377.453 163.028 376.76C163.028 376.067 163.268 375.48 163.748 375C164.228 374.52 164.815 374.28 165.508 374.28C166.175 374.28 166.735 374.52 167.188 375C167.668 375.48 167.908 376.067 167.908 376.76C167.908 377.453 167.668 378.04 167.188 378.52C166.735 379 166.175 379.24 165.508 379.24ZM221.12 351.12L213.04 379H208.96L202.48 356.56L195.76 379L191.72 379.04L183.92 351.12H187.8L193.88 374.76L200.6 351.12H204.68L211.08 374.68L217.2 351.12H221.12ZM235.983 356.68C237.637 356.68 239.13 357.04 240.463 357.76C241.797 358.453 242.837 359.507 243.583 360.92C244.357 362.333 244.743 364.053 244.743 366.08V379H241.143V366.6C241.143 364.413 240.597 362.747 239.503 361.6C238.41 360.427 236.917 359.84 235.023 359.84C233.103 359.84 231.57 360.44 230.423 361.64C229.303 362.84 228.743 364.587 228.743 366.88V379H225.103V349.4H228.743V360.2C229.463 359.08 230.45 358.213 231.703 357.6C232.983 356.987 234.41 356.68 235.983 356.68ZM270.689 367.2C270.689 367.893 270.649 368.627 270.569 369.4H253.049C253.183 371.56 253.916 373.253 255.249 374.48C256.609 375.68 258.249 376.28 260.169 376.28C261.743 376.28 263.049 375.92 264.089 375.2C265.156 374.453 265.903 373.467 266.329 372.24H270.249C269.663 374.347 268.489 376.067 266.729 377.4C264.969 378.707 262.783 379.36 260.169 379.36C258.089 379.36 256.223 378.893 254.569 377.96C252.943 377.027 251.663 375.707 250.729 374C249.796 372.267 249.329 370.267 249.329 368C249.329 365.733 249.783 363.747 250.689 362.04C251.596 360.333 252.863 359.027 254.489 358.12C256.143 357.187 258.036 356.72 260.169 356.72C262.249 356.72 264.089 357.173 265.689 358.08C267.289 358.987 268.516 360.24 269.369 361.84C270.249 363.413 270.689 365.2 270.689 367.2ZM266.929 366.44C266.929 365.053 266.623 363.867 266.009 362.88C265.396 361.867 264.556 361.107 263.489 360.6C262.449 360.067 261.289 359.8 260.009 359.8C258.169 359.8 256.596 360.387 255.289 361.56C254.009 362.733 253.276 364.36 253.089 366.44H266.929ZM279.134 360.64C279.774 359.387 280.681 358.413 281.854 357.72C283.054 357.027 284.507 356.68 286.214 356.68V360.44H285.254C281.174 360.44 279.134 362.653 279.134 367.08V379H275.494V357.08H279.134V360.64ZM310.416 367.2C310.416 367.893 310.376 368.627 310.296 369.4H292.776C292.909 371.56 293.643 373.253 294.976 374.48C296.336 375.68 297.976 376.28 299.896 376.28C301.469 376.28 302.776 375.92 303.816 375.2C304.883 374.453 305.629 373.467 306.056 372.24H309.976C309.389 374.347 308.216 376.067 306.456 377.4C304.696 378.707 302.509 379.36 299.896 379.36C297.816 379.36 295.949 378.893 294.296 377.96C292.669 377.027 291.389 375.707 290.456 374C289.523 372.267 289.056 370.267 289.056 368C289.056 365.733 289.509 363.747 290.416 362.04C291.323 360.333 292.589 359.027 294.216 358.12C295.869 357.187 297.763 356.72 299.896 356.72C301.976 356.72 303.816 357.173 305.416 358.08C307.016 358.987 308.243 360.24 309.096 361.84C309.976 363.413 310.416 365.2 310.416 367.2ZM306.656 366.44C306.656 365.053 306.349 363.867 305.736 362.88C305.123 361.867 304.283 361.107 303.216 360.6C302.176 360.067 301.016 359.8 299.736 359.8C297.896 359.8 296.323 360.387 295.016 361.56C293.736 362.733 293.003 364.36 292.816 366.44H306.656ZM324.525 367.96C324.525 365.72 324.978 363.76 325.885 362.08C326.791 360.373 328.031 359.053 329.605 358.12C331.205 357.187 332.991 356.72 334.965 356.72C336.671 356.72 338.258 357.12 339.725 357.92C341.191 358.693 342.311 359.72 343.085 361V349.4H346.765V379H343.085V374.88C342.365 376.187 341.298 377.267 339.885 378.12C338.471 378.947 336.818 379.36 334.925 379.36C332.978 379.36 331.205 378.88 329.605 377.92C328.031 376.96 326.791 375.613 325.885 373.88C324.978 372.147 324.525 370.173 324.525 367.96ZM343.085 368C343.085 366.347 342.751 364.907 342.085 363.68C341.418 362.453 340.511 361.52 339.365 360.88C338.245 360.213 337.005 359.88 335.645 359.88C334.285 359.88 333.045 360.2 331.925 360.84C330.805 361.48 329.911 362.413 329.245 363.64C328.578 364.867 328.245 366.307 328.245 367.96C328.245 369.64 328.578 371.107 329.245 372.36C329.911 373.587 330.805 374.533 331.925 375.2C333.045 375.84 334.285 376.16 335.645 376.16C337.005 376.16 338.245 375.84 339.365 375.2C340.511 374.533 341.418 373.587 342.085 372.36C342.751 371.107 343.085 369.653 343.085 368ZM362.476 379.36C360.423 379.36 358.556 378.893 356.876 377.96C355.223 377.027 353.916 375.707 352.956 374C352.023 372.267 351.556 370.267 351.556 368C351.556 365.76 352.036 363.787 352.996 362.08C353.983 360.347 355.316 359.027 356.996 358.12C358.676 357.187 360.556 356.72 362.636 356.72C364.716 356.72 366.596 357.187 368.276 358.12C369.956 359.027 371.276 360.333 372.236 362.04C373.223 363.747 373.716 365.733 373.716 368C373.716 370.267 373.209 372.267 372.196 374C371.209 375.707 369.863 377.027 368.156 377.96C366.449 378.893 364.556 379.36 362.476 379.36ZM362.476 376.16C363.783 376.16 365.009 375.853 366.156 375.24C367.303 374.627 368.223 373.707 368.916 372.48C369.636 371.253 369.996 369.76 369.996 368C369.996 366.24 369.649 364.747 368.956 363.52C368.263 362.293 367.356 361.387 366.236 360.8C365.116 360.187 363.903 359.88 362.596 359.88C361.263 359.88 360.036 360.187 358.916 360.8C357.823 361.387 356.943 362.293 356.276 363.52C355.609 364.747 355.276 366.24 355.276 368C355.276 369.787 355.596 371.293 356.236 372.52C356.903 373.747 357.783 374.667 358.876 375.28C359.969 375.867 361.169 376.16 362.476 376.16ZM408.046 357.08L394.846 389.32H391.086L395.406 378.76L386.566 357.08H390.606L397.486 374.84L404.286 357.08H408.046ZM421.265 379.36C419.212 379.36 417.345 378.893 415.665 377.96C414.012 377.027 412.705 375.707 411.745 374C410.812 372.267 410.345 370.267 410.345 368C410.345 365.76 410.825 363.787 411.785 362.08C412.772 360.347 414.105 359.027 415.785 358.12C417.465 357.187 419.345 356.72 421.425 356.72C423.505 356.72 425.385 357.187 427.065 358.12C428.745 359.027 430.065 360.333 431.025 362.04C432.012 363.747 432.505 365.733 432.505 368C432.505 370.267 431.998 372.267 430.985 374C429.998 375.707 428.652 377.027 426.945 377.96C425.238 378.893 423.345 379.36 421.265 379.36ZM421.265 376.16C422.572 376.16 423.798 375.853 424.945 375.24C426.092 374.627 427.012 373.707 427.705 372.48C428.425 371.253 428.785 369.76 428.785 368C428.785 366.24 428.438 364.747 427.745 363.52C427.052 362.293 426.145 361.387 425.025 360.8C423.905 360.187 422.692 359.88 421.385 359.88C420.052 359.88 418.825 360.187 417.705 360.8C416.612 361.387 415.732 362.293 415.065 363.52C414.398 364.747 414.065 366.24 414.065 368C414.065 369.787 414.385 371.293 415.025 372.52C415.692 373.747 416.572 374.667 417.665 375.28C418.758 375.867 419.958 376.16 421.265 376.16ZM456.731 357.08V379H453.091V375.76C452.398 376.88 451.424 377.76 450.171 378.4C448.944 379.013 447.584 379.32 446.091 379.32C444.384 379.32 442.851 378.973 441.491 378.28C440.131 377.56 439.051 376.493 438.251 375.08C437.478 373.667 437.091 371.947 437.091 369.92V357.08H440.691V369.44C440.691 371.6 441.238 373.267 442.331 374.44C443.424 375.587 444.918 376.16 446.811 376.16C448.758 376.16 450.291 375.56 451.411 374.36C452.531 373.16 453.091 371.413 453.091 369.12V357.08H456.731ZM477.181 349.4V379H473.541V349.4H477.181ZM485.265 353.52C484.571 353.52 483.985 353.28 483.505 352.8C483.025 352.32 482.785 351.733 482.785 351.04C482.785 350.347 483.025 349.76 483.505 349.28C483.985 348.8 484.571 348.56 485.265 348.56C485.931 348.56 486.491 348.8 486.945 349.28C487.425 349.76 487.665 350.347 487.665 351.04C487.665 351.733 487.425 352.32 486.945 352.8C486.491 353.28 485.931 353.52 485.265 353.52ZM487.025 357.08V379H483.385V357.08H487.025ZM505.468 379L496.868 369.32V379H493.228V349.4H496.868V366.8L505.308 357.08H510.388L500.068 368L510.428 379H505.468ZM533.814 367.2C533.814 367.893 533.774 368.627 533.694 369.4H516.174C516.308 371.56 517.041 373.253 518.374 374.48C519.734 375.68 521.374 376.28 523.294 376.28C524.868 376.28 526.174 375.92 527.214 375.2C528.281 374.453 529.028 373.467 529.454 372.24H533.374C532.788 374.347 531.614 376.067 529.854 377.4C528.094 378.707 525.908 379.36 523.294 379.36C521.214 379.36 519.348 378.893 517.694 377.96C516.068 377.027 514.788 375.707 513.854 374C512.921 372.267 512.454 370.267 512.454 368C512.454 365.733 512.908 363.747 513.814 362.04C514.721 360.333 515.988 359.027 517.614 358.12C519.268 357.187 521.161 356.72 523.294 356.72C525.374 356.72 527.214 357.173 528.814 358.08C530.414 358.987 531.641 360.24 532.494 361.84C533.374 363.413 533.814 365.2 533.814 367.2ZM530.054 366.44C530.054 365.053 529.748 363.867 529.134 362.88C528.521 361.867 527.681 361.107 526.614 360.6C525.574 360.067 524.414 359.8 523.134 359.8C521.294 359.8 519.721 360.387 518.414 361.56C517.134 362.733 516.401 364.36 516.214 366.44H530.054ZM553.723 360.08V373C553.723 374.067 553.95 374.827 554.403 375.28C554.856 375.707 555.643 375.92 556.763 375.92H559.443V379H556.163C554.136 379 552.616 378.533 551.603 377.6C550.59 376.667 550.083 375.133 550.083 373V360.08H547.243V357.08H550.083V351.56H553.723V357.08H559.443V360.08H553.723ZM573.413 379.36C571.36 379.36 569.493 378.893 567.813 377.96C566.16 377.027 564.853 375.707 563.893 374C562.96 372.267 562.493 370.267 562.493 368C562.493 365.76 562.973 363.787 563.933 362.08C564.92 360.347 566.253 359.027 567.933 358.12C569.613 357.187 571.493 356.72 573.573 356.72C575.653 356.72 577.533 357.187 579.213 358.12C580.893 359.027 582.213 360.333 583.173 362.04C584.16 363.747 584.653 365.733 584.653 368C584.653 370.267 584.147 372.267 583.133 374C582.147 375.707 580.8 377.027 579.093 377.96C577.387 378.893 575.493 379.36 573.413 379.36ZM573.413 376.16C574.72 376.16 575.947 375.853 577.093 375.24C578.24 374.627 579.16 373.707 579.853 372.48C580.573 371.253 580.933 369.76 580.933 368C580.933 366.24 580.587 364.747 579.893 363.52C579.2 362.293 578.293 361.387 577.173 360.8C576.053 360.187 574.84 359.88 573.533 359.88C572.2 359.88 570.973 360.187 569.853 360.8C568.76 361.387 567.88 362.293 567.213 363.52C566.547 364.747 566.213 366.24 566.213 368C566.213 369.787 566.533 371.293 567.173 372.52C567.84 373.747 568.72 374.667 569.813 375.28C570.907 375.867 572.107 376.16 573.413 376.16ZM607.863 379.36C606.183 379.36 604.677 379.08 603.343 378.52C602.01 377.933 600.957 377.133 600.183 376.12C599.41 375.08 598.983 373.893 598.903 372.56H602.663C602.77 373.653 603.277 374.547 604.183 375.24C605.117 375.933 606.33 376.28 607.823 376.28C609.21 376.28 610.303 375.973 611.103 375.36C611.903 374.747 612.303 373.973 612.303 373.04C612.303 372.08 611.877 371.373 611.023 370.92C610.17 370.44 608.85 369.973 607.063 369.52C605.437 369.093 604.103 368.667 603.063 368.24C602.05 367.787 601.17 367.133 600.423 366.28C599.703 365.4 599.343 364.253 599.343 362.84C599.343 361.72 599.677 360.693 600.343 359.76C601.01 358.827 601.957 358.093 603.183 357.56C604.41 357 605.81 356.72 607.383 356.72C609.81 356.72 611.77 357.333 613.263 358.56C614.757 359.787 615.557 361.467 615.663 363.6H612.023C611.943 362.453 611.477 361.533 610.623 360.84C609.797 360.147 608.677 359.8 607.263 359.8C605.957 359.8 604.917 360.08 604.143 360.64C603.37 361.2 602.983 361.933 602.983 362.84C602.983 363.56 603.21 364.16 603.663 364.64C604.143 365.093 604.73 365.467 605.423 365.76C606.143 366.027 607.13 366.333 608.383 366.68C609.957 367.107 611.237 367.533 612.223 367.96C613.21 368.36 614.05 368.973 614.743 369.8C615.463 370.627 615.837 371.707 615.863 373.04C615.863 374.24 615.53 375.32 614.863 376.28C614.197 377.24 613.25 378 612.023 378.56C610.823 379.093 609.437 379.36 607.863 379.36ZM624.642 361.12C625.362 359.867 626.429 358.827 627.842 358C629.282 357.147 630.949 356.72 632.842 356.72C634.789 356.72 636.549 357.187 638.122 358.12C639.722 359.053 640.975 360.373 641.882 362.08C642.789 363.76 643.242 365.72 643.242 367.96C643.242 370.173 642.789 372.147 641.882 373.88C640.975 375.613 639.722 376.96 638.122 377.92C636.549 378.88 634.789 379.36 632.842 379.36C630.975 379.36 629.322 378.947 627.882 378.12C626.469 377.267 625.389 376.213 624.642 374.96V389.4H621.002V357.08H624.642V361.12ZM639.522 367.96C639.522 366.307 639.189 364.867 638.522 363.64C637.855 362.413 636.949 361.48 635.802 360.84C634.682 360.2 633.442 359.88 632.082 359.88C630.749 359.88 629.509 360.213 628.362 360.88C627.242 361.52 626.335 362.467 625.642 363.72C624.975 364.947 624.642 366.373 624.642 368C624.642 369.653 624.975 371.107 625.642 372.36C626.335 373.587 627.242 374.533 628.362 375.2C629.509 375.84 630.749 376.16 632.082 376.16C633.442 376.16 634.682 375.84 635.802 375.2C636.949 374.533 637.855 373.587 638.522 372.36C639.189 371.107 639.522 369.64 639.522 367.96ZM668.033 367.2C668.033 367.893 667.993 368.627 667.913 369.4H650.393C650.526 371.56 651.26 373.253 652.593 374.48C653.953 375.68 655.593 376.28 657.513 376.28C659.086 376.28 660.393 375.92 661.433 375.2C662.5 374.453 663.246 373.467 663.673 372.24H667.593C667.006 374.347 665.833 376.067 664.073 377.4C662.313 378.707 660.126 379.36 657.513 379.36C655.433 379.36 653.566 378.893 651.913 377.96C650.286 377.027 649.006 375.707 648.073 374C647.14 372.267 646.673 370.267 646.673 368C646.673 365.733 647.126 363.747 648.033 362.04C648.94 360.333 650.206 359.027 651.833 358.12C653.486 357.187 655.38 356.72 657.513 356.72C659.593 356.72 661.433 357.173 663.033 358.08C664.633 358.987 665.86 360.24 666.713 361.84C667.593 363.413 668.033 365.2 668.033 367.2ZM664.273 366.44C664.273 365.053 663.966 363.867 663.353 362.88C662.74 361.867 661.9 361.107 660.833 360.6C659.793 360.067 658.633 359.8 657.353 359.8C655.513 359.8 653.94 360.387 652.633 361.56C651.353 362.733 650.62 364.36 650.433 366.44H664.273ZM683.518 356.68C686.184 356.68 688.344 357.493 689.998 359.12C691.651 360.72 692.478 363.04 692.478 366.08V379H688.878V366.6C688.878 364.413 688.331 362.747 687.238 361.6C686.144 360.427 684.651 359.84 682.758 359.84C680.838 359.84 679.304 360.44 678.158 361.64C677.038 362.84 676.478 364.587 676.478 366.88V379H672.838V357.08H676.478V360.2C677.198 359.08 678.171 358.213 679.398 357.6C680.651 356.987 682.024 356.68 683.518 356.68ZM697.064 367.96C697.064 365.72 697.517 363.76 698.424 362.08C699.33 360.373 700.57 359.053 702.144 358.12C703.744 357.187 705.53 356.72 707.504 356.72C709.21 356.72 710.797 357.12 712.264 357.92C713.73 358.693 714.85 359.72 715.624 361V349.4H719.304V379H715.624V374.88C714.904 376.187 713.837 377.267 712.424 378.12C711.01 378.947 709.357 379.36 707.464 379.36C705.517 379.36 703.744 378.88 702.144 377.92C700.57 376.96 699.33 375.613 698.424 373.88C697.517 372.147 697.064 370.173 697.064 367.96ZM715.624 368C715.624 366.347 715.29 364.907 714.624 363.68C713.957 362.453 713.05 361.52 711.904 360.88C710.784 360.213 709.544 359.88 708.184 359.88C706.824 359.88 705.584 360.2 704.464 360.84C703.344 361.48 702.45 362.413 701.784 363.64C701.117 364.867 700.784 366.307 700.784 367.96C700.784 369.64 701.117 371.107 701.784 372.36C702.45 373.587 703.344 374.533 704.464 375.2C705.584 375.84 706.824 376.16 708.184 376.16C709.544 376.16 710.784 375.84 711.904 375.2C713.05 374.533 713.957 373.587 714.624 372.36C715.29 371.107 715.624 369.653 715.624 368ZM740.559 360.08V373C740.559 374.067 740.786 374.827 741.239 375.28C741.692 375.707 742.479 375.92 743.599 375.92H746.279V379H742.999C740.972 379 739.452 378.533 738.439 377.6C737.426 376.667 736.919 375.133 736.919 373V360.08H734.079V357.08H736.919V351.56H740.559V357.08H746.279V360.08H740.559ZM761.569 356.68C763.223 356.68 764.716 357.04 766.049 357.76C767.383 358.453 768.423 359.507 769.169 360.92C769.943 362.333 770.329 364.053 770.329 366.08V379H766.729V366.6C766.729 364.413 766.183 362.747 765.089 361.6C763.996 360.427 762.503 359.84 760.609 359.84C758.689 359.84 757.156 360.44 756.009 361.64C754.889 362.84 754.329 364.587 754.329 366.88V379H750.689V349.4H754.329V360.2C755.049 359.08 756.036 358.213 757.289 357.6C758.569 356.987 759.996 356.68 761.569 356.68ZM796.275 367.2C796.275 367.893 796.235 368.627 796.155 369.4H778.635C778.769 371.56 779.502 373.253 780.835 374.48C782.195 375.68 783.835 376.28 785.755 376.28C787.329 376.28 788.635 375.92 789.675 375.2C790.742 374.453 791.489 373.467 791.915 372.24H795.835C795.249 374.347 794.075 376.067 792.315 377.4C790.555 378.707 788.369 379.36 785.755 379.36C783.675 379.36 781.809 378.893 780.155 377.96C778.529 377.027 777.249 375.707 776.315 374C775.382 372.267 774.915 370.267 774.915 368C774.915 365.733 775.369 363.747 776.275 362.04C777.182 360.333 778.449 359.027 780.075 358.12C781.729 357.187 783.622 356.72 785.755 356.72C787.835 356.72 789.675 357.173 791.275 358.08C792.875 358.987 794.102 360.24 794.955 361.84C795.835 363.413 796.275 365.2 796.275 367.2ZM792.515 366.44C792.515 365.053 792.209 363.867 791.595 362.88C790.982 361.867 790.142 361.107 789.075 360.6C788.035 360.067 786.875 359.8 785.595 359.8C783.755 359.8 782.182 360.387 780.875 361.56C779.595 362.733 778.862 364.36 778.675 366.44H792.515ZM833.664 379H830.024L815.384 356.8V379H811.744V351.08H815.384L830.024 373.24V351.08H833.664V379ZM859.869 367.2C859.869 367.893 859.829 368.627 859.749 369.4H842.229C842.362 371.56 843.096 373.253 844.429 374.48C845.789 375.68 847.429 376.28 849.349 376.28C850.922 376.28 852.229 375.92 853.269 375.2C854.336 374.453 855.082 373.467 855.509 372.24H859.429C858.842 374.347 857.669 376.067 855.909 377.4C854.149 378.707 851.962 379.36 849.349 379.36C847.269 379.36 845.402 378.893 843.749 377.96C842.122 377.027 840.842 375.707 839.909 374C838.976 372.267 838.509 370.267 838.509 368C838.509 365.733 838.962 363.747 839.869 362.04C840.776 360.333 842.042 359.027 843.669 358.12C845.322 357.187 847.216 356.72 849.349 356.72C851.429 356.72 853.269 357.173 854.869 358.08C856.469 358.987 857.696 360.24 858.549 361.84C859.429 363.413 859.869 365.2 859.869 367.2ZM856.109 366.44C856.109 365.053 855.802 363.867 855.189 362.88C854.576 361.867 853.736 361.107 852.669 360.6C851.629 360.067 850.469 359.8 849.189 359.8C847.349 359.8 845.776 360.387 844.469 361.56C843.189 362.733 842.456 364.36 842.269 366.44H856.109ZM893.874 357.08L887.034 379H883.274L877.994 361.6L872.714 379H868.954L862.074 357.08H865.794L870.834 375.48L876.274 357.08H879.994L885.314 375.52L890.274 357.08H893.874ZM927.67 351.12L918.59 368.48V379H914.95V368.48L905.83 351.12H909.87L916.75 365.24L923.63 351.12H927.67ZM951.51 367.2C951.51 367.893 951.47 368.627 951.39 369.4H933.87C934.003 371.56 934.736 373.253 936.07 374.48C937.43 375.68 939.07 376.28 940.99 376.28C942.563 376.28 943.87 375.92 944.91 375.2C945.976 374.453 946.723 373.467 947.15 372.24H951.07C950.483 374.347 949.31 376.067 947.55 377.4C945.79 378.707 943.603 379.36 940.99 379.36C938.91 379.36 937.043 378.893 935.39 377.96C933.763 377.027 932.483 375.707 931.55 374C930.616 372.267 930.15 370.267 930.15 368C930.15 365.733 930.603 363.747 931.51 362.04C932.416 360.333 933.683 359.027 935.31 358.12C936.963 357.187 938.856 356.72 940.99 356.72C943.07 356.72 944.91 357.173 946.51 358.08C948.11 358.987 949.336 360.24 950.19 361.84C951.07 363.413 951.51 365.2 951.51 367.2ZM947.75 366.44C947.75 365.053 947.443 363.867 946.83 362.88C946.216 361.867 945.376 361.107 944.31 360.6C943.27 360.067 942.11 359.8 940.83 359.8C938.99 359.8 937.416 360.387 936.11 361.56C934.83 362.733 934.096 364.36 933.91 366.44H947.75ZM954.954 367.96C954.954 365.72 955.408 363.76 956.314 362.08C957.221 360.373 958.461 359.053 960.034 358.12C961.634 357.187 963.408 356.72 965.354 356.72C967.274 356.72 968.941 357.133 970.354 357.96C971.768 358.787 972.821 359.827 973.514 361.08V357.08H977.194V379H973.514V374.92C972.794 376.2 971.714 377.267 970.274 378.12C968.861 378.947 967.208 379.36 965.314 379.36C963.368 379.36 961.608 378.88 960.034 377.92C958.461 376.96 957.221 375.613 956.314 373.88C955.408 372.147 954.954 370.173 954.954 367.96ZM973.514 368C973.514 366.347 973.181 364.907 972.514 363.68C971.848 362.453 970.941 361.52 969.794 360.88C968.674 360.213 967.434 359.88 966.074 359.88C964.714 359.88 963.474 360.2 962.354 360.84C961.234 361.48 960.341 362.413 959.674 363.64C959.008 364.867 958.674 366.307 958.674 367.96C958.674 369.64 959.008 371.107 959.674 372.36C960.341 373.587 961.234 374.533 962.354 375.2C963.474 375.84 964.714 376.16 966.074 376.16C967.434 376.16 968.674 375.84 969.794 375.2C970.941 374.533 971.848 373.587 972.514 372.36C973.181 371.107 973.514 369.653 973.514 368ZM986.986 360.64C987.626 359.387 988.532 358.413 989.706 357.72C990.906 357.027 992.359 356.68 994.066 356.68V360.44H993.106C989.026 360.44 986.986 362.653 986.986 367.08V379H983.346V357.08H986.986V360.64ZM998.828 351.12H1002.87L999.028 360.2H996.468L998.828 351.12ZM1014.78 379.36C1013.1 379.36 1011.59 379.08 1010.26 378.52C1008.92 377.933 1007.87 377.133 1007.1 376.12C1006.32 375.08 1005.9 373.893 1005.82 372.56H1009.58C1009.68 373.653 1010.19 374.547 1011.1 375.24C1012.03 375.933 1013.24 376.28 1014.74 376.28C1016.12 376.28 1017.22 375.973 1018.02 375.36C1018.82 374.747 1019.22 373.973 1019.22 373.04C1019.22 372.08 1018.79 371.373 1017.94 370.92C1017.08 370.44 1015.76 369.973 1013.98 369.52C1012.35 369.093 1011.02 368.667 1009.98 368.24C1008.96 367.787 1008.08 367.133 1007.34 366.28C1006.62 365.4 1006.26 364.253 1006.26 362.84C1006.26 361.72 1006.59 360.693 1007.26 359.76C1007.92 358.827 1008.87 358.093 1010.1 357.56C1011.32 357 1012.72 356.72 1014.3 356.72C1016.72 356.72 1018.68 357.333 1020.18 358.56C1021.67 359.787 1022.47 361.467 1022.58 363.6H1018.94C1018.86 362.453 1018.39 361.533 1017.54 360.84C1016.71 360.147 1015.59 359.8 1014.18 359.8C1012.87 359.8 1011.83 360.08 1011.06 360.64C1010.28 361.2 1009.9 361.933 1009.9 362.84C1009.9 363.56 1010.12 364.16 1010.58 364.64C1011.06 365.093 1011.64 365.467 1012.34 365.76C1013.06 366.027 1014.04 366.333 1015.3 366.68C1016.87 367.107 1018.15 367.533 1019.14 367.96C1020.12 368.36 1020.96 368.973 1021.66 369.8C1022.38 370.627 1022.75 371.707 1022.78 373.04C1022.78 374.24 1022.44 375.32 1021.78 376.28C1021.11 377.24 1020.16 378 1018.94 378.56C1017.74 379.093 1016.35 379.36 1014.78 379.36ZM1042.22 354.08V363.4H1052.38V366.4H1042.22V376H1053.58V379H1038.58V351.08H1053.58V354.08H1042.22ZM1067.25 375.64L1074.05 357.08H1077.93L1069.33 379H1065.09L1056.49 357.08H1060.41L1067.25 375.64ZM1101.51 367.2C1101.51 367.893 1101.47 368.627 1101.39 369.4H1083.87C1084 371.56 1084.74 373.253 1086.07 374.48C1087.43 375.68 1089.07 376.28 1090.99 376.28C1092.56 376.28 1093.87 375.92 1094.91 375.2C1095.98 374.453 1096.72 373.467 1097.15 372.24H1101.07C1100.48 374.347 1099.31 376.067 1097.55 377.4C1095.79 378.707 1093.6 379.36 1090.99 379.36C1088.91 379.36 1087.04 378.893 1085.39 377.96C1083.76 377.027 1082.48 375.707 1081.55 374C1080.62 372.267 1080.15 370.267 1080.15 368C1080.15 365.733 1080.6 363.747 1081.51 362.04C1082.42 360.333 1083.68 359.027 1085.31 358.12C1086.96 357.187 1088.86 356.72 1090.99 356.72C1093.07 356.72 1094.91 357.173 1096.51 358.08C1098.11 358.987 1099.34 360.24 1100.19 361.84C1101.07 363.413 1101.51 365.2 1101.51 367.2ZM1097.75 366.44C1097.75 365.053 1097.44 363.867 1096.83 362.88C1096.22 361.867 1095.38 361.107 1094.31 360.6C1093.27 360.067 1092.11 359.8 1090.83 359.8C1088.99 359.8 1087.42 360.387 1086.11 361.56C1084.83 362.733 1084.1 364.36 1083.91 366.44H1097.75ZM1113.43 350.76C1116.07 350.76 1118.21 351.507 1119.83 353C1121.46 354.493 1122.27 356.493 1122.27 359C1122.27 361.8 1121.41 363.88 1119.67 365.24C1117.94 366.573 1115.59 367.24 1112.63 367.24L1112.51 371.04H1109.35L1109.19 364.72H1110.35C1112.99 364.72 1115.06 364.32 1116.55 363.52C1118.05 362.72 1118.79 361.213 1118.79 359C1118.79 357.4 1118.31 356.133 1117.35 355.2C1116.39 354.267 1115.1 353.8 1113.47 353.8C1111.82 353.8 1110.51 354.253 1109.55 355.16C1108.62 356.04 1108.15 357.253 1108.15 358.8H1104.71C1104.71 357.2 1105.07 355.8 1105.79 354.6C1106.51 353.373 1107.53 352.427 1108.83 351.76C1110.17 351.093 1111.7 350.76 1113.43 350.76ZM1110.91 379.24C1110.22 379.24 1109.63 379 1109.15 378.52C1108.67 378.04 1108.43 377.453 1108.43 376.76C1108.43 376.067 1108.67 375.48 1109.15 375C1109.63 374.52 1110.22 374.28 1110.91 374.28C1111.58 374.28 1112.14 374.52 1112.59 375C1113.07 375.48 1113.31 376.067 1113.31 376.76C1113.31 377.453 1113.07 378.04 1112.59 378.52C1112.14 379 1111.58 379.24 1110.91 379.24ZM140.114 437.36C140.3 434.907 141.247 432.987 142.954 431.6C144.66 430.213 146.874 429.52 149.594 429.52C151.407 429.52 152.967 429.853 154.274 430.52C155.607 431.16 156.607 432.04 157.274 433.16C157.967 434.28 158.314 435.547 158.314 436.96C158.314 438.613 157.834 440.04 156.874 441.24C155.94 442.44 154.714 443.213 153.194 443.56V443.76C154.927 444.187 156.3 445.027 157.314 446.28C158.327 447.533 158.834 449.173 158.834 451.2C158.834 452.72 158.487 454.093 157.794 455.32C157.1 456.52 156.06 457.467 154.674 458.16C153.287 458.853 151.62 459.2 149.674 459.2C146.847 459.2 144.527 458.467 142.714 457C140.9 455.507 139.887 453.4 139.674 450.68H143.194C143.38 452.28 144.034 453.587 145.154 454.6C146.274 455.613 147.767 456.12 149.634 456.12C151.5 456.12 152.914 455.64 153.874 454.68C154.86 453.693 155.354 452.427 155.354 450.88C155.354 448.88 154.687 447.44 153.354 446.56C152.02 445.68 150.007 445.24 147.314 445.24H146.394V442.2H147.354C149.807 442.173 151.66 441.773 152.914 441C154.167 440.2 154.794 438.973 154.794 437.32C154.794 435.907 154.327 434.773 153.394 433.92C152.487 433.067 151.18 432.64 149.474 432.64C147.82 432.64 146.487 433.067 145.474 433.92C144.46 434.773 143.86 435.92 143.674 437.36H140.114ZM165.508 459.24C164.815 459.24 164.228 459 163.748 458.52C163.268 458.04 163.028 457.453 163.028 456.76C163.028 456.067 163.268 455.48 163.748 455C164.228 454.52 164.815 454.28 165.508 454.28C166.175 454.28 166.735 454.52 167.188 455C167.668 455.48 167.908 456.067 167.908 456.76C167.908 457.453 167.668 458.04 167.188 458.52C166.735 459 166.175 459.24 165.508 459.24ZM221.12 431.12L213.04 459H208.96L202.48 436.56L195.76 459L191.72 459.04L183.92 431.12H187.8L193.88 454.76L200.6 431.12H204.68L211.08 454.68L217.2 431.12H221.12ZM235.983 436.68C237.637 436.68 239.13 437.04 240.463 437.76C241.797 438.453 242.837 439.507 243.583 440.92C244.357 442.333 244.743 444.053 244.743 446.08V459H241.143V446.6C241.143 444.413 240.597 442.747 239.503 441.6C238.41 440.427 236.917 439.84 235.023 439.84C233.103 439.84 231.57 440.44 230.423 441.64C229.303 442.84 228.743 444.587 228.743 446.88V459H225.103V429.4H228.743V440.2C229.463 439.08 230.45 438.213 231.703 437.6C232.983 436.987 234.41 436.68 235.983 436.68ZM249.329 447.96C249.329 445.72 249.783 443.76 250.689 442.08C251.596 440.373 252.836 439.053 254.409 438.12C256.009 437.187 257.783 436.72 259.729 436.72C261.649 436.72 263.316 437.133 264.729 437.96C266.143 438.787 267.196 439.827 267.889 441.08V437.08H271.569V459H267.889V454.92C267.169 456.2 266.089 457.267 264.649 458.12C263.236 458.947 261.583 459.36 259.689 459.36C257.743 459.36 255.983 458.88 254.409 457.92C252.836 456.96 251.596 455.613 250.689 453.88C249.783 452.147 249.329 450.173 249.329 447.96ZM267.889 448C267.889 446.347 267.556 444.907 266.889 443.68C266.223 442.453 265.316 441.52 264.169 440.88C263.049 440.213 261.809 439.88 260.449 439.88C259.089 439.88 257.849 440.2 256.729 440.84C255.609 441.48 254.716 442.413 254.049 443.64C253.383 444.867 253.049 446.307 253.049 447.96C253.049 449.64 253.383 451.107 254.049 452.36C254.716 453.587 255.609 454.533 256.729 455.2C257.849 455.84 259.089 456.16 260.449 456.16C261.809 456.16 263.049 455.84 264.169 455.2C265.316 454.533 266.223 453.587 266.889 452.36C267.556 451.107 267.889 449.653 267.889 448ZM282.161 440.08V453C282.161 454.067 282.387 454.827 282.841 455.28C283.294 455.707 284.081 455.92 285.201 455.92H287.881V459H284.601C282.574 459 281.054 458.533 280.041 457.6C279.027 456.667 278.521 455.133 278.521 453V440.08H275.681V437.08H278.521V431.56H282.161V437.08H287.881V440.08H282.161ZM332.155 437.08L325.315 459H321.555L316.275 441.6L310.995 459H307.235L300.355 437.08H304.075L309.115 455.48L314.555 437.08H318.275L323.595 455.52L328.555 437.08H332.155ZM334.408 447.96C334.408 445.72 334.861 443.76 335.768 442.08C336.674 440.373 337.914 439.053 339.488 438.12C341.088 437.187 342.861 436.72 344.808 436.72C346.728 436.72 348.394 437.133 349.808 437.96C351.221 438.787 352.274 439.827 352.968 441.08V437.08H356.648V459H352.968V454.92C352.248 456.2 351.168 457.267 349.728 458.12C348.314 458.947 346.661 459.36 344.768 459.36C342.821 459.36 341.061 458.88 339.488 457.92C337.914 456.96 336.674 455.613 335.768 453.88C334.861 452.147 334.408 450.173 334.408 447.96ZM352.968 448C352.968 446.347 352.634 444.907 351.968 443.68C351.301 442.453 350.394 441.52 349.248 440.88C348.128 440.213 346.888 439.88 345.528 439.88C344.168 439.88 342.928 440.2 341.808 440.84C340.688 441.48 339.794 442.413 339.128 443.64C338.461 444.867 338.128 446.307 338.128 447.96C338.128 449.64 338.461 451.107 339.128 452.36C339.794 453.587 340.688 454.533 341.808 455.2C342.928 455.84 344.168 456.16 345.528 456.16C346.888 456.16 348.128 455.84 349.248 455.2C350.394 454.533 351.301 453.587 351.968 452.36C352.634 451.107 352.968 449.653 352.968 448ZM370.559 459.36C368.879 459.36 367.372 459.08 366.039 458.52C364.705 457.933 363.652 457.133 362.879 456.12C362.105 455.08 361.679 453.893 361.599 452.56H365.359C365.465 453.653 365.972 454.547 366.879 455.24C367.812 455.933 369.025 456.28 370.519 456.28C371.905 456.28 372.999 455.973 373.799 455.36C374.599 454.747 374.999 453.973 374.999 453.04C374.999 452.08 374.572 451.373 373.719 450.92C372.865 450.44 371.545 449.973 369.759 449.52C368.132 449.093 366.799 448.667 365.759 448.24C364.745 447.787 363.865 447.133 363.119 446.28C362.399 445.4 362.039 444.253 362.039 442.84C362.039 441.72 362.372 440.693 363.039 439.76C363.705 438.827 364.652 438.093 365.879 437.56C367.105 437 368.505 436.72 370.079 436.72C372.505 436.72 374.465 437.333 375.959 438.56C377.452 439.787 378.252 441.467 378.359 443.6H374.719C374.639 442.453 374.172 441.533 373.319 440.84C372.492 440.147 371.372 439.8 369.959 439.8C368.652 439.8 367.612 440.08 366.839 440.64C366.065 441.2 365.679 441.933 365.679 442.84C365.679 443.56 365.905 444.16 366.359 444.64C366.839 445.093 367.425 445.467 368.119 445.76C368.839 446.027 369.825 446.333 371.079 446.68C372.652 447.107 373.932 447.533 374.919 447.96C375.905 448.36 376.745 448.973 377.439 449.8C378.159 450.627 378.532 451.707 378.559 453.04C378.559 454.24 378.225 455.32 377.559 456.28C376.892 457.24 375.945 458 374.719 458.56C373.519 459.093 372.132 459.36 370.559 459.36ZM413.241 437.08L400.041 469.32H396.281L400.601 458.76L391.761 437.08H395.801L402.681 454.84L409.481 437.08H413.241ZM426.46 459.36C424.407 459.36 422.54 458.893 420.86 457.96C419.207 457.027 417.9 455.707 416.94 454C416.007 452.267 415.54 450.267 415.54 448C415.54 445.76 416.02 443.787 416.98 442.08C417.967 440.347 419.3 439.027 420.98 438.12C422.66 437.187 424.54 436.72 426.62 436.72C428.7 436.72 430.58 437.187 432.26 438.12C433.94 439.027 435.26 440.333 436.22 442.04C437.207 443.747 437.7 445.733 437.7 448C437.7 450.267 437.194 452.267 436.18 454C435.194 455.707 433.847 457.027 432.14 457.96C430.434 458.893 428.54 459.36 426.46 459.36ZM426.46 456.16C427.767 456.16 428.994 455.853 430.14 455.24C431.287 454.627 432.207 453.707 432.9 452.48C433.62 451.253 433.98 449.76 433.98 448C433.98 446.24 433.634 444.747 432.94 443.52C432.247 442.293 431.34 441.387 430.22 440.8C429.1 440.187 427.887 439.88 426.58 439.88C425.247 439.88 424.02 440.187 422.9 440.8C421.807 441.387 420.927 442.293 420.26 443.52C419.594 444.747 419.26 446.24 419.26 448C419.26 449.787 419.58 451.293 420.22 452.52C420.887 453.747 421.767 454.667 422.86 455.28C423.954 455.867 425.154 456.16 426.46 456.16ZM461.926 437.08V459H458.286V455.76C457.593 456.88 456.62 457.76 455.366 458.4C454.14 459.013 452.78 459.32 451.286 459.32C449.58 459.32 448.046 458.973 446.686 458.28C445.326 457.56 444.246 456.493 443.446 455.08C442.673 453.667 442.286 451.947 442.286 449.92V437.08H445.886V449.44C445.886 451.6 446.433 453.267 447.526 454.44C448.62 455.587 450.113 456.16 452.006 456.16C453.953 456.16 455.486 455.56 456.606 454.36C457.726 453.16 458.286 451.413 458.286 449.12V437.08H461.926ZM471.712 440.64C472.352 439.387 473.259 438.413 474.432 437.72C475.632 437.027 477.086 436.68 478.792 436.68V440.44H477.832C473.752 440.44 471.712 442.653 471.712 447.08V459H468.072V437.08H471.712V440.64ZM502.578 440.08H497.978V459H494.338V440.08H491.498V437.08H494.338V435.52C494.338 433.067 494.965 431.28 496.218 430.16C497.498 429.013 499.538 428.44 502.338 428.44V431.48C500.738 431.48 499.605 431.8 498.938 432.44C498.298 433.053 497.978 434.08 497.978 435.52V437.08H502.578V440.08ZM505.462 447.96C505.462 445.72 505.916 443.76 506.822 442.08C507.729 440.373 508.969 439.053 510.542 438.12C512.142 437.187 513.916 436.72 515.862 436.72C517.782 436.72 519.449 437.133 520.862 437.96C522.276 438.787 523.329 439.827 524.022 441.08V437.08H527.702V459H524.022V454.92C523.302 456.2 522.222 457.267 520.782 458.12C519.369 458.947 517.716 459.36 515.822 459.36C513.876 459.36 512.116 458.88 510.542 457.92C508.969 456.96 507.729 455.613 506.822 453.88C505.916 452.147 505.462 450.173 505.462 447.96ZM524.022 448C524.022 446.347 523.689 444.907 523.022 443.68C522.356 442.453 521.449 441.52 520.302 440.88C519.182 440.213 517.942 439.88 516.582 439.88C515.222 439.88 513.982 440.2 512.862 440.84C511.742 441.48 510.849 442.413 510.182 443.64C509.516 444.867 509.182 446.307 509.182 447.96C509.182 449.64 509.516 451.107 510.182 452.36C510.849 453.587 511.742 454.533 512.862 455.2C513.982 455.84 515.222 456.16 516.582 456.16C517.942 456.16 519.182 455.84 520.302 455.2C521.449 454.533 522.356 453.587 523.022 452.36C523.689 451.107 524.022 449.653 524.022 448ZM542.013 455.64L548.813 437.08H552.693L544.093 459H539.853L531.253 437.08H535.173L542.013 455.64ZM565.835 459.36C563.782 459.36 561.915 458.893 560.235 457.96C558.582 457.027 557.275 455.707 556.315 454C555.382 452.267 554.915 450.267 554.915 448C554.915 445.76 555.395 443.787 556.355 442.08C557.342 440.347 558.675 439.027 560.355 438.12C562.035 437.187 563.915 436.72 565.995 436.72C568.075 436.72 569.955 437.187 571.635 438.12C573.315 439.027 574.635 440.333 575.595 442.04C576.582 443.747 577.075 445.733 577.075 448C577.075 450.267 576.569 452.267 575.555 454C574.569 455.707 573.222 457.027 571.515 457.96C569.809 458.893 567.915 459.36 565.835 459.36ZM565.835 456.16C567.142 456.16 568.369 455.853 569.515 455.24C570.662 454.627 571.582 453.707 572.275 452.48C572.995 451.253 573.355 449.76 573.355 448C573.355 446.24 573.009 444.747 572.315 443.52C571.622 442.293 570.715 441.387 569.595 440.8C568.475 440.187 567.262 439.88 565.955 439.88C564.622 439.88 563.395 440.187 562.275 440.8C561.182 441.387 560.302 442.293 559.635 443.52C558.969 444.747 558.635 446.24 558.635 448C558.635 449.787 558.955 451.293 559.595 452.52C560.262 453.747 561.142 454.667 562.235 455.28C563.329 455.867 564.529 456.16 565.835 456.16ZM585.501 440.64C586.141 439.387 587.048 438.413 588.221 437.72C589.421 437.027 590.875 436.68 592.581 436.68V440.44H591.621C587.541 440.44 585.501 442.653 585.501 447.08V459H581.861V437.08H585.501V440.64ZM598.663 433.52C597.97 433.52 597.383 433.28 596.903 432.8C596.423 432.32 596.183 431.733 596.183 431.04C596.183 430.347 596.423 429.76 596.903 429.28C597.383 428.8 597.97 428.56 598.663 428.56C599.33 428.56 599.89 428.8 600.343 429.28C600.823 429.76 601.063 430.347 601.063 431.04C601.063 431.733 600.823 432.32 600.343 432.8C599.89 433.28 599.33 433.52 598.663 433.52ZM600.423 437.08V459H596.783V437.08H600.423ZM611.067 440.08V453C611.067 454.067 611.294 454.827 611.747 455.28C612.2 455.707 612.987 455.92 614.107 455.92H616.787V459H613.507C611.48 459 609.96 458.533 608.947 457.6C607.934 456.667 607.427 455.133 607.427 453V440.08H604.587V437.08H607.427V431.56H611.067V437.08H616.787V440.08H611.067ZM641.197 447.2C641.197 447.893 641.157 448.627 641.077 449.4H623.557C623.691 451.56 624.424 453.253 625.757 454.48C627.117 455.68 628.757 456.28 630.677 456.28C632.251 456.28 633.557 455.92 634.597 455.2C635.664 454.453 636.411 453.467 636.837 452.24H640.757C640.171 454.347 638.997 456.067 637.237 457.4C635.477 458.707 633.291 459.36 630.677 459.36C628.597 459.36 626.731 458.893 625.077 457.96C623.451 457.027 622.171 455.707 621.237 454C620.304 452.267 619.837 450.267 619.837 448C619.837 445.733 620.291 443.747 621.197 442.04C622.104 440.333 623.371 439.027 624.997 438.12C626.651 437.187 628.544 436.72 630.677 436.72C632.757 436.72 634.597 437.173 636.197 438.08C637.797 438.987 639.024 440.24 639.877 441.84C640.757 443.413 641.197 445.2 641.197 447.2ZM637.437 446.44C637.437 445.053 637.131 443.867 636.517 442.88C635.904 441.867 635.064 441.107 633.997 440.6C632.957 440.067 631.797 439.8 630.517 439.8C628.677 439.8 627.104 440.387 625.797 441.56C624.517 442.733 623.784 444.36 623.597 446.44H637.437ZM667.546 436.68C669.199 436.68 670.693 437.04 672.026 437.76C673.359 438.453 674.399 439.507 675.146 440.92C675.919 442.333 676.306 444.053 676.306 446.08V459H672.706V446.6C672.706 444.413 672.159 442.747 671.066 441.6C669.973 440.427 668.479 439.84 666.586 439.84C664.666 439.84 663.133 440.44 661.986 441.64C660.866 442.84 660.306 444.587 660.306 446.88V459H656.666V429.4H660.306V440.2C661.026 439.08 662.013 438.213 663.266 437.6C664.546 436.987 665.973 436.68 667.546 436.68ZM691.812 459.36C689.759 459.36 687.892 458.893 686.212 457.96C684.559 457.027 683.252 455.707 682.292 454C681.359 452.267 680.892 450.267 680.892 448C680.892 445.76 681.372 443.787 682.332 442.08C683.319 440.347 684.652 439.027 686.332 438.12C688.012 437.187 689.892 436.72 691.972 436.72C694.052 436.72 695.932 437.187 697.612 438.12C699.292 439.027 700.612 440.333 701.572 442.04C702.559 443.747 703.052 445.733 703.052 448C703.052 450.267 702.545 452.267 701.532 454C700.545 455.707 699.199 457.027 697.492 457.96C695.785 458.893 693.892 459.36 691.812 459.36ZM691.812 456.16C693.119 456.16 694.345 455.853 695.492 455.24C696.639 454.627 697.559 453.707 698.252 452.48C698.972 451.253 699.332 449.76 699.332 448C699.332 446.24 698.985 444.747 698.292 443.52C697.599 442.293 696.692 441.387 695.572 440.8C694.452 440.187 693.239 439.88 691.932 439.88C690.599 439.88 689.372 440.187 688.252 440.8C687.159 441.387 686.279 442.293 685.612 443.52C684.945 444.747 684.612 446.24 684.612 448C684.612 449.787 684.932 451.293 685.572 452.52C686.239 453.747 687.119 454.667 688.212 455.28C689.305 455.867 690.505 456.16 691.812 456.16ZM711.478 429.4V459H707.838V429.4H711.478ZM719.562 433.52C718.868 433.52 718.282 433.28 717.802 432.8C717.322 432.32 717.082 431.733 717.082 431.04C717.082 430.347 717.322 429.76 717.802 429.28C718.282 428.8 718.868 428.56 719.562 428.56C720.228 428.56 720.788 428.8 721.242 429.28C721.722 429.76 721.962 430.347 721.962 431.04C721.962 431.733 721.722 432.32 721.242 432.8C720.788 433.28 720.228 433.52 719.562 433.52ZM721.322 437.08V459H717.682V437.08H721.322ZM726.165 447.96C726.165 445.72 726.619 443.76 727.525 442.08C728.432 440.373 729.672 439.053 731.245 438.12C732.845 437.187 734.632 436.72 736.605 436.72C738.312 436.72 739.899 437.12 741.365 437.92C742.832 438.693 743.952 439.72 744.725 441V429.4H748.405V459H744.725V454.88C744.005 456.187 742.939 457.267 741.525 458.12C740.112 458.947 738.459 459.36 736.565 459.36C734.619 459.36 732.845 458.88 731.245 457.92C729.672 456.96 728.432 455.613 727.525 453.88C726.619 452.147 726.165 450.173 726.165 447.96ZM744.725 448C744.725 446.347 744.392 444.907 743.725 443.68C743.059 442.453 742.152 441.52 741.005 440.88C739.885 440.213 738.645 439.88 737.285 439.88C735.925 439.88 734.685 440.2 733.565 440.84C732.445 441.48 731.552 442.413 730.885 443.64C730.219 444.867 729.885 446.307 729.885 447.96C729.885 449.64 730.219 451.107 730.885 452.36C731.552 453.587 732.445 454.533 733.565 455.2C734.685 455.84 735.925 456.16 737.285 456.16C738.645 456.16 739.885 455.84 741.005 455.2C742.152 454.533 743.059 453.587 743.725 452.36C744.392 451.107 744.725 449.653 744.725 448ZM753.197 447.96C753.197 445.72 753.65 443.76 754.557 442.08C755.463 440.373 756.703 439.053 758.277 438.12C759.877 437.187 761.65 436.72 763.597 436.72C765.517 436.72 767.183 437.133 768.597 437.96C770.01 438.787 771.063 439.827 771.757 441.08V437.08H775.437V459H771.757V454.92C771.037 456.2 769.957 457.267 768.517 458.12C767.103 458.947 765.45 459.36 763.557 459.36C761.61 459.36 759.85 458.88 758.277 457.92C756.703 456.96 755.463 455.613 754.557 453.88C753.65 452.147 753.197 450.173 753.197 447.96ZM771.757 448C771.757 446.347 771.423 444.907 770.757 443.68C770.09 442.453 769.183 441.52 768.037 440.88C766.917 440.213 765.677 439.88 764.317 439.88C762.957 439.88 761.717 440.2 760.597 440.84C759.477 441.48 758.583 442.413 757.917 443.64C757.25 444.867 756.917 446.307 756.917 447.96C756.917 449.64 757.25 451.107 757.917 452.36C758.583 453.587 759.477 454.533 760.597 455.2C761.717 455.84 762.957 456.16 764.317 456.16C765.677 456.16 766.917 455.84 768.037 455.2C769.183 454.533 770.09 453.587 770.757 452.36C771.423 451.107 771.757 449.653 771.757 448ZM800.468 437.08L787.268 469.32H783.508L787.828 458.76L778.988 437.08H783.028L789.908 454.84L796.708 437.08H800.468ZM813.431 447.96C813.431 445.72 813.884 443.76 814.791 442.08C815.698 440.373 816.938 439.053 818.511 438.12C820.111 437.187 821.884 436.72 823.831 436.72C825.751 436.72 827.418 437.133 828.831 437.96C830.244 438.787 831.298 439.827 831.991 441.08V437.08H835.671V459H831.991V454.92C831.271 456.2 830.191 457.267 828.751 458.12C827.338 458.947 825.684 459.36 823.791 459.36C821.844 459.36 820.084 458.88 818.511 457.92C816.938 456.96 815.698 455.613 814.791 453.88C813.884 452.147 813.431 450.173 813.431 447.96ZM831.991 448C831.991 446.347 831.658 444.907 830.991 443.68C830.324 442.453 829.418 441.52 828.271 440.88C827.151 440.213 825.911 439.88 824.551 439.88C823.191 439.88 821.951 440.2 820.831 440.84C819.711 441.48 818.818 442.413 818.151 443.64C817.484 444.867 817.151 446.307 817.151 447.96C817.151 449.64 817.484 451.107 818.151 452.36C818.818 453.587 819.711 454.533 820.831 455.2C821.951 455.84 823.191 456.16 824.551 456.16C825.911 456.16 827.151 455.84 828.271 455.2C829.418 454.533 830.324 453.587 830.991 452.36C831.658 451.107 831.991 449.653 831.991 448ZM849.582 459.36C847.902 459.36 846.396 459.08 845.062 458.52C843.729 457.933 842.676 457.133 841.902 456.12C841.129 455.08 840.702 453.893 840.622 452.56H844.382C844.489 453.653 844.996 454.547 845.902 455.24C846.836 455.933 848.049 456.28 849.542 456.28C850.929 456.28 852.022 455.973 852.822 455.36C853.622 454.747 854.022 453.973 854.022 453.04C854.022 452.08 853.596 451.373 852.742 450.92C851.889 450.44 850.569 449.973 848.782 449.52C847.156 449.093 845.822 448.667 844.782 448.24C843.769 447.787 842.889 447.133 842.142 446.28C841.422 445.4 841.062 444.253 841.062 442.84C841.062 441.72 841.396 440.693 842.062 439.76C842.729 438.827 843.676 438.093 844.902 437.56C846.129 437 847.529 436.72 849.102 436.72C851.529 436.72 853.489 437.333 854.982 438.56C856.476 439.787 857.276 441.467 857.382 443.6H853.742C853.662 442.453 853.196 441.533 852.342 440.84C851.516 440.147 850.396 439.8 848.982 439.8C847.676 439.8 846.636 440.08 845.862 440.64C845.089 441.2 844.702 441.933 844.702 442.84C844.702 443.56 844.929 444.16 845.382 444.64C845.862 445.093 846.449 445.467 847.142 445.76C847.862 446.027 848.849 446.333 850.102 446.68C851.676 447.107 852.956 447.533 853.942 447.96C854.929 448.36 855.769 448.973 856.462 449.8C857.182 450.627 857.556 451.707 857.582 453.04C857.582 454.24 857.249 455.32 856.582 456.28C855.916 457.24 854.969 458 853.742 458.56C852.542 459.093 851.156 459.36 849.582 459.36ZM872.025 447.96C872.025 445.72 872.478 443.76 873.385 442.08C874.291 440.373 875.531 439.053 877.105 438.12C878.705 437.187 880.478 436.72 882.425 436.72C884.345 436.72 886.011 437.133 887.425 437.96C888.838 438.787 889.891 439.827 890.585 441.08V437.08H894.265V459H890.585V454.92C889.865 456.2 888.785 457.267 887.345 458.12C885.931 458.947 884.278 459.36 882.385 459.36C880.438 459.36 878.678 458.88 877.105 457.92C875.531 456.96 874.291 455.613 873.385 453.88C872.478 452.147 872.025 450.173 872.025 447.96ZM890.585 448C890.585 446.347 890.251 444.907 889.585 443.68C888.918 442.453 888.011 441.52 886.865 440.88C885.745 440.213 884.505 439.88 883.145 439.88C881.785 439.88 880.545 440.2 879.425 440.84C878.305 441.48 877.411 442.413 876.745 443.64C876.078 444.867 875.745 446.307 875.745 447.96C875.745 449.64 876.078 451.107 876.745 452.36C877.411 453.587 878.305 454.533 879.425 455.2C880.545 455.84 881.785 456.16 883.145 456.16C884.505 456.16 885.745 455.84 886.865 455.2C888.011 454.533 888.918 453.587 889.585 452.36C890.251 451.107 890.585 449.653 890.585 448ZM909.72 448C909.72 445.733 910.173 443.76 911.08 442.08C911.987 440.373 913.24 439.053 914.84 438.12C916.467 437.187 918.32 436.72 920.4 436.72C923.093 436.72 925.307 437.373 927.04 438.68C928.8 439.987 929.96 441.8 930.52 444.12H926.6C926.227 442.787 925.493 441.733 924.4 440.96C923.333 440.187 922 439.8 920.4 439.8C918.32 439.8 916.64 440.52 915.36 441.96C914.08 443.373 913.44 445.387 913.44 448C913.44 450.64 914.08 452.68 915.36 454.12C916.64 455.56 918.32 456.28 920.4 456.28C922 456.28 923.333 455.907 924.4 455.16C925.467 454.413 926.2 453.347 926.6 451.96H930.52C929.933 454.2 928.76 456 927 457.36C925.24 458.693 923.04 459.36 920.4 459.36C918.32 459.36 916.467 458.893 914.84 457.96C913.24 457.027 911.987 455.707 911.08 454C910.173 452.293 909.72 450.293 909.72 448ZM946.257 436.68C947.91 436.68 949.404 437.04 950.737 437.76C952.07 438.453 953.11 439.507 953.857 440.92C954.63 442.333 955.017 444.053 955.017 446.08V459H951.417V446.6C951.417 444.413 950.87 442.747 949.777 441.6C948.684 440.427 947.19 439.84 945.297 439.84C943.377 439.84 941.844 440.44 940.697 441.64C939.577 442.84 939.017 444.587 939.017 446.88V459H935.377V429.4H939.017V440.2C939.737 439.08 940.724 438.213 941.977 437.6C943.257 436.987 944.684 436.68 946.257 436.68ZM962.843 433.52C962.149 433.52 961.563 433.28 961.083 432.8C960.603 432.32 960.363 431.733 960.363 431.04C960.363 430.347 960.603 429.76 961.083 429.28C961.563 428.8 962.149 428.56 962.843 428.56C963.509 428.56 964.069 428.8 964.523 429.28C965.003 429.76 965.243 430.347 965.243 431.04C965.243 431.733 965.003 432.32 964.523 432.8C964.069 433.28 963.509 433.52 962.843 433.52ZM964.603 437.08V459H960.963V437.08H964.603ZM974.447 429.4V459H970.807V429.4H974.447ZM979.29 447.96C979.29 445.72 979.744 443.76 980.65 442.08C981.557 440.373 982.797 439.053 984.37 438.12C985.97 437.187 987.757 436.72 989.73 436.72C991.437 436.72 993.024 437.12 994.49 437.92C995.957 438.693 997.077 439.72 997.85 441V429.4H1001.53V459H997.85V454.88C997.13 456.187 996.064 457.267 994.65 458.12C993.237 458.947 991.584 459.36 989.69 459.36C987.744 459.36 985.97 458.88 984.37 457.92C982.797 456.96 981.557 455.613 980.65 453.88C979.744 452.147 979.29 450.173 979.29 447.96ZM997.85 448C997.85 446.347 997.517 444.907 996.85 443.68C996.184 442.453 995.277 441.52 994.13 440.88C993.01 440.213 991.77 439.88 990.41 439.88C989.05 439.88 987.81 440.2 986.69 440.84C985.57 441.48 984.677 442.413 984.01 443.64C983.344 444.867 983.01 446.307 983.01 447.96C983.01 449.64 983.344 451.107 984.01 452.36C984.677 453.587 985.57 454.533 986.69 455.2C987.81 455.84 989.05 456.16 990.41 456.16C991.77 456.16 993.01 455.84 994.13 455.2C995.277 454.533 996.184 453.587 996.85 452.36C997.517 451.107 997.85 449.653 997.85 448ZM1014.8 430.76C1017.44 430.76 1019.57 431.507 1021.2 433C1022.83 434.493 1023.64 436.493 1023.64 439C1023.64 441.8 1022.77 443.88 1021.04 445.24C1019.31 446.573 1016.96 447.24 1014 447.24L1013.88 451.04H1010.72L1010.56 444.72H1011.72C1014.36 444.72 1016.43 444.32 1017.92 443.52C1019.41 442.72 1020.16 441.213 1020.16 439C1020.16 437.4 1019.68 436.133 1018.72 435.2C1017.76 434.267 1016.47 433.8 1014.84 433.8C1013.19 433.8 1011.88 434.253 1010.92 435.16C1009.99 436.04 1009.52 437.253 1009.52 438.8H1006.08C1006.08 437.2 1006.44 435.8 1007.16 434.6C1007.88 433.373 1008.89 432.427 1010.2 431.76C1011.53 431.093 1013.07 430.76 1014.8 430.76ZM1012.28 459.24C1011.59 459.24 1011 459 1010.52 458.52C1010.04 458.04 1009.8 457.453 1009.8 456.76C1009.8 456.067 1010.04 455.48 1010.52 455C1011 454.52 1011.59 454.28 1012.28 454.28C1012.95 454.28 1013.51 454.52 1013.96 455C1014.44 455.48 1014.68 456.067 1014.68 456.76C1014.68 457.453 1014.44 458.04 1013.96 458.52C1013.51 459 1012.95 459.24 1012.28 459.24Z" fill="black"/>
</svg>
