<svg width="1280" height="600" viewBox="0 0 1280 600" fill="none" xmlns="http://www.w3.org/2000/svg">
<rect width="1280" height="600" fill="white"/>
<rect x="50.5" y="65.5" width="1178" height="468" rx="11.5" stroke="#474242"/>
<rect x="329" y="33" width="581" height="117" rx="12" fill="#9E2A2B"/>
<path d="M399.501 91.8C399.501 89 400.061 86.5067 401.181 84.32C402.327 82.1333 403.954 80.44 406.061 79.24C408.167 78.0133 410.647 77.4 413.501 77.4C415.954 77.4 418.141 77.8667 420.061 78.8C422.007 79.7067 423.581 81 424.781 82.68C426.007 84.36 426.821 86.32 427.221 88.56H417.861C417.434 87.6267 416.821 86.9067 416.021 86.4C415.247 85.8667 414.354 85.6 413.341 85.6C411.847 85.6 410.661 86.16 409.781 87.28C408.927 88.4 408.501 89.9067 408.501 91.8C408.501 93.6933 408.927 95.2 409.781 96.32C410.661 97.44 411.847 98 413.341 98C414.354 98 415.247 97.7467 416.021 97.24C416.821 96.7067 417.434 95.9733 417.861 95.04H427.221C426.821 97.28 426.007 99.24 424.781 100.92C423.581 102.6 422.007 103.907 420.061 104.84C418.141 105.747 415.954 106.2 413.501 106.2C410.647 106.2 408.167 105.6 406.061 104.4C403.954 103.173 402.327 101.467 401.181 99.28C400.061 97.0933 399.501 94.6 399.501 91.8ZM441.138 106.28C438.871 106.28 436.831 105.813 435.018 104.88C433.205 103.947 431.778 102.613 430.738 100.88C429.725 99.12 429.218 97.0667 429.218 94.72C429.218 92.3733 429.725 90.3333 430.738 88.6C431.778 86.84 433.205 85.4933 435.018 84.56C436.831 83.6267 438.871 83.16 441.138 83.16C443.405 83.16 445.445 83.6267 447.258 84.56C449.071 85.4933 450.485 86.84 451.498 88.6C452.538 90.3333 453.058 92.3733 453.058 94.72C453.058 97.0667 452.538 99.12 451.498 100.88C450.485 102.613 449.071 103.947 447.258 104.88C445.445 105.813 443.405 106.28 441.138 106.28ZM441.138 98.6C441.965 98.6 442.658 98.28 443.218 97.64C443.778 96.9733 444.058 96 444.058 94.72C444.058 93.44 443.778 92.48 443.218 91.84C442.658 91.1733 441.965 90.84 441.138 90.84C440.311 90.84 439.618 91.1733 439.058 91.84C438.498 92.48 438.218 93.44 438.218 94.72C438.218 96 438.485 96.9733 439.018 97.64C439.578 98.28 440.285 98.6 441.138 98.6ZM471.648 83.28C474.234 83.28 476.248 84.1467 477.688 85.88C479.154 87.6133 479.888 89.96 479.888 92.92V106H471.048V94.04C471.048 92.9733 470.754 92.1333 470.168 91.52C469.608 90.88 468.848 90.56 467.888 90.56C466.901 90.56 466.128 90.88 465.568 91.52C465.008 92.1333 464.728 92.9733 464.728 94.04V106H455.848V83.44H464.728V86.88C465.421 85.8133 466.341 84.9467 467.488 84.28C468.661 83.6133 470.048 83.28 471.648 83.28ZM495.178 97.56L498.778 83.44H508.218L500.698 106H489.618L482.098 83.44H491.538L495.178 97.56ZM532.414 94.52C532.414 95.1333 532.374 95.72 532.294 96.28H518.014C518.148 98.2267 518.961 99.2 520.454 99.2C521.414 99.2 522.108 98.76 522.534 97.88H531.934C531.614 99.48 530.934 100.92 529.894 102.2C528.881 103.453 527.588 104.453 526.014 105.2C524.468 105.92 522.761 106.28 520.894 106.28C518.654 106.28 516.654 105.813 514.894 104.88C513.161 103.947 511.801 102.613 510.814 100.88C509.854 99.12 509.374 97.0667 509.374 94.72C509.374 92.3733 509.854 90.3333 510.814 88.6C511.801 86.84 513.161 85.4933 514.894 84.56C516.654 83.6267 518.654 83.16 520.894 83.16C523.134 83.16 525.121 83.6267 526.854 84.56C528.614 85.4667 529.974 86.7733 530.934 88.48C531.921 90.1867 532.414 92.2 532.414 94.52ZM523.414 92.4C523.414 91.6533 523.174 91.0933 522.694 90.72C522.214 90.32 521.614 90.12 520.894 90.12C519.321 90.12 518.401 90.88 518.134 92.4H523.414ZM544.103 87.6C545.009 86.2933 546.116 85.2533 547.423 84.48C548.729 83.68 550.089 83.28 551.503 83.28V92.76H548.983C547.303 92.76 546.063 93.0533 545.263 93.64C544.489 94.2267 544.103 95.2667 544.103 96.76V106H535.223V83.44H544.103V87.6ZM563.935 106.28C561.801 106.28 559.908 105.933 558.255 105.24C556.628 104.547 555.335 103.587 554.375 102.36C553.415 101.133 552.868 99.7467 552.735 98.2H561.255C561.361 98.8667 561.641 99.36 562.095 99.68C562.575 100 563.175 100.16 563.895 100.16C564.348 100.16 564.708 100.067 564.975 99.88C565.241 99.6667 565.375 99.4133 565.375 99.12C565.375 98.6133 565.095 98.2533 564.535 98.04C563.975 97.8267 563.028 97.5867 561.695 97.32C560.068 97 558.721 96.6533 557.655 96.28C556.615 95.9067 555.695 95.2667 554.895 94.36C554.121 93.4533 553.735 92.2 553.735 90.6C553.735 89.2133 554.095 87.96 554.815 86.84C555.561 85.6933 556.655 84.8 558.095 84.16C559.535 83.4933 561.281 83.16 563.335 83.16C566.375 83.16 568.748 83.9067 570.455 85.4C572.188 86.8933 573.228 88.84 573.575 91.24H565.695C565.561 90.6267 565.281 90.16 564.855 89.84C564.428 89.4933 563.855 89.32 563.135 89.32C562.681 89.32 562.335 89.4133 562.095 89.6C561.855 89.76 561.735 90.0133 561.735 90.36C561.735 90.8133 562.015 91.16 562.575 91.4C563.135 91.6133 564.028 91.84 565.255 92.08C566.881 92.4 568.255 92.76 569.375 93.16C570.495 93.56 571.468 94.2533 572.295 95.24C573.121 96.2 573.535 97.5333 573.535 99.24C573.535 100.573 573.148 101.773 572.375 102.84C571.601 103.907 570.481 104.747 569.015 105.36C567.575 105.973 565.881 106.28 563.935 106.28ZM575.859 94.72C575.859 92.3467 576.259 90.2933 577.059 88.56C577.885 86.8 579.005 85.4667 580.419 84.56C581.832 83.6267 583.419 83.16 585.179 83.16C586.645 83.16 587.912 83.4667 588.979 84.08C590.045 84.6667 590.859 85.48 591.419 86.52V83.44H600.259V106H591.419V102.92C590.859 103.96 590.045 104.787 588.979 105.4C587.912 105.987 586.645 106.28 585.179 106.28C583.419 106.28 581.832 105.827 580.419 104.92C579.005 103.987 577.885 102.653 577.059 100.92C576.259 99.16 575.859 97.0933 575.859 94.72ZM591.419 94.72C591.419 93.52 591.112 92.5867 590.499 91.92C589.885 91.2533 589.099 90.92 588.139 90.92C587.179 90.92 586.392 91.2533 585.779 91.92C585.165 92.5867 584.859 93.52 584.859 94.72C584.859 95.92 585.165 96.8533 585.779 97.52C586.392 98.1867 587.179 98.52 588.139 98.52C589.099 98.52 589.885 98.1867 590.499 97.52C591.112 96.8533 591.419 95.92 591.419 94.72ZM618.286 98.44V106H614.926C608.739 106 605.646 102.92 605.646 96.76V90.84H602.846V83.44H605.646V78H614.526V83.44H618.206V90.84H614.526V96.92C614.526 97.4533 614.646 97.84 614.886 98.08C615.153 98.32 615.579 98.44 616.166 98.44H618.286ZM626.148 81.64C624.601 81.64 623.361 81.2267 622.428 80.4C621.495 79.5733 621.028 78.5333 621.028 77.28C621.028 76 621.495 74.9467 622.428 74.12C623.361 73.2667 624.601 72.84 626.148 72.84C627.668 72.84 628.895 73.2667 629.828 74.12C630.761 74.9467 631.228 76 631.228 77.28C631.228 78.5333 630.761 79.5733 629.828 80.4C628.895 81.2267 627.668 81.64 626.148 81.64ZM630.548 83.44V106H621.668V83.44H630.548ZM645.279 106.28C643.012 106.28 640.972 105.813 639.159 104.88C637.345 103.947 635.919 102.613 634.879 100.88C633.865 99.12 633.359 97.0667 633.359 94.72C633.359 92.3733 633.865 90.3333 634.879 88.6C635.919 86.84 637.345 85.4933 639.159 84.56C640.972 83.6267 643.012 83.16 645.279 83.16C647.545 83.16 649.585 83.6267 651.399 84.56C653.212 85.4933 654.625 86.84 655.639 88.6C656.679 90.3333 657.199 92.3733 657.199 94.72C657.199 97.0667 656.679 99.12 655.639 100.88C654.625 102.613 653.212 103.947 651.399 104.88C649.585 105.813 647.545 106.28 645.279 106.28ZM645.279 98.6C646.105 98.6 646.799 98.28 647.359 97.64C647.919 96.9733 648.199 96 648.199 94.72C648.199 93.44 647.919 92.48 647.359 91.84C646.799 91.1733 646.105 90.84 645.279 90.84C644.452 90.84 643.759 91.1733 643.199 91.84C642.639 92.48 642.359 93.44 642.359 94.72C642.359 96 642.625 96.9733 643.159 97.64C643.719 98.28 644.425 98.6 645.279 98.6ZM675.788 83.28C678.375 83.28 680.388 84.1467 681.828 85.88C683.295 87.6133 684.028 89.96 684.028 92.92V106H675.188V94.04C675.188 92.9733 674.895 92.1333 674.308 91.52C673.748 90.88 672.988 90.56 672.028 90.56C671.042 90.56 670.268 90.88 669.708 91.52C669.148 92.1333 668.868 92.9733 668.868 94.04V106H659.988V83.44H668.868V86.88C669.562 85.8133 670.482 84.9467 671.628 84.28C672.802 83.6133 674.188 83.28 675.788 83.28ZM705.756 106.28C702.369 106.28 699.569 105.493 697.356 103.92C695.169 102.32 693.982 99.9867 693.796 96.92H703.236C703.369 98.5467 704.089 99.36 705.396 99.36C705.876 99.36 706.276 99.2533 706.596 99.04C706.942 98.8 707.116 98.44 707.116 97.96C707.116 97.2933 706.756 96.76 706.036 96.36C705.316 95.9333 704.196 95.4533 702.676 94.92C700.862 94.28 699.356 93.6533 698.156 93.04C696.982 92.4267 695.969 91.5333 695.116 90.36C694.262 89.1867 693.849 87.68 693.876 85.84C693.876 84 694.342 82.44 695.276 81.16C696.236 79.8533 697.529 78.8667 699.156 78.2C700.809 77.5333 702.662 77.2 704.716 77.2C708.182 77.2 710.929 78 712.956 79.6C715.009 81.2 716.089 83.4533 716.196 86.36H706.636C706.609 85.56 706.409 84.9867 706.036 84.64C705.662 84.2933 705.209 84.12 704.676 84.12C704.302 84.12 703.996 84.2533 703.756 84.52C703.516 84.76 703.396 85.1067 703.396 85.56C703.396 86.2 703.742 86.7333 704.436 87.16C705.156 87.56 706.289 88.0533 707.836 88.64C709.622 89.3067 711.089 89.9467 712.236 90.56C713.409 91.1733 714.422 92.0267 715.276 93.12C716.129 94.2133 716.556 95.5867 716.556 97.24C716.556 98.9733 716.129 100.533 715.276 101.92C714.422 103.28 713.182 104.347 711.556 105.12C709.929 105.893 707.996 106.28 705.756 106.28ZM733.716 98.44V106H730.356C724.169 106 721.076 102.92 721.076 96.76V90.84H718.276V83.44H721.076V78H729.956V83.44H733.636V90.84H729.956V96.92C729.956 97.4533 730.076 97.84 730.316 98.08C730.582 98.32 731.009 98.44 731.596 98.44H733.716ZM735.898 94.72C735.898 92.3467 736.298 90.2933 737.098 88.56C737.924 86.8 739.044 85.4667 740.458 84.56C741.871 83.6267 743.458 83.16 745.218 83.16C746.684 83.16 747.951 83.4667 749.018 84.08C750.084 84.6667 750.898 85.48 751.458 86.52V83.44H760.298V106H751.458V102.92C750.898 103.96 750.084 104.787 749.018 105.4C747.951 105.987 746.684 106.28 745.218 106.28C743.458 106.28 741.871 105.827 740.458 104.92C739.044 103.987 737.924 102.653 737.098 100.92C736.298 99.16 735.898 97.0933 735.898 94.72ZM751.458 94.72C751.458 93.52 751.151 92.5867 750.538 91.92C749.924 91.2533 749.138 90.92 748.178 90.92C747.218 90.92 746.431 91.2533 745.818 91.92C745.204 92.5867 744.898 93.52 744.898 94.72C744.898 95.92 745.204 96.8533 745.818 97.52C746.431 98.1867 747.218 98.52 748.178 98.52C749.138 98.52 749.924 98.1867 750.538 97.52C751.151 96.8533 751.458 95.92 751.458 94.72ZM773.165 87.6C774.072 86.2933 775.178 85.2533 776.485 84.48C777.792 83.68 779.152 83.28 780.565 83.28V92.76H778.045C776.365 92.76 775.125 93.0533 774.325 93.64C773.552 94.2267 773.165 95.2667 773.165 96.76V106H764.285V83.44H773.165V87.6ZM796.997 98.44V106H793.637C787.45 106 784.357 102.92 784.357 96.76V90.84H781.557V83.44H784.357V78H793.237V83.44H796.917V90.84H793.237V96.92C793.237 97.4533 793.357 97.84 793.597 98.08C793.864 98.32 794.29 98.44 794.877 98.44H796.997ZM822.219 94.52C822.219 95.1333 822.179 95.72 822.099 96.28H807.819C807.952 98.2267 808.766 99.2 810.259 99.2C811.219 99.2 811.912 98.76 812.339 97.88H821.739C821.419 99.48 820.739 100.92 819.699 102.2C818.686 103.453 817.392 104.453 815.819 105.2C814.272 105.92 812.566 106.28 810.699 106.28C808.459 106.28 806.459 105.813 804.699 104.88C802.966 103.947 801.606 102.613 800.619 100.88C799.659 99.12 799.179 97.0667 799.179 94.72C799.179 92.3733 799.659 90.3333 800.619 88.6C801.606 86.84 802.966 85.4933 804.699 84.56C806.459 83.6267 808.459 83.16 810.699 83.16C812.939 83.16 814.926 83.6267 816.659 84.56C818.419 85.4667 819.779 86.7733 820.739 88.48C821.726 90.1867 822.219 92.2 822.219 94.52ZM813.219 92.4C813.219 91.6533 812.979 91.0933 812.499 90.72C812.019 90.32 811.419 90.12 810.699 90.12C809.126 90.12 808.206 90.88 807.939 92.4H813.219ZM833.907 87.6C834.814 86.2933 835.921 85.2533 837.227 84.48C838.534 83.68 839.894 83.28 841.307 83.28V92.76H838.787C837.107 92.76 835.867 93.0533 835.067 93.64C834.294 94.2267 833.907 95.2667 833.907 96.76V106H825.027V83.44H833.907V87.6Z" fill="white"/>
<path d="M149.976 244.4V241.08H157.496V270H153.816V244.4H149.976ZM165.508 270.24C164.815 270.24 164.228 270 163.748 269.52C163.268 269.04 163.028 268.453 163.028 267.76C163.028 267.067 163.268 266.48 163.748 266C164.228 265.52 164.815 265.28 165.508 265.28C166.175 265.28 166.735 265.52 167.188 266C167.668 266.48 167.908 267.067 167.908 267.76C167.908 268.453 167.668 269.04 167.188 269.52C166.735 270 166.175 270.24 165.508 270.24ZM221.12 242.12L213.04 270H208.96L202.48 247.56L195.76 270L191.72 270.04L183.92 242.12H187.8L193.88 265.76L200.6 242.12H204.68L211.08 265.68L217.2 242.12H221.12ZM235.983 247.68C237.637 247.68 239.13 248.04 240.463 248.76C241.797 249.453 242.837 250.507 243.583 251.92C244.357 253.333 244.743 255.053 244.743 257.08V270H241.143V257.6C241.143 255.413 240.597 253.747 239.503 252.6C238.41 251.427 236.917 250.84 235.023 250.84C233.103 250.84 231.57 251.44 230.423 252.64C229.303 253.84 228.743 255.587 228.743 257.88V270H225.103V240.4H228.743V251.2C229.463 250.08 230.45 249.213 231.703 248.6C232.983 247.987 234.41 247.68 235.983 247.68ZM249.329 258.96C249.329 256.72 249.783 254.76 250.689 253.08C251.596 251.373 252.836 250.053 254.409 249.12C256.009 248.187 257.783 247.72 259.729 247.72C261.649 247.72 263.316 248.133 264.729 248.96C266.143 249.787 267.196 250.827 267.889 252.08V248.08H271.569V270H267.889V265.92C267.169 267.2 266.089 268.267 264.649 269.12C263.236 269.947 261.583 270.36 259.689 270.36C257.743 270.36 255.983 269.88 254.409 268.92C252.836 267.96 251.596 266.613 250.689 264.88C249.783 263.147 249.329 261.173 249.329 258.96ZM267.889 259C267.889 257.347 267.556 255.907 266.889 254.68C266.223 253.453 265.316 252.52 264.169 251.88C263.049 251.213 261.809 250.88 260.449 250.88C259.089 250.88 257.849 251.2 256.729 251.84C255.609 252.48 254.716 253.413 254.049 254.64C253.383 255.867 253.049 257.307 253.049 258.96C253.049 260.64 253.383 262.107 254.049 263.36C254.716 264.587 255.609 265.533 256.729 266.2C257.849 266.84 259.089 267.16 260.449 267.16C261.809 267.16 263.049 266.84 264.169 266.2C265.316 265.533 266.223 264.587 266.889 263.36C267.556 262.107 267.889 260.653 267.889 259ZM282.161 251.08V264C282.161 265.067 282.387 265.827 282.841 266.28C283.294 266.707 284.081 266.92 285.201 266.92H287.881V270H284.601C282.574 270 281.054 269.533 280.041 268.6C279.027 267.667 278.521 266.133 278.521 264V251.08H275.681V248.08H278.521V242.56H282.161V248.08H287.881V251.08H282.161ZM292.851 242.12H296.891L293.051 251.2H290.491L292.851 242.12ZM308.801 270.36C307.121 270.36 305.614 270.08 304.281 269.52C302.948 268.933 301.894 268.133 301.121 267.12C300.348 266.08 299.921 264.893 299.841 263.56H303.601C303.708 264.653 304.214 265.547 305.121 266.24C306.054 266.933 307.268 267.28 308.761 267.28C310.148 267.28 311.241 266.973 312.041 266.36C312.841 265.747 313.241 264.973 313.241 264.04C313.241 263.08 312.814 262.373 311.961 261.92C311.108 261.44 309.788 260.973 308.001 260.52C306.374 260.093 305.041 259.667 304.001 259.24C302.988 258.787 302.108 258.133 301.361 257.28C300.641 256.4 300.281 255.253 300.281 253.84C300.281 252.72 300.614 251.693 301.281 250.76C301.948 249.827 302.894 249.093 304.121 248.56C305.348 248 306.748 247.72 308.321 247.72C310.748 247.72 312.708 248.333 314.201 249.56C315.694 250.787 316.494 252.467 316.601 254.6H312.961C312.881 253.453 312.414 252.533 311.561 251.84C310.734 251.147 309.614 250.8 308.201 250.8C306.894 250.8 305.854 251.08 305.081 251.64C304.308 252.2 303.921 252.933 303.921 253.84C303.921 254.56 304.148 255.16 304.601 255.64C305.081 256.093 305.668 256.467 306.361 256.76C307.081 257.027 308.068 257.333 309.321 257.68C310.894 258.107 312.174 258.533 313.161 258.96C314.148 259.36 314.988 259.973 315.681 260.8C316.401 261.627 316.774 262.707 316.801 264.04C316.801 265.24 316.468 266.32 315.801 267.28C315.134 268.24 314.188 269 312.961 269.56C311.761 270.093 310.374 270.36 308.801 270.36ZM351.483 248.08L338.283 280.32H334.523L338.843 269.76L330.003 248.08H334.043L340.923 265.84L347.723 248.08H351.483ZM364.703 270.36C362.649 270.36 360.783 269.893 359.103 268.96C357.449 268.027 356.143 266.707 355.183 265C354.249 263.267 353.783 261.267 353.783 259C353.783 256.76 354.263 254.787 355.223 253.08C356.209 251.347 357.543 250.027 359.223 249.12C360.903 248.187 362.783 247.72 364.863 247.72C366.943 247.72 368.823 248.187 370.503 249.12C372.183 250.027 373.503 251.333 374.463 253.04C375.449 254.747 375.943 256.733 375.943 259C375.943 261.267 375.436 263.267 374.423 265C373.436 266.707 372.089 268.027 370.383 268.96C368.676 269.893 366.783 270.36 364.703 270.36ZM364.703 267.16C366.009 267.16 367.236 266.853 368.383 266.24C369.529 265.627 370.449 264.707 371.143 263.48C371.863 262.253 372.223 260.76 372.223 259C372.223 257.24 371.876 255.747 371.183 254.52C370.489 253.293 369.583 252.387 368.463 251.8C367.343 251.187 366.129 250.88 364.823 250.88C363.489 250.88 362.263 251.187 361.143 251.8C360.049 252.387 359.169 253.293 358.503 254.52C357.836 255.747 357.503 257.24 357.503 259C357.503 260.787 357.823 262.293 358.463 263.52C359.129 264.747 360.009 265.667 361.103 266.28C362.196 266.867 363.396 267.16 364.703 267.16ZM400.168 248.08V270H396.528V266.76C395.835 267.88 394.862 268.76 393.608 269.4C392.382 270.013 391.022 270.32 389.528 270.32C387.822 270.32 386.288 269.973 384.928 269.28C383.568 268.56 382.488 267.493 381.688 266.08C380.915 264.667 380.528 262.947 380.528 260.92V248.08H384.128V260.44C384.128 262.6 384.675 264.267 385.768 265.44C386.862 266.587 388.355 267.16 390.248 267.16C392.195 267.16 393.728 266.56 394.848 265.36C395.968 264.16 396.528 262.413 396.528 260.12V248.08H400.168ZM409.954 251.64C410.594 250.387 411.501 249.413 412.674 248.72C413.874 248.027 415.328 247.68 417.034 247.68V251.44H416.074C411.994 251.44 409.954 253.653 409.954 258.08V270H406.314V248.08H409.954V251.64ZM430.54 258.96C430.54 256.72 430.994 254.76 431.9 253.08C432.807 251.373 434.047 250.053 435.62 249.12C437.22 248.187 439.007 247.72 440.98 247.72C442.687 247.72 444.274 248.12 445.74 248.92C447.207 249.693 448.327 250.72 449.1 252V240.4H452.78V270H449.1V265.88C448.38 267.187 447.314 268.267 445.9 269.12C444.487 269.947 442.834 270.36 440.94 270.36C438.994 270.36 437.22 269.88 435.62 268.92C434.047 267.96 432.807 266.613 431.9 264.88C430.994 263.147 430.54 261.173 430.54 258.96ZM449.1 259C449.1 257.347 448.767 255.907 448.1 254.68C447.434 253.453 446.527 252.52 445.38 251.88C444.26 251.213 443.02 250.88 441.66 250.88C440.3 250.88 439.06 251.2 437.94 251.84C436.82 252.48 435.927 253.413 435.26 254.64C434.594 255.867 434.26 257.307 434.26 258.96C434.26 260.64 434.594 262.107 435.26 263.36C435.927 264.587 436.82 265.533 437.94 266.2C439.06 266.84 440.3 267.16 441.66 267.16C443.02 267.16 444.26 266.84 445.38 266.2C446.527 265.533 447.434 264.587 448.1 263.36C448.767 262.107 449.1 260.653 449.1 259ZM462.572 251.64C463.212 250.387 464.118 249.413 465.292 248.72C466.492 248.027 467.945 247.68 469.652 247.68V251.44H468.692C464.612 251.44 462.572 253.653 462.572 258.08V270H458.932V248.08H462.572V251.64ZM493.853 258.2C493.853 258.893 493.813 259.627 493.733 260.4H476.213C476.347 262.56 477.08 264.253 478.413 265.48C479.773 266.68 481.413 267.28 483.333 267.28C484.907 267.28 486.213 266.92 487.253 266.2C488.32 265.453 489.067 264.467 489.493 263.24H493.413C492.827 265.347 491.653 267.067 489.893 268.4C488.133 269.707 485.947 270.36 483.333 270.36C481.253 270.36 479.387 269.893 477.733 268.96C476.107 268.027 474.827 266.707 473.893 265C472.96 263.267 472.493 261.267 472.493 259C472.493 256.733 472.947 254.747 473.853 253.04C474.76 251.333 476.027 250.027 477.653 249.12C479.307 248.187 481.2 247.72 483.333 247.72C485.413 247.72 487.253 248.173 488.853 249.08C490.453 249.987 491.68 251.24 492.533 252.84C493.413 254.413 493.853 256.2 493.853 258.2ZM490.093 257.44C490.093 256.053 489.787 254.867 489.173 253.88C488.56 252.867 487.72 252.107 486.653 251.6C485.613 251.067 484.453 250.8 483.173 250.8C481.333 250.8 479.76 251.387 478.453 252.56C477.173 253.733 476.44 255.36 476.253 257.44H490.093ZM497.298 258.96C497.298 256.72 497.751 254.76 498.658 253.08C499.565 251.373 500.805 250.053 502.378 249.12C503.978 248.187 505.751 247.72 507.698 247.72C509.618 247.72 511.285 248.133 512.698 248.96C514.111 249.787 515.165 250.827 515.858 252.08V248.08H519.538V270H515.858V265.92C515.138 267.2 514.058 268.267 512.618 269.12C511.205 269.947 509.551 270.36 507.658 270.36C505.711 270.36 503.951 269.88 502.378 268.92C500.805 267.96 499.565 266.613 498.658 264.88C497.751 263.147 497.298 261.173 497.298 258.96ZM515.858 259C515.858 257.347 515.525 255.907 514.858 254.68C514.191 253.453 513.285 252.52 512.138 251.88C511.018 251.213 509.778 250.88 508.418 250.88C507.058 250.88 505.818 251.2 504.698 251.84C503.578 252.48 502.685 253.413 502.018 254.64C501.351 255.867 501.018 257.307 501.018 258.96C501.018 260.64 501.351 262.107 502.018 263.36C502.685 264.587 503.578 265.533 504.698 266.2C505.818 266.84 507.058 267.16 508.418 267.16C509.778 267.16 511.018 266.84 512.138 266.2C513.285 265.533 514.191 264.587 514.858 263.36C515.525 262.107 515.858 260.653 515.858 259ZM552.049 247.68C553.756 247.68 555.276 248.04 556.609 248.76C557.943 249.453 558.996 250.507 559.769 251.92C560.543 253.333 560.929 255.053 560.929 257.08V270H557.329V257.6C557.329 255.413 556.783 253.747 555.689 252.6C554.623 251.427 553.169 250.84 551.329 250.84C549.436 250.84 547.929 251.453 546.809 252.68C545.689 253.88 545.129 255.627 545.129 257.92V270H541.529V257.6C541.529 255.413 540.983 253.747 539.889 252.6C538.823 251.427 537.369 250.84 535.529 250.84C533.636 250.84 532.129 251.453 531.009 252.68C529.889 253.88 529.329 255.627 529.329 257.92V270H525.689V248.08H529.329V251.24C530.049 250.093 531.009 249.213 532.209 248.6C533.436 247.987 534.783 247.68 536.249 247.68C538.089 247.68 539.716 248.093 541.129 248.92C542.543 249.747 543.596 250.96 544.289 252.56C544.903 251.013 545.916 249.813 547.329 248.96C548.743 248.107 550.316 247.68 552.049 247.68ZM579.524 244.52C578.831 244.52 578.244 244.28 577.764 243.8C577.311 243.32 577.084 242.733 577.084 242.04C577.084 241.347 577.311 240.76 577.764 240.28C578.244 239.8 578.831 239.56 579.524 239.56C580.218 239.56 580.791 239.8 581.244 240.28C581.724 240.76 581.964 241.347 581.964 242.04C581.964 242.733 581.724 243.32 581.244 243.8C580.791 244.28 580.218 244.52 579.524 244.52ZM581.324 274.76C581.324 276.707 580.831 278.133 579.844 279.04C578.858 279.947 577.418 280.4 575.524 280.4H573.404V277.32H574.924C575.938 277.32 576.644 277.12 577.044 276.72C577.471 276.32 577.684 275.64 577.684 274.68V248.08H581.324V274.76ZM597.046 270.36C594.993 270.36 593.126 269.893 591.446 268.96C589.793 268.027 588.486 266.707 587.526 265C586.593 263.267 586.126 261.267 586.126 259C586.126 256.76 586.606 254.787 587.566 253.08C588.553 251.347 589.886 250.027 591.566 249.12C593.246 248.187 595.126 247.72 597.206 247.72C599.286 247.72 601.166 248.187 602.846 249.12C604.526 250.027 605.846 251.333 606.806 253.04C607.793 254.747 608.286 256.733 608.286 259C608.286 261.267 607.78 263.267 606.766 265C605.78 266.707 604.433 268.027 602.726 268.96C601.02 269.893 599.126 270.36 597.046 270.36ZM597.046 267.16C598.353 267.16 599.58 266.853 600.726 266.24C601.873 265.627 602.793 264.707 603.486 263.48C604.206 262.253 604.566 260.76 604.566 259C604.566 257.24 604.22 255.747 603.526 254.52C602.833 253.293 601.926 252.387 600.806 251.8C599.686 251.187 598.473 250.88 597.166 250.88C595.833 250.88 594.606 251.187 593.486 251.8C592.393 252.387 591.513 253.293 590.846 254.52C590.18 255.747 589.846 257.24 589.846 259C589.846 260.787 590.166 262.293 590.806 263.52C591.473 264.747 592.353 265.667 593.446 266.28C594.54 266.867 595.74 267.16 597.046 267.16ZM616.712 252.16C617.459 250.853 618.552 249.787 619.992 248.96C621.432 248.133 623.072 247.72 624.912 247.72C626.886 247.72 628.659 248.187 630.232 249.12C631.806 250.053 633.046 251.373 633.952 253.08C634.859 254.76 635.312 256.72 635.312 258.96C635.312 261.173 634.859 263.147 633.952 264.88C633.046 266.613 631.792 267.96 630.192 268.92C628.619 269.88 626.859 270.36 624.912 270.36C623.019 270.36 621.352 269.947 619.912 269.12C618.499 268.293 617.432 267.24 616.712 265.96V270H613.072V240.4H616.712V252.16ZM631.592 258.96C631.592 257.307 631.259 255.867 630.592 254.64C629.926 253.413 629.019 252.48 627.872 251.84C626.752 251.2 625.512 250.88 624.152 250.88C622.819 250.88 621.579 251.213 620.432 251.88C619.312 252.52 618.406 253.467 617.712 254.72C617.046 255.947 616.712 257.373 616.712 259C616.712 260.653 617.046 262.107 617.712 263.36C618.406 264.587 619.312 265.533 620.432 266.2C621.579 266.84 622.819 267.16 624.152 267.16C625.512 267.16 626.752 266.84 627.872 266.2C629.019 265.533 629.926 264.587 630.592 263.36C631.259 262.107 631.592 260.64 631.592 258.96ZM647.223 241.76C649.863 241.76 651.997 242.507 653.623 244C655.25 245.493 656.063 247.493 656.063 250C656.063 252.8 655.197 254.88 653.463 256.24C651.73 257.573 649.383 258.24 646.423 258.24L646.303 262.04H643.143L642.983 255.72H644.143C646.783 255.72 648.85 255.32 650.343 254.52C651.837 253.72 652.583 252.213 652.583 250C652.583 248.4 652.103 247.133 651.143 246.2C650.183 245.267 648.89 244.8 647.263 244.8C645.61 244.8 644.303 245.253 643.343 246.16C642.41 247.04 641.943 248.253 641.943 249.8H638.503C638.503 248.2 638.863 246.8 639.583 245.6C640.303 244.373 641.317 243.427 642.623 242.76C643.957 242.093 645.49 241.76 647.223 241.76ZM644.703 270.24C644.01 270.24 643.423 270 642.943 269.52C642.463 269.04 642.223 268.453 642.223 267.76C642.223 267.067 642.463 266.48 642.943 266C643.423 265.52 644.01 265.28 644.703 265.28C645.37 265.28 645.93 265.52 646.383 266C646.863 266.48 647.103 267.067 647.103 267.76C647.103 268.453 646.863 269.04 646.383 269.52C645.93 270 645.37 270.24 644.703 270.24ZM140.301 347.08C143.687 344.36 146.341 342.133 148.261 340.4C150.181 338.64 151.794 336.813 153.101 334.92C154.434 333 155.101 331.12 155.101 329.28C155.101 327.547 154.674 326.187 153.821 325.2C152.994 324.187 151.647 323.68 149.781 323.68C147.967 323.68 146.554 324.253 145.541 325.4C144.554 326.52 144.021 328.027 143.941 329.92H140.421C140.527 326.933 141.434 324.627 143.141 323C144.847 321.373 147.047 320.56 149.741 320.56C152.487 320.56 154.661 321.32 156.261 322.84C157.887 324.36 158.701 326.453 158.701 329.12C158.701 331.333 158.034 333.493 156.701 335.6C155.394 337.68 153.901 339.52 152.221 341.12C150.541 342.693 148.394 344.533 145.781 346.64H159.541V349.68H140.301V347.08ZM165.508 350.24C164.815 350.24 164.228 350 163.748 349.52C163.268 349.04 163.028 348.453 163.028 347.76C163.028 347.067 163.268 346.48 163.748 346C164.228 345.52 164.815 345.28 165.508 345.28C166.175 345.28 166.735 345.52 167.188 346C167.668 346.48 167.908 347.067 167.908 347.76C167.908 348.453 167.668 349.04 167.188 349.52C166.735 350 166.175 350.24 165.508 350.24ZM194.76 322.12C197.8 322.12 200.427 322.693 202.64 323.84C204.88 324.96 206.587 326.573 207.76 328.68C208.96 330.787 209.56 333.267 209.56 336.12C209.56 338.973 208.96 341.453 207.76 343.56C206.587 345.64 204.88 347.24 202.64 348.36C200.427 349.453 197.8 350 194.76 350H186.08V322.12H194.76ZM194.76 347C198.36 347 201.107 346.053 203 344.16C204.893 342.24 205.84 339.56 205.84 336.12C205.84 332.653 204.88 329.947 202.96 328C201.067 326.053 198.333 325.08 194.76 325.08H189.72V347H194.76ZM223.921 350.36C221.868 350.36 220.001 349.893 218.321 348.96C216.668 348.027 215.361 346.707 214.401 345C213.468 343.267 213.001 341.267 213.001 339C213.001 336.76 213.481 334.787 214.441 333.08C215.428 331.347 216.761 330.027 218.441 329.12C220.121 328.187 222.001 327.72 224.081 327.72C226.161 327.72 228.041 328.187 229.721 329.12C231.401 330.027 232.721 331.333 233.681 333.04C234.668 334.747 235.161 336.733 235.161 339C235.161 341.267 234.655 343.267 233.641 345C232.655 346.707 231.308 348.027 229.601 348.96C227.895 349.893 226.001 350.36 223.921 350.36ZM223.921 347.16C225.228 347.16 226.455 346.853 227.601 346.24C228.748 345.627 229.668 344.707 230.361 343.48C231.081 342.253 231.441 340.76 231.441 339C231.441 337.24 231.095 335.747 230.401 334.52C229.708 333.293 228.801 332.387 227.681 331.8C226.561 331.187 225.348 330.88 224.041 330.88C222.708 330.88 221.481 331.187 220.361 331.8C219.268 332.387 218.388 333.293 217.721 334.52C217.055 335.747 216.721 337.24 216.721 339C216.721 340.787 217.041 342.293 217.681 343.52C218.348 344.747 219.228 345.667 220.321 346.28C221.415 346.867 222.615 347.16 223.921 347.16ZM269.491 328.08L256.291 360.32H252.531L256.851 349.76L248.011 328.08H252.051L258.931 345.84L265.731 328.08H269.491ZM282.71 350.36C280.657 350.36 278.79 349.893 277.11 348.96C275.457 348.027 274.15 346.707 273.19 345C272.257 343.267 271.79 341.267 271.79 339C271.79 336.76 272.27 334.787 273.23 333.08C274.217 331.347 275.55 330.027 277.23 329.12C278.91 328.187 280.79 327.72 282.87 327.72C284.95 327.72 286.83 328.187 288.51 329.12C290.19 330.027 291.51 331.333 292.47 333.04C293.457 334.747 293.95 336.733 293.95 339C293.95 341.267 293.444 343.267 292.43 345C291.444 346.707 290.097 348.027 288.39 348.96C286.684 349.893 284.79 350.36 282.71 350.36ZM282.71 347.16C284.017 347.16 285.244 346.853 286.39 346.24C287.537 345.627 288.457 344.707 289.15 343.48C289.87 342.253 290.23 340.76 290.23 339C290.23 337.24 289.884 335.747 289.19 334.52C288.497 333.293 287.59 332.387 286.47 331.8C285.35 331.187 284.137 330.88 282.83 330.88C281.497 330.88 280.27 331.187 279.15 331.8C278.057 332.387 277.177 333.293 276.51 334.52C275.844 335.747 275.51 337.24 275.51 339C275.51 340.787 275.83 342.293 276.47 343.52C277.137 344.747 278.017 345.667 279.11 346.28C280.204 346.867 281.404 347.16 282.71 347.16ZM318.176 328.08V350H314.536V346.76C313.843 347.88 312.87 348.76 311.616 349.4C310.39 350.013 309.03 350.32 307.536 350.32C305.83 350.32 304.296 349.973 302.936 349.28C301.576 348.56 300.496 347.493 299.696 346.08C298.923 344.667 298.536 342.947 298.536 340.92V328.08H302.136V340.44C302.136 342.6 302.683 344.267 303.776 345.44C304.87 346.587 306.363 347.16 308.256 347.16C310.203 347.16 311.736 346.56 312.856 345.36C313.976 344.16 314.536 342.413 314.536 340.12V328.08H318.176ZM338.626 332.12C339.346 330.867 340.413 329.827 341.826 329C343.266 328.147 344.933 327.72 346.826 327.72C348.773 327.72 350.533 328.187 352.106 329.12C353.706 330.053 354.96 331.373 355.866 333.08C356.773 334.76 357.226 336.72 357.226 338.96C357.226 341.173 356.773 343.147 355.866 344.88C354.96 346.613 353.706 347.96 352.106 348.92C350.533 349.88 348.773 350.36 346.826 350.36C344.96 350.36 343.306 349.947 341.866 349.12C340.453 348.267 339.373 347.213 338.626 345.96V360.4H334.986V328.08H338.626V332.12ZM353.506 338.96C353.506 337.307 353.173 335.867 352.506 334.64C351.84 333.413 350.933 332.48 349.786 331.84C348.666 331.2 347.426 330.88 346.066 330.88C344.733 330.88 343.493 331.213 342.346 331.88C341.226 332.52 340.32 333.467 339.626 334.72C338.96 335.947 338.626 337.373 338.626 339C338.626 340.653 338.96 342.107 339.626 343.36C340.32 344.587 341.226 345.533 342.346 346.2C343.493 346.84 344.733 347.16 346.066 347.16C347.426 347.16 348.666 346.84 349.786 346.2C350.933 345.533 351.84 344.587 352.506 343.36C353.173 342.107 353.506 340.64 353.506 338.96ZM365.658 331.64C366.298 330.387 367.204 329.413 368.378 328.72C369.578 328.027 371.031 327.68 372.738 327.68V331.44H371.778C367.698 331.44 365.658 333.653 365.658 338.08V350H362.018V328.08H365.658V331.64ZM396.939 338.2C396.939 338.893 396.899 339.627 396.819 340.4H379.299C379.433 342.56 380.166 344.253 381.499 345.48C382.859 346.68 384.499 347.28 386.419 347.28C387.993 347.28 389.299 346.92 390.339 346.2C391.406 345.453 392.153 344.467 392.579 343.24H396.499C395.913 345.347 394.739 347.067 392.979 348.4C391.219 349.707 389.033 350.36 386.419 350.36C384.339 350.36 382.473 349.893 380.819 348.96C379.193 348.027 377.913 346.707 376.979 345C376.046 343.267 375.579 341.267 375.579 339C375.579 336.733 376.033 334.747 376.939 333.04C377.846 331.333 379.113 330.027 380.739 329.12C382.393 328.187 384.286 327.72 386.419 327.72C388.499 327.72 390.339 328.173 391.939 329.08C393.539 329.987 394.766 331.24 395.619 332.84C396.499 334.413 396.939 336.2 396.939 338.2ZM393.179 337.44C393.179 336.053 392.873 334.867 392.259 333.88C391.646 332.867 390.806 332.107 389.739 331.6C388.699 331.067 387.539 330.8 386.259 330.8C384.419 330.8 382.846 331.387 381.539 332.56C380.259 333.733 379.526 335.36 379.339 337.44H393.179ZM410.664 331.08H406.064V350H402.424V331.08H399.584V328.08H402.424V326.52C402.424 324.067 403.051 322.28 404.304 321.16C405.584 320.013 407.624 319.44 410.424 319.44V322.48C408.824 322.48 407.691 322.8 407.024 323.44C406.384 324.053 406.064 325.08 406.064 326.52V328.08H410.664V331.08ZM434.908 338.2C434.908 338.893 434.868 339.627 434.788 340.4H417.268C417.401 342.56 418.135 344.253 419.468 345.48C420.828 346.68 422.468 347.28 424.388 347.28C425.961 347.28 427.268 346.92 428.308 346.2C429.375 345.453 430.121 344.467 430.548 343.24H434.468C433.881 345.347 432.708 347.067 430.948 348.4C429.188 349.707 427.001 350.36 424.388 350.36C422.308 350.36 420.441 349.893 418.788 348.96C417.161 348.027 415.881 346.707 414.948 345C414.015 343.267 413.548 341.267 413.548 339C413.548 336.733 414.001 334.747 414.908 333.04C415.815 331.333 417.081 330.027 418.708 329.12C420.361 328.187 422.255 327.72 424.388 327.72C426.468 327.72 428.308 328.173 429.908 329.08C431.508 329.987 432.735 331.24 433.588 332.84C434.468 334.413 434.908 336.2 434.908 338.2ZM431.148 337.44C431.148 336.053 430.841 334.867 430.228 333.88C429.615 332.867 428.775 332.107 427.708 331.6C426.668 331.067 425.508 330.8 424.228 330.8C422.388 330.8 420.815 331.387 419.508 332.56C418.228 333.733 417.495 335.36 417.308 337.44H431.148ZM443.353 331.64C443.993 330.387 444.899 329.413 446.073 328.72C447.273 328.027 448.726 327.68 450.433 327.68V331.44H449.473C445.393 331.44 443.353 333.653 443.353 338.08V350H439.713V328.08H443.353V331.64ZM469.739 331.08V344C469.739 345.067 469.965 345.827 470.419 346.28C470.872 346.707 471.659 346.92 472.779 346.92H475.459V350H472.179C470.152 350 468.632 349.533 467.619 348.6C466.605 347.667 466.099 346.133 466.099 344V331.08H463.259V328.08H466.099V322.56H469.739V328.08H475.459V331.08H469.739ZM489.429 350.36C487.376 350.36 485.509 349.893 483.829 348.96C482.176 348.027 480.869 346.707 479.909 345C478.976 343.267 478.509 341.267 478.509 339C478.509 336.76 478.989 334.787 479.949 333.08C480.936 331.347 482.269 330.027 483.949 329.12C485.629 328.187 487.509 327.72 489.589 327.72C491.669 327.72 493.549 328.187 495.229 329.12C496.909 330.027 498.229 331.333 499.189 333.04C500.176 334.747 500.669 336.733 500.669 339C500.669 341.267 500.162 343.267 499.149 345C498.162 346.707 496.816 348.027 495.109 348.96C493.402 349.893 491.509 350.36 489.429 350.36ZM489.429 347.16C490.736 347.16 491.962 346.853 493.109 346.24C494.256 345.627 495.176 344.707 495.869 343.48C496.589 342.253 496.949 340.76 496.949 339C496.949 337.24 496.602 335.747 495.909 334.52C495.216 333.293 494.309 332.387 493.189 331.8C492.069 331.187 490.856 330.88 489.549 330.88C488.216 330.88 486.989 331.187 485.869 331.8C484.776 332.387 483.896 333.293 483.229 334.52C482.562 335.747 482.229 337.24 482.229 339C482.229 340.787 482.549 342.293 483.189 343.52C483.856 344.747 484.736 345.667 485.829 346.28C486.922 346.867 488.122 347.16 489.429 347.16ZM545.319 328.08L538.479 350H534.719L529.439 332.6L524.159 350H520.399L513.519 328.08H517.239L522.279 346.48L527.719 328.08H531.439L536.759 346.52L541.719 328.08H545.319ZM558.492 350.36C556.438 350.36 554.572 349.893 552.892 348.96C551.238 348.027 549.932 346.707 548.972 345C548.038 343.267 547.572 341.267 547.572 339C547.572 336.76 548.052 334.787 549.012 333.08C549.998 331.347 551.332 330.027 553.012 329.12C554.692 328.187 556.572 327.72 558.652 327.72C560.732 327.72 562.612 328.187 564.292 329.12C565.972 330.027 567.292 331.333 568.252 333.04C569.238 334.747 569.732 336.733 569.732 339C569.732 341.267 569.225 343.267 568.212 345C567.225 346.707 565.878 348.027 564.172 348.96C562.465 349.893 560.572 350.36 558.492 350.36ZM558.492 347.16C559.798 347.16 561.025 346.853 562.172 346.24C563.318 345.627 564.238 344.707 564.932 343.48C565.652 342.253 566.012 340.76 566.012 339C566.012 337.24 565.665 335.747 564.972 334.52C564.278 333.293 563.372 332.387 562.252 331.8C561.132 331.187 559.918 330.88 558.612 330.88C557.278 330.88 556.052 331.187 554.932 331.8C553.838 332.387 552.958 333.293 552.292 334.52C551.625 335.747 551.292 337.24 551.292 339C551.292 340.787 551.612 342.293 552.252 343.52C552.918 344.747 553.798 345.667 554.892 346.28C555.985 346.867 557.185 347.16 558.492 347.16ZM578.158 331.64C578.798 330.387 579.704 329.413 580.878 328.72C582.078 328.027 583.531 327.68 585.238 327.68V331.44H584.278C580.198 331.44 578.158 333.653 578.158 338.08V350H574.518V328.08H578.158V331.64ZM601.679 350L593.079 340.32V350H589.439V320.4H593.079V337.8L601.519 328.08H606.599L596.279 339L606.639 350H601.679ZM629.609 331.08H625.009V350H621.369V331.08H618.529V328.08H621.369V326.52C621.369 324.067 621.996 322.28 623.249 321.16C624.529 320.013 626.569 319.44 629.369 319.44V322.48C627.769 322.48 626.636 322.8 625.969 323.44C625.329 324.053 625.009 325.08 625.009 326.52V328.08H629.609V331.08ZM637.493 331.64C638.133 330.387 639.04 329.413 640.213 328.72C641.413 328.027 642.867 327.68 644.573 327.68V331.44H643.613C639.533 331.44 637.493 333.653 637.493 338.08V350H633.853V328.08H637.493V331.64ZM658.335 350.36C656.282 350.36 654.415 349.893 652.735 348.96C651.082 348.027 649.775 346.707 648.815 345C647.882 343.267 647.415 341.267 647.415 339C647.415 336.76 647.895 334.787 648.855 333.08C649.842 331.347 651.175 330.027 652.855 329.12C654.535 328.187 656.415 327.72 658.495 327.72C660.575 327.72 662.455 328.187 664.135 329.12C665.815 330.027 667.135 331.333 668.095 333.04C669.082 334.747 669.575 336.733 669.575 339C669.575 341.267 669.069 343.267 668.055 345C667.069 346.707 665.722 348.027 664.015 348.96C662.309 349.893 660.415 350.36 658.335 350.36ZM658.335 347.16C659.642 347.16 660.869 346.853 662.015 346.24C663.162 345.627 664.082 344.707 664.775 343.48C665.495 342.253 665.855 340.76 665.855 339C665.855 337.24 665.509 335.747 664.815 334.52C664.122 333.293 663.215 332.387 662.095 331.8C660.975 331.187 659.762 330.88 658.455 330.88C657.122 330.88 655.895 331.187 654.775 331.8C653.682 332.387 652.802 333.293 652.135 334.52C651.469 335.747 651.135 337.24 651.135 339C651.135 340.787 651.455 342.293 652.095 343.52C652.762 344.747 653.642 345.667 654.735 346.28C655.829 346.867 657.029 347.16 658.335 347.16ZM700.721 327.68C702.428 327.68 703.948 328.04 705.281 328.76C706.615 329.453 707.668 330.507 708.441 331.92C709.215 333.333 709.601 335.053 709.601 337.08V350H706.001V337.6C706.001 335.413 705.455 333.747 704.361 332.6C703.295 331.427 701.841 330.84 700.001 330.84C698.108 330.84 696.601 331.453 695.481 332.68C694.361 333.88 693.801 335.627 693.801 337.92V350H690.201V337.6C690.201 335.413 689.655 333.747 688.561 332.6C687.495 331.427 686.041 330.84 684.201 330.84C682.308 330.84 680.801 331.453 679.681 332.68C678.561 333.88 678.001 335.627 678.001 337.92V350H674.361V328.08H678.001V331.24C678.721 330.093 679.681 329.213 680.881 328.6C682.108 327.987 683.455 327.68 684.921 327.68C686.761 327.68 688.388 328.093 689.801 328.92C691.215 329.747 692.268 330.96 692.961 332.56C693.575 331.013 694.588 329.813 696.001 328.96C697.415 328.107 698.988 327.68 700.721 327.68ZM737.116 327.68C738.77 327.68 740.263 328.04 741.596 328.76C742.93 329.453 743.97 330.507 744.716 331.92C745.49 333.333 745.876 335.053 745.876 337.08V350H742.276V337.6C742.276 335.413 741.73 333.747 740.636 332.6C739.543 331.427 738.05 330.84 736.156 330.84C734.236 330.84 732.703 331.44 731.556 332.64C730.436 333.84 729.876 335.587 729.876 337.88V350H726.236V320.4H729.876V331.2C730.596 330.08 731.583 329.213 732.836 328.6C734.116 327.987 735.543 327.68 737.116 327.68ZM761.382 350.36C759.329 350.36 757.462 349.893 755.782 348.96C754.129 348.027 752.822 346.707 751.862 345C750.929 343.267 750.462 341.267 750.462 339C750.462 336.76 750.942 334.787 751.902 333.08C752.889 331.347 754.222 330.027 755.902 329.12C757.582 328.187 759.462 327.72 761.542 327.72C763.622 327.72 765.502 328.187 767.182 329.12C768.862 330.027 770.182 331.333 771.142 333.04C772.129 334.747 772.622 336.733 772.622 339C772.622 341.267 772.116 343.267 771.102 345C770.116 346.707 768.769 348.027 767.062 348.96C765.356 349.893 763.462 350.36 761.382 350.36ZM761.382 347.16C762.689 347.16 763.916 346.853 765.062 346.24C766.209 345.627 767.129 344.707 767.822 343.48C768.542 342.253 768.902 340.76 768.902 339C768.902 337.24 768.556 335.747 767.862 334.52C767.169 333.293 766.262 332.387 765.142 331.8C764.022 331.187 762.809 330.88 761.502 330.88C760.169 330.88 758.942 331.187 757.822 331.8C756.729 332.387 755.849 333.293 755.182 334.52C754.516 335.747 754.182 337.24 754.182 339C754.182 340.787 754.502 342.293 755.142 343.52C755.809 344.747 756.689 345.667 757.782 346.28C758.876 346.867 760.076 347.16 761.382 347.16ZM803.768 327.68C805.475 327.68 806.995 328.04 808.328 328.76C809.661 329.453 810.715 330.507 811.488 331.92C812.261 333.333 812.648 335.053 812.648 337.08V350H809.048V337.6C809.048 335.413 808.501 333.747 807.408 332.6C806.341 331.427 804.888 330.84 803.048 330.84C801.155 330.84 799.648 331.453 798.528 332.68C797.408 333.88 796.848 335.627 796.848 337.92V350H793.248V337.6C793.248 335.413 792.701 333.747 791.608 332.6C790.541 331.427 789.088 330.84 787.248 330.84C785.355 330.84 783.848 331.453 782.728 332.68C781.608 333.88 781.048 335.627 781.048 337.92V350H777.408V328.08H781.048V331.24C781.768 330.093 782.728 329.213 783.928 328.6C785.155 327.987 786.501 327.68 787.968 327.68C789.808 327.68 791.435 328.093 792.848 328.92C794.261 329.747 795.315 330.96 796.008 332.56C796.621 331.013 797.635 329.813 799.048 328.96C800.461 328.107 802.035 327.68 803.768 327.68ZM838.619 338.2C838.619 338.893 838.579 339.627 838.499 340.4H820.979C821.112 342.56 821.846 344.253 823.179 345.48C824.539 346.68 826.179 347.28 828.099 347.28C829.672 347.28 830.979 346.92 832.019 346.2C833.086 345.453 833.832 344.467 834.259 343.24H838.179C837.592 345.347 836.419 347.067 834.659 348.4C832.899 349.707 830.712 350.36 828.099 350.36C826.019 350.36 824.152 349.893 822.499 348.96C820.872 348.027 819.592 346.707 818.659 345C817.726 343.267 817.259 341.267 817.259 339C817.259 336.733 817.712 334.747 818.619 333.04C819.526 331.333 820.792 330.027 822.419 329.12C824.072 328.187 825.966 327.72 828.099 327.72C830.179 327.72 832.019 328.173 833.619 329.08C835.219 329.987 836.446 331.24 837.299 332.84C838.179 334.413 838.619 336.2 838.619 338.2ZM834.859 337.44C834.859 336.053 834.552 334.867 833.939 333.88C833.326 332.867 832.486 332.107 831.419 331.6C830.379 331.067 829.219 330.8 827.939 330.8C826.099 330.8 824.526 331.387 823.219 332.56C821.939 333.733 821.206 335.36 821.019 337.44H834.859ZM850.544 321.76C853.184 321.76 855.317 322.507 856.944 324C858.57 325.493 859.384 327.493 859.384 330C859.384 332.8 858.517 334.88 856.784 336.24C855.05 337.573 852.704 338.24 849.744 338.24L849.624 342.04H846.464L846.304 335.72H847.464C850.104 335.72 852.17 335.32 853.664 334.52C855.157 333.72 855.904 332.213 855.904 330C855.904 328.4 855.424 327.133 854.464 326.2C853.504 325.267 852.21 324.8 850.584 324.8C848.93 324.8 847.624 325.253 846.664 326.16C845.73 327.04 845.264 328.253 845.264 329.8H841.824C841.824 328.2 842.184 326.8 842.904 325.6C843.624 324.373 844.637 323.427 845.944 322.76C847.277 322.093 848.81 321.76 850.544 321.76ZM848.024 350.24C847.33 350.24 846.744 350 846.264 349.52C845.784 349.04 845.544 348.453 845.544 347.76C845.544 347.067 845.784 346.48 846.264 346C846.744 345.52 847.33 345.28 848.024 345.28C848.69 345.28 849.25 345.52 849.704 346C850.184 346.48 850.424 347.067 850.424 347.76C850.424 348.453 850.184 349.04 849.704 349.52C849.25 350 848.69 350.24 848.024 350.24ZM140.114 408.36C140.3 405.907 141.247 403.987 142.954 402.6C144.66 401.213 146.874 400.52 149.594 400.52C151.407 400.52 152.967 400.853 154.274 401.52C155.607 402.16 156.607 403.04 157.274 404.16C157.967 405.28 158.314 406.547 158.314 407.96C158.314 409.613 157.834 411.04 156.874 412.24C155.94 413.44 154.714 414.213 153.194 414.56V414.76C154.927 415.187 156.3 416.027 157.314 417.28C158.327 418.533 158.834 420.173 158.834 422.2C158.834 423.72 158.487 425.093 157.794 426.32C157.1 427.52 156.06 428.467 154.674 429.16C153.287 429.853 151.62 430.2 149.674 430.2C146.847 430.2 144.527 429.467 142.714 428C140.9 426.507 139.887 424.4 139.674 421.68H143.194C143.38 423.28 144.034 424.587 145.154 425.6C146.274 426.613 147.767 427.12 149.634 427.12C151.5 427.12 152.914 426.64 153.874 425.68C154.86 424.693 155.354 423.427 155.354 421.88C155.354 419.88 154.687 418.44 153.354 417.56C152.02 416.68 150.007 416.24 147.314 416.24H146.394V413.2H147.354C149.807 413.173 151.66 412.773 152.914 412C154.167 411.2 154.794 409.973 154.794 408.32C154.794 406.907 154.327 405.773 153.394 404.92C152.487 404.067 151.18 403.64 149.474 403.64C147.82 403.64 146.487 404.067 145.474 404.92C144.46 405.773 143.86 406.92 143.674 408.36H140.114ZM165.508 430.24C164.815 430.24 164.228 430 163.748 429.52C163.268 429.04 163.028 428.453 163.028 427.76C163.028 427.067 163.268 426.48 163.748 426C164.228 425.52 164.815 425.28 165.508 425.28C166.175 425.28 166.735 425.52 167.188 426C167.668 426.48 167.908 427.067 167.908 427.76C167.908 428.453 167.668 429.04 167.188 429.52C166.735 430 166.175 430.24 165.508 430.24ZM221.12 402.12L213.04 430H208.96L202.48 407.56L195.76 430L191.72 430.04L183.92 402.12H187.8L193.88 425.76L200.6 402.12H204.68L211.08 425.68L217.2 402.12H221.12ZM235.983 407.68C237.637 407.68 239.13 408.04 240.463 408.76C241.797 409.453 242.837 410.507 243.583 411.92C244.357 413.333 244.743 415.053 244.743 417.08V430H241.143V417.6C241.143 415.413 240.597 413.747 239.503 412.6C238.41 411.427 236.917 410.84 235.023 410.84C233.103 410.84 231.57 411.44 230.423 412.64C229.303 413.84 228.743 415.587 228.743 417.88V430H225.103V400.4H228.743V411.2C229.463 410.08 230.45 409.213 231.703 408.6C232.983 407.987 234.41 407.68 235.983 407.68ZM249.329 418.96C249.329 416.72 249.783 414.76 250.689 413.08C251.596 411.373 252.836 410.053 254.409 409.12C256.009 408.187 257.783 407.72 259.729 407.72C261.649 407.72 263.316 408.133 264.729 408.96C266.143 409.787 267.196 410.827 267.889 412.08V408.08H271.569V430H267.889V425.92C267.169 427.2 266.089 428.267 264.649 429.12C263.236 429.947 261.583 430.36 259.689 430.36C257.743 430.36 255.983 429.88 254.409 428.92C252.836 427.96 251.596 426.613 250.689 424.88C249.783 423.147 249.329 421.173 249.329 418.96ZM267.889 419C267.889 417.347 267.556 415.907 266.889 414.68C266.223 413.453 265.316 412.52 264.169 411.88C263.049 411.213 261.809 410.88 260.449 410.88C259.089 410.88 257.849 411.2 256.729 411.84C255.609 412.48 254.716 413.413 254.049 414.64C253.383 415.867 253.049 417.307 253.049 418.96C253.049 420.64 253.383 422.107 254.049 423.36C254.716 424.587 255.609 425.533 256.729 426.2C257.849 426.84 259.089 427.16 260.449 427.16C261.809 427.16 263.049 426.84 264.169 426.2C265.316 425.533 266.223 424.587 266.889 423.36C267.556 422.107 267.889 420.653 267.889 419ZM282.161 411.08V424C282.161 425.067 282.387 425.827 282.841 426.28C283.294 426.707 284.081 426.92 285.201 426.92H287.881V430H284.601C282.574 430 281.054 429.533 280.041 428.6C279.027 427.667 278.521 426.133 278.521 424V411.08H275.681V408.08H278.521V402.56H282.161V408.08H287.881V411.08H282.161ZM292.851 402.12H296.891L293.051 411.2H290.491L292.851 402.12ZM308.801 430.36C307.121 430.36 305.614 430.08 304.281 429.52C302.948 428.933 301.894 428.133 301.121 427.12C300.348 426.08 299.921 424.893 299.841 423.56H303.601C303.708 424.653 304.214 425.547 305.121 426.24C306.054 426.933 307.268 427.28 308.761 427.28C310.148 427.28 311.241 426.973 312.041 426.36C312.841 425.747 313.241 424.973 313.241 424.04C313.241 423.08 312.814 422.373 311.961 421.92C311.108 421.44 309.788 420.973 308.001 420.52C306.374 420.093 305.041 419.667 304.001 419.24C302.988 418.787 302.108 418.133 301.361 417.28C300.641 416.4 300.281 415.253 300.281 413.84C300.281 412.72 300.614 411.693 301.281 410.76C301.948 409.827 302.894 409.093 304.121 408.56C305.348 408 306.748 407.72 308.321 407.72C310.748 407.72 312.708 408.333 314.201 409.56C315.694 410.787 316.494 412.467 316.601 414.6H312.961C312.881 413.453 312.414 412.533 311.561 411.84C310.734 411.147 309.614 410.8 308.201 410.8C306.894 410.8 305.854 411.08 305.081 411.64C304.308 412.2 303.921 412.933 303.921 413.84C303.921 414.56 304.148 415.16 304.601 415.64C305.081 416.093 305.668 416.467 306.361 416.76C307.081 417.027 308.068 417.333 309.321 417.68C310.894 418.107 312.174 418.533 313.161 418.96C314.148 419.36 314.988 419.973 315.681 420.8C316.401 421.627 316.774 422.707 316.801 424.04C316.801 425.24 316.468 426.32 315.801 427.28C315.134 428.24 314.188 429 312.961 429.56C311.761 430.093 310.374 430.36 308.801 430.36ZM351.483 408.08L338.283 440.32H334.523L338.843 429.76L330.003 408.08H334.043L340.923 425.84L347.723 408.08H351.483ZM364.703 430.36C362.649 430.36 360.783 429.893 359.103 428.96C357.449 428.027 356.143 426.707 355.183 425C354.249 423.267 353.783 421.267 353.783 419C353.783 416.76 354.263 414.787 355.223 413.08C356.209 411.347 357.543 410.027 359.223 409.12C360.903 408.187 362.783 407.72 364.863 407.72C366.943 407.72 368.823 408.187 370.503 409.12C372.183 410.027 373.503 411.333 374.463 413.04C375.449 414.747 375.943 416.733 375.943 419C375.943 421.267 375.436 423.267 374.423 425C373.436 426.707 372.089 428.027 370.383 428.96C368.676 429.893 366.783 430.36 364.703 430.36ZM364.703 427.16C366.009 427.16 367.236 426.853 368.383 426.24C369.529 425.627 370.449 424.707 371.143 423.48C371.863 422.253 372.223 420.76 372.223 419C372.223 417.24 371.876 415.747 371.183 414.52C370.489 413.293 369.583 412.387 368.463 411.8C367.343 411.187 366.129 410.88 364.823 410.88C363.489 410.88 362.263 411.187 361.143 411.8C360.049 412.387 359.169 413.293 358.503 414.52C357.836 415.747 357.503 417.24 357.503 419C357.503 420.787 357.823 422.293 358.463 423.52C359.129 424.747 360.009 425.667 361.103 426.28C362.196 426.867 363.396 427.16 364.703 427.16ZM400.168 408.08V430H396.528V426.76C395.835 427.88 394.862 428.76 393.608 429.4C392.382 430.013 391.022 430.32 389.528 430.32C387.822 430.32 386.288 429.973 384.928 429.28C383.568 428.56 382.488 427.493 381.688 426.08C380.915 424.667 380.528 422.947 380.528 420.92V408.08H384.128V420.44C384.128 422.6 384.675 424.267 385.768 425.44C386.862 426.587 388.355 427.16 390.248 427.16C392.195 427.16 393.728 426.56 394.848 425.36C395.968 424.16 396.528 422.413 396.528 420.12V408.08H400.168ZM409.954 411.64C410.594 410.387 411.501 409.413 412.674 408.72C413.874 408.027 415.328 407.68 417.034 407.68V411.44H416.074C411.994 411.44 409.954 413.653 409.954 418.08V430H406.314V408.08H409.954V411.64ZM430.54 418.96C430.54 416.72 430.994 414.76 431.9 413.08C432.807 411.373 434.047 410.053 435.62 409.12C437.22 408.187 439.007 407.72 440.98 407.72C442.687 407.72 444.274 408.12 445.74 408.92C447.207 409.693 448.327 410.72 449.1 412V400.4H452.78V430H449.1V425.88C448.38 427.187 447.314 428.267 445.9 429.12C444.487 429.947 442.834 430.36 440.94 430.36C438.994 430.36 437.22 429.88 435.62 428.92C434.047 427.96 432.807 426.613 431.9 424.88C430.994 423.147 430.54 421.173 430.54 418.96ZM449.1 419C449.1 417.347 448.767 415.907 448.1 414.68C447.434 413.453 446.527 412.52 445.38 411.88C444.26 411.213 443.02 410.88 441.66 410.88C440.3 410.88 439.06 411.2 437.94 411.84C436.82 412.48 435.927 413.413 435.26 414.64C434.594 415.867 434.26 417.307 434.26 418.96C434.26 420.64 434.594 422.107 435.26 423.36C435.927 424.587 436.82 425.533 437.94 426.2C439.06 426.84 440.3 427.16 441.66 427.16C443.02 427.16 444.26 426.84 445.38 426.2C446.527 425.533 447.434 424.587 448.1 423.36C448.767 422.107 449.1 420.653 449.1 419ZM462.572 411.64C463.212 410.387 464.118 409.413 465.292 408.72C466.492 408.027 467.945 407.68 469.652 407.68V411.44H468.692C464.612 411.44 462.572 413.653 462.572 418.08V430H458.932V408.08H462.572V411.64ZM493.853 418.2C493.853 418.893 493.813 419.627 493.733 420.4H476.213C476.347 422.56 477.08 424.253 478.413 425.48C479.773 426.68 481.413 427.28 483.333 427.28C484.907 427.28 486.213 426.92 487.253 426.2C488.32 425.453 489.067 424.467 489.493 423.24H493.413C492.827 425.347 491.653 427.067 489.893 428.4C488.133 429.707 485.947 430.36 483.333 430.36C481.253 430.36 479.387 429.893 477.733 428.96C476.107 428.027 474.827 426.707 473.893 425C472.96 423.267 472.493 421.267 472.493 419C472.493 416.733 472.947 414.747 473.853 413.04C474.76 411.333 476.027 410.027 477.653 409.12C479.307 408.187 481.2 407.72 483.333 407.72C485.413 407.72 487.253 408.173 488.853 409.08C490.453 409.987 491.68 411.24 492.533 412.84C493.413 414.413 493.853 416.2 493.853 418.2ZM490.093 417.44C490.093 416.053 489.787 414.867 489.173 413.88C488.56 412.867 487.72 412.107 486.653 411.6C485.613 411.067 484.453 410.8 483.173 410.8C481.333 410.8 479.76 411.387 478.453 412.56C477.173 413.733 476.44 415.36 476.253 417.44H490.093ZM497.298 418.96C497.298 416.72 497.751 414.76 498.658 413.08C499.565 411.373 500.805 410.053 502.378 409.12C503.978 408.187 505.751 407.72 507.698 407.72C509.618 407.72 511.285 408.133 512.698 408.96C514.111 409.787 515.165 410.827 515.858 412.08V408.08H519.538V430H515.858V425.92C515.138 427.2 514.058 428.267 512.618 429.12C511.205 429.947 509.551 430.36 507.658 430.36C505.711 430.36 503.951 429.88 502.378 428.92C500.805 427.96 499.565 426.613 498.658 424.88C497.751 423.147 497.298 421.173 497.298 418.96ZM515.858 419C515.858 417.347 515.525 415.907 514.858 414.68C514.191 413.453 513.285 412.52 512.138 411.88C511.018 411.213 509.778 410.88 508.418 410.88C507.058 410.88 505.818 411.2 504.698 411.84C503.578 412.48 502.685 413.413 502.018 414.64C501.351 415.867 501.018 417.307 501.018 418.96C501.018 420.64 501.351 422.107 502.018 423.36C502.685 424.587 503.578 425.533 504.698 426.2C505.818 426.84 507.058 427.16 508.418 427.16C509.778 427.16 511.018 426.84 512.138 426.2C513.285 425.533 514.191 424.587 514.858 423.36C515.525 422.107 515.858 420.653 515.858 419ZM552.049 407.68C553.756 407.68 555.276 408.04 556.609 408.76C557.943 409.453 558.996 410.507 559.769 411.92C560.543 413.333 560.929 415.053 560.929 417.08V430H557.329V417.6C557.329 415.413 556.783 413.747 555.689 412.6C554.623 411.427 553.169 410.84 551.329 410.84C549.436 410.84 547.929 411.453 546.809 412.68C545.689 413.88 545.129 415.627 545.129 417.92V430H541.529V417.6C541.529 415.413 540.983 413.747 539.889 412.6C538.823 411.427 537.369 410.84 535.529 410.84C533.636 410.84 532.129 411.453 531.009 412.68C529.889 413.88 529.329 415.627 529.329 417.92V430H525.689V408.08H529.329V411.24C530.049 410.093 531.009 409.213 532.209 408.6C533.436 407.987 534.783 407.68 536.249 407.68C538.089 407.68 539.716 408.093 541.129 408.92C542.543 409.747 543.596 410.96 544.289 412.56C544.903 411.013 545.916 409.813 547.329 408.96C548.743 408.107 550.316 407.68 552.049 407.68ZM585.324 430.36C583.644 430.36 582.138 430.08 580.804 429.52C579.471 428.933 578.418 428.133 577.644 427.12C576.871 426.08 576.444 424.893 576.364 423.56H580.124C580.231 424.653 580.738 425.547 581.644 426.24C582.578 426.933 583.791 427.28 585.284 427.28C586.671 427.28 587.764 426.973 588.564 426.36C589.364 425.747 589.764 424.973 589.764 424.04C589.764 423.08 589.338 422.373 588.484 421.92C587.631 421.44 586.311 420.973 584.524 420.52C582.898 420.093 581.564 419.667 580.524 419.24C579.511 418.787 578.631 418.133 577.884 417.28C577.164 416.4 576.804 415.253 576.804 413.84C576.804 412.72 577.138 411.693 577.804 410.76C578.471 409.827 579.418 409.093 580.644 408.56C581.871 408 583.271 407.72 584.844 407.72C587.271 407.72 589.231 408.333 590.724 409.56C592.218 410.787 593.018 412.467 593.124 414.6H589.484C589.404 413.453 588.938 412.533 588.084 411.84C587.258 411.147 586.138 410.8 584.724 410.8C583.418 410.8 582.378 411.08 581.604 411.64C580.831 412.2 580.444 412.933 580.444 413.84C580.444 414.56 580.671 415.16 581.124 415.64C581.604 416.093 582.191 416.467 582.884 416.76C583.604 417.027 584.591 417.333 585.844 417.68C587.418 418.107 588.698 418.533 589.684 418.96C590.671 419.36 591.511 419.973 592.204 420.8C592.924 421.627 593.298 422.707 593.324 424.04C593.324 425.24 592.991 426.32 592.324 427.28C591.658 428.24 590.711 429 589.484 429.56C588.284 430.093 586.898 430.36 585.324 430.36ZM597.103 418.96C597.103 416.72 597.556 414.76 598.463 413.08C599.369 411.373 600.609 410.053 602.183 409.12C603.783 408.187 605.556 407.72 607.503 407.72C609.423 407.72 611.089 408.133 612.503 408.96C613.916 409.787 614.969 410.827 615.663 412.08V408.08H619.343V430H615.663V425.92C614.943 427.2 613.863 428.267 612.423 429.12C611.009 429.947 609.356 430.36 607.463 430.36C605.516 430.36 603.756 429.88 602.183 428.92C600.609 427.96 599.369 426.613 598.463 424.88C597.556 423.147 597.103 421.173 597.103 418.96ZM615.663 419C615.663 417.347 615.329 415.907 614.663 414.68C613.996 413.453 613.089 412.52 611.943 411.88C610.823 411.213 609.583 410.88 608.223 410.88C606.863 410.88 605.623 411.2 604.503 411.84C603.383 412.48 602.489 413.413 601.823 414.64C601.156 415.867 600.823 417.307 600.823 418.96C600.823 420.64 601.156 422.107 601.823 423.36C602.489 424.587 603.383 425.533 604.503 426.2C605.623 426.84 606.863 427.16 608.223 427.16C609.583 427.16 610.823 426.84 611.943 426.2C613.089 425.533 613.996 424.587 614.663 423.36C615.329 422.107 615.663 420.653 615.663 419ZM629.134 400.4V430H625.494V400.4H629.134ZM633.978 418.96C633.978 416.72 634.431 414.76 635.338 413.08C636.244 411.373 637.484 410.053 639.058 409.12C640.658 408.187 642.431 407.72 644.378 407.72C646.298 407.72 647.964 408.133 649.378 408.96C650.791 409.787 651.844 410.827 652.538 412.08V408.08H656.218V430H652.538V425.92C651.818 427.2 650.738 428.267 649.298 429.12C647.884 429.947 646.231 430.36 644.338 430.36C642.391 430.36 640.631 429.88 639.058 428.92C637.484 427.96 636.244 426.613 635.338 424.88C634.431 423.147 633.978 421.173 633.978 418.96ZM652.538 419C652.538 417.347 652.204 415.907 651.538 414.68C650.871 413.453 649.964 412.52 648.818 411.88C647.698 411.213 646.458 410.88 645.098 410.88C643.738 410.88 642.498 411.2 641.378 411.84C640.258 412.48 639.364 413.413 638.698 414.64C638.031 415.867 637.698 417.307 637.698 418.96C637.698 420.64 638.031 422.107 638.698 423.36C639.364 424.587 640.258 425.533 641.378 426.2C642.498 426.84 643.738 427.16 645.098 427.16C646.458 427.16 647.698 426.84 648.818 426.2C649.964 425.533 650.871 424.587 651.538 423.36C652.204 422.107 652.538 420.653 652.538 419ZM666.009 411.64C666.649 410.387 667.556 409.413 668.729 408.72C669.929 408.027 671.382 407.68 673.089 407.68V411.44H672.129C668.049 411.44 666.009 413.653 666.009 418.08V430H662.369V408.08H666.009V411.64ZM696.171 408.08L682.971 440.32H679.211L683.531 429.76L674.691 408.08H678.731L685.611 425.84L692.411 408.08H696.171ZM712.374 404.52C711.681 404.52 711.094 404.28 710.614 403.8C710.134 403.32 709.894 402.733 709.894 402.04C709.894 401.347 710.134 400.76 710.614 400.28C711.094 399.8 711.681 399.56 712.374 399.56C713.041 399.56 713.601 399.8 714.054 400.28C714.534 400.76 714.774 401.347 714.774 402.04C714.774 402.733 714.534 403.32 714.054 403.8C713.601 404.28 713.041 404.52 712.374 404.52ZM714.134 408.08V430H710.494V408.08H714.134ZM731.018 407.68C733.684 407.68 735.844 408.493 737.498 410.12C739.151 411.72 739.978 414.04 739.978 417.08V430H736.378V417.6C736.378 415.413 735.831 413.747 734.738 412.6C733.644 411.427 732.151 410.84 730.258 410.84C728.338 410.84 726.804 411.44 725.658 412.64C724.538 413.84 723.978 415.587 723.978 417.88V430H720.338V408.08H723.978V411.2C724.698 410.08 725.671 409.213 726.898 408.6C728.151 407.987 729.524 407.68 731.018 407.68ZM775.468 408.08L762.268 440.32H758.508L762.828 429.76L753.988 408.08H758.028L764.908 425.84L771.708 408.08H775.468ZM788.687 430.36C786.634 430.36 784.767 429.893 783.087 428.96C781.434 428.027 780.127 426.707 779.167 425C778.234 423.267 777.767 421.267 777.767 419C777.767 416.76 778.247 414.787 779.207 413.08C780.194 411.347 781.527 410.027 783.207 409.12C784.887 408.187 786.767 407.72 788.847 407.72C790.927 407.72 792.807 408.187 794.487 409.12C796.167 410.027 797.487 411.333 798.447 413.04C799.434 414.747 799.927 416.733 799.927 419C799.927 421.267 799.42 423.267 798.407 425C797.42 426.707 796.074 428.027 794.367 428.96C792.66 429.893 790.767 430.36 788.687 430.36ZM788.687 427.16C789.994 427.16 791.22 426.853 792.367 426.24C793.514 425.627 794.434 424.707 795.127 423.48C795.847 422.253 796.207 420.76 796.207 419C796.207 417.24 795.86 415.747 795.167 414.52C794.474 413.293 793.567 412.387 792.447 411.8C791.327 411.187 790.114 410.88 788.807 410.88C787.474 410.88 786.247 411.187 785.127 411.8C784.034 412.387 783.154 413.293 782.487 414.52C781.82 415.747 781.487 417.24 781.487 419C781.487 420.787 781.807 422.293 782.447 423.52C783.114 424.747 783.994 425.667 785.087 426.28C786.18 426.867 787.38 427.16 788.687 427.16ZM824.153 408.08V430H820.513V426.76C819.819 427.88 818.846 428.76 817.593 429.4C816.366 430.013 815.006 430.32 813.513 430.32C811.806 430.32 810.273 429.973 808.913 429.28C807.553 428.56 806.473 427.493 805.673 426.08C804.899 424.667 804.513 422.947 804.513 420.92V408.08H808.113V420.44C808.113 422.6 808.659 424.267 809.753 425.44C810.846 426.587 812.339 427.16 814.233 427.16C816.179 427.16 817.713 426.56 818.833 425.36C819.953 424.16 820.513 422.413 820.513 420.12V408.08H824.153ZM833.939 411.64C834.579 410.387 835.485 409.413 836.659 408.72C837.859 408.027 839.312 407.68 841.019 407.68V411.44H840.059C835.979 411.44 833.939 413.653 833.939 418.08V430H830.299V408.08H833.939V411.64ZM854.525 418.96C854.525 416.72 854.978 414.76 855.885 413.08C856.791 411.373 858.031 410.053 859.605 409.12C861.205 408.187 862.991 407.72 864.965 407.72C866.671 407.72 868.258 408.12 869.725 408.92C871.191 409.693 872.311 410.72 873.085 412V400.4H876.765V430H873.085V425.88C872.365 427.187 871.298 428.267 869.885 429.12C868.471 429.947 866.818 430.36 864.925 430.36C862.978 430.36 861.205 429.88 859.605 428.92C858.031 427.96 856.791 426.613 855.885 424.88C854.978 423.147 854.525 421.173 854.525 418.96ZM873.085 419C873.085 417.347 872.751 415.907 872.085 414.68C871.418 413.453 870.511 412.52 869.365 411.88C868.245 411.213 867.005 410.88 865.645 410.88C864.285 410.88 863.045 411.2 861.925 411.84C860.805 412.48 859.911 413.413 859.245 414.64C858.578 415.867 858.245 417.307 858.245 418.96C858.245 420.64 858.578 422.107 859.245 423.36C859.911 424.587 860.805 425.533 861.925 426.2C863.045 426.84 864.285 427.16 865.645 427.16C867.005 427.16 868.245 426.84 869.365 426.2C870.511 425.533 871.418 424.587 872.085 423.36C872.751 422.107 873.085 420.653 873.085 419ZM886.556 411.64C887.196 410.387 888.103 409.413 889.276 408.72C890.476 408.027 891.929 407.68 893.636 407.68V411.44H892.676C888.596 411.44 886.556 413.653 886.556 418.08V430H882.916V408.08H886.556V411.64ZM917.838 418.2C917.838 418.893 917.798 419.627 917.718 420.4H900.198C900.331 422.56 901.064 424.253 902.398 425.48C903.758 426.68 905.398 427.28 907.318 427.28C908.891 427.28 910.198 426.92 911.238 426.2C912.304 425.453 913.051 424.467 913.478 423.24H917.398C916.811 425.347 915.638 427.067 913.878 428.4C912.118 429.707 909.931 430.36 907.318 430.36C905.238 430.36 903.371 429.893 901.718 428.96C900.091 428.027 898.811 426.707 897.878 425C896.944 423.267 896.478 421.267 896.478 419C896.478 416.733 896.931 414.747 897.838 413.04C898.744 411.333 900.011 410.027 901.638 409.12C903.291 408.187 905.184 407.72 907.318 407.72C909.398 407.72 911.238 408.173 912.838 409.08C914.438 409.987 915.664 411.24 916.518 412.84C917.398 414.413 917.838 416.2 917.838 418.2ZM914.078 417.44C914.078 416.053 913.771 414.867 913.158 413.88C912.544 412.867 911.704 412.107 910.638 411.6C909.598 411.067 908.438 410.8 907.158 410.8C905.318 410.8 903.744 411.387 902.438 412.56C901.158 413.733 900.424 415.36 900.238 417.44H914.078ZM921.283 418.96C921.283 416.72 921.736 414.76 922.643 413.08C923.549 411.373 924.789 410.053 926.363 409.12C927.963 408.187 929.736 407.72 931.683 407.72C933.603 407.72 935.269 408.133 936.683 408.96C938.096 409.787 939.149 410.827 939.843 412.08V408.08H943.523V430H939.843V425.92C939.123 427.2 938.043 428.267 936.603 429.12C935.189 429.947 933.536 430.36 931.643 430.36C929.696 430.36 927.936 429.88 926.363 428.92C924.789 427.96 923.549 426.613 922.643 424.88C921.736 423.147 921.283 421.173 921.283 418.96ZM939.843 419C939.843 417.347 939.509 415.907 938.843 414.68C938.176 413.453 937.269 412.52 936.123 411.88C935.003 411.213 933.763 410.88 932.403 410.88C931.043 410.88 929.803 411.2 928.683 411.84C927.563 412.48 926.669 413.413 926.003 414.64C925.336 415.867 925.003 417.307 925.003 418.96C925.003 420.64 925.336 422.107 926.003 423.36C926.669 424.587 927.563 425.533 928.683 426.2C929.803 426.84 931.043 427.16 932.403 427.16C933.763 427.16 935.003 426.84 936.123 426.2C937.269 425.533 938.176 424.587 938.843 423.36C939.509 422.107 939.843 420.653 939.843 419ZM976.034 407.68C977.74 407.68 979.26 408.04 980.594 408.76C981.927 409.453 982.98 410.507 983.754 411.92C984.527 413.333 984.914 415.053 984.914 417.08V430H981.314V417.6C981.314 415.413 980.767 413.747 979.674 412.6C978.607 411.427 977.154 410.84 975.314 410.84C973.42 410.84 971.914 411.453 970.794 412.68C969.674 413.88 969.114 415.627 969.114 417.92V430H965.514V417.6C965.514 415.413 964.967 413.747 963.874 412.6C962.807 411.427 961.354 410.84 959.514 410.84C957.62 410.84 956.114 411.453 954.994 412.68C953.874 413.88 953.314 415.627 953.314 417.92V430H949.674V408.08H953.314V411.24C954.034 410.093 954.994 409.213 956.194 408.6C957.42 407.987 958.767 407.68 960.234 407.68C962.074 407.68 963.7 408.093 965.114 408.92C966.527 409.747 967.58 410.96 968.274 412.56C968.887 411.013 969.9 409.813 971.314 408.96C972.727 408.107 974.3 407.68 976.034 407.68ZM1003.51 404.52C1002.82 404.52 1002.23 404.28 1001.75 403.8C1001.3 403.32 1001.07 402.733 1001.07 402.04C1001.07 401.347 1001.3 400.76 1001.75 400.28C1002.23 399.8 1002.82 399.56 1003.51 399.56C1004.2 399.56 1004.78 399.8 1005.23 400.28C1005.71 400.76 1005.95 401.347 1005.95 402.04C1005.95 402.733 1005.71 403.32 1005.23 403.8C1004.78 404.28 1004.2 404.52 1003.51 404.52ZM1005.31 434.76C1005.31 436.707 1004.82 438.133 1003.83 439.04C1002.84 439.947 1001.4 440.4 999.509 440.4H997.389V437.32H998.909C999.922 437.32 1000.63 437.12 1001.03 436.72C1001.46 436.32 1001.67 435.64 1001.67 434.68V408.08H1005.31V434.76ZM1021.03 430.36C1018.98 430.36 1017.11 429.893 1015.43 428.96C1013.78 428.027 1012.47 426.707 1011.51 425C1010.58 423.267 1010.11 421.267 1010.11 419C1010.11 416.76 1010.59 414.787 1011.55 413.08C1012.54 411.347 1013.87 410.027 1015.55 409.12C1017.23 408.187 1019.11 407.72 1021.19 407.72C1023.27 407.72 1025.15 408.187 1026.83 409.12C1028.51 410.027 1029.83 411.333 1030.79 413.04C1031.78 414.747 1032.27 416.733 1032.27 419C1032.27 421.267 1031.76 423.267 1030.75 425C1029.76 426.707 1028.42 428.027 1026.71 428.96C1025 429.893 1023.11 430.36 1021.03 430.36ZM1021.03 427.16C1022.34 427.16 1023.56 426.853 1024.71 426.24C1025.86 425.627 1026.78 424.707 1027.47 423.48C1028.19 422.253 1028.55 420.76 1028.55 419C1028.55 417.24 1028.2 415.747 1027.51 414.52C1026.82 413.293 1025.91 412.387 1024.79 411.8C1023.67 411.187 1022.46 410.88 1021.15 410.88C1019.82 410.88 1018.59 411.187 1017.47 411.8C1016.38 412.387 1015.5 413.293 1014.83 414.52C1014.16 415.747 1013.83 417.24 1013.83 419C1013.83 420.787 1014.15 422.293 1014.79 423.52C1015.46 424.747 1016.34 425.667 1017.43 426.28C1018.52 426.867 1019.72 427.16 1021.03 427.16ZM1040.7 412.16C1041.44 410.853 1042.54 409.787 1043.98 408.96C1045.42 408.133 1047.06 407.72 1048.9 407.72C1050.87 407.72 1052.64 408.187 1054.22 409.12C1055.79 410.053 1057.03 411.373 1057.94 413.08C1058.84 414.76 1059.3 416.72 1059.3 418.96C1059.3 421.173 1058.84 423.147 1057.94 424.88C1057.03 426.613 1055.78 427.96 1054.18 428.92C1052.6 429.88 1050.84 430.36 1048.9 430.36C1047 430.36 1045.34 429.947 1043.9 429.12C1042.48 428.293 1041.42 427.24 1040.7 425.96V430H1037.06V400.4H1040.7V412.16ZM1055.58 418.96C1055.58 417.307 1055.24 415.867 1054.58 414.64C1053.91 413.413 1053 412.48 1051.86 411.84C1050.74 411.2 1049.5 410.88 1048.14 410.88C1046.8 410.88 1045.56 411.213 1044.42 411.88C1043.3 412.52 1042.39 413.467 1041.7 414.72C1041.03 415.947 1040.7 417.373 1040.7 419C1040.7 420.653 1041.03 422.107 1041.7 423.36C1042.39 424.587 1043.3 425.533 1044.42 426.2C1045.56 426.84 1046.8 427.16 1048.14 427.16C1049.5 427.16 1050.74 426.84 1051.86 426.2C1053 425.533 1053.91 424.587 1054.58 423.36C1055.24 422.107 1055.58 420.64 1055.58 418.96ZM1071.21 401.76C1073.85 401.76 1075.98 402.507 1077.61 404C1079.23 405.493 1080.05 407.493 1080.05 410C1080.05 412.8 1079.18 414.88 1077.45 416.24C1075.71 417.573 1073.37 418.24 1070.41 418.24L1070.29 422.04H1067.13L1066.97 415.72H1068.13C1070.77 415.72 1072.83 415.32 1074.33 414.52C1075.82 413.72 1076.57 412.213 1076.57 410C1076.57 408.4 1076.09 407.133 1075.13 406.2C1074.17 405.267 1072.87 404.8 1071.25 404.8C1069.59 404.8 1068.29 405.253 1067.33 406.16C1066.39 407.04 1065.93 408.253 1065.93 409.8H1062.49C1062.49 408.2 1062.85 406.8 1063.57 405.6C1064.29 404.373 1065.3 403.427 1066.61 402.76C1067.94 402.093 1069.47 401.76 1071.21 401.76ZM1068.69 430.24C1067.99 430.24 1067.41 430 1066.93 429.52C1066.45 429.04 1066.21 428.453 1066.21 427.76C1066.21 427.067 1066.45 426.48 1066.93 426C1067.41 425.52 1067.99 425.28 1068.69 425.28C1069.35 425.28 1069.91 425.52 1070.37 426C1070.85 426.48 1071.09 427.067 1071.09 427.76C1071.09 428.453 1070.85 429.04 1070.37 429.52C1069.91 430 1069.35 430.24 1068.69 430.24Z" fill="black"/>
</svg>
