<svg width="1280" height="600" viewBox="0 0 1280 600" fill="none" xmlns="http://www.w3.org/2000/svg">
<rect width="1280" height="600" fill="white"/>
<rect x="50.5" y="65.5" width="1178" height="468" rx="11.5" stroke="#474242"/>
<rect x="329" y="33" width="581" height="117" rx="12" fill="#9E2A2B"/>
<path d="M399.501 91.8C399.501 89 400.061 86.5067 401.181 84.32C402.327 82.1333 403.954 80.44 406.061 79.24C408.167 78.0133 410.647 77.4 413.501 77.4C415.954 77.4 418.141 77.8667 420.061 78.8C422.007 79.7067 423.581 81 424.781 82.68C426.007 84.36 426.821 86.32 427.221 88.56H417.861C417.434 87.6267 416.821 86.9067 416.021 86.4C415.247 85.8667 414.354 85.6 413.341 85.6C411.847 85.6 410.661 86.16 409.781 87.28C408.927 88.4 408.501 89.9067 408.501 91.8C408.501 93.6933 408.927 95.2 409.781 96.32C410.661 97.44 411.847 98 413.341 98C414.354 98 415.247 97.7467 416.021 97.24C416.821 96.7067 417.434 95.9733 417.861 95.04H427.221C426.821 97.28 426.007 99.24 424.781 100.92C423.581 102.6 422.007 103.907 420.061 104.84C418.141 105.747 415.954 106.2 413.501 106.2C410.647 106.2 408.167 105.6 406.061 104.4C403.954 103.173 402.327 101.467 401.181 99.28C400.061 97.0933 399.501 94.6 399.501 91.8ZM441.138 106.28C438.871 106.28 436.831 105.813 435.018 104.88C433.205 103.947 431.778 102.613 430.738 100.88C429.725 99.12 429.218 97.0667 429.218 94.72C429.218 92.3733 429.725 90.3333 430.738 88.6C431.778 86.84 433.205 85.4933 435.018 84.56C436.831 83.6267 438.871 83.16 441.138 83.16C443.405 83.16 445.445 83.6267 447.258 84.56C449.071 85.4933 450.485 86.84 451.498 88.6C452.538 90.3333 453.058 92.3733 453.058 94.72C453.058 97.0667 452.538 99.12 451.498 100.88C450.485 102.613 449.071 103.947 447.258 104.88C445.445 105.813 443.405 106.28 441.138 106.28ZM441.138 98.6C441.965 98.6 442.658 98.28 443.218 97.64C443.778 96.9733 444.058 96 444.058 94.72C444.058 93.44 443.778 92.48 443.218 91.84C442.658 91.1733 441.965 90.84 441.138 90.84C440.311 90.84 439.618 91.1733 439.058 91.84C438.498 92.48 438.218 93.44 438.218 94.72C438.218 96 438.485 96.9733 439.018 97.64C439.578 98.28 440.285 98.6 441.138 98.6ZM471.648 83.28C474.234 83.28 476.248 84.1467 477.688 85.88C479.154 87.6133 479.888 89.96 479.888 92.92V106H471.048V94.04C471.048 92.9733 470.754 92.1333 470.168 91.52C469.608 90.88 468.848 90.56 467.888 90.56C466.901 90.56 466.128 90.88 465.568 91.52C465.008 92.1333 464.728 92.9733 464.728 94.04V106H455.848V83.44H464.728V86.88C465.421 85.8133 466.341 84.9467 467.488 84.28C468.661 83.6133 470.048 83.28 471.648 83.28ZM495.178 97.56L498.778 83.44H508.218L500.698 106H489.618L482.098 83.44H491.538L495.178 97.56ZM532.414 94.52C532.414 95.1333 532.374 95.72 532.294 96.28H518.014C518.148 98.2267 518.961 99.2 520.454 99.2C521.414 99.2 522.108 98.76 522.534 97.88H531.934C531.614 99.48 530.934 100.92 529.894 102.2C528.881 103.453 527.588 104.453 526.014 105.2C524.468 105.92 522.761 106.28 520.894 106.28C518.654 106.28 516.654 105.813 514.894 104.88C513.161 103.947 511.801 102.613 510.814 100.88C509.854 99.12 509.374 97.0667 509.374 94.72C509.374 92.3733 509.854 90.3333 510.814 88.6C511.801 86.84 513.161 85.4933 514.894 84.56C516.654 83.6267 518.654 83.16 520.894 83.16C523.134 83.16 525.121 83.6267 526.854 84.56C528.614 85.4667 529.974 86.7733 530.934 88.48C531.921 90.1867 532.414 92.2 532.414 94.52ZM523.414 92.4C523.414 91.6533 523.174 91.0933 522.694 90.72C522.214 90.32 521.614 90.12 520.894 90.12C519.321 90.12 518.401 90.88 518.134 92.4H523.414ZM544.103 87.6C545.009 86.2933 546.116 85.2533 547.423 84.48C548.729 83.68 550.089 83.28 551.503 83.28V92.76H548.983C547.303 92.76 546.063 93.0533 545.263 93.64C544.489 94.2267 544.103 95.2667 544.103 96.76V106H535.223V83.44H544.103V87.6ZM563.935 106.28C561.801 106.28 559.908 105.933 558.255 105.24C556.628 104.547 555.335 103.587 554.375 102.36C553.415 101.133 552.868 99.7467 552.735 98.2H561.255C561.361 98.8667 561.641 99.36 562.095 99.68C562.575 100 563.175 100.16 563.895 100.16C564.348 100.16 564.708 100.067 564.975 99.88C565.241 99.6667 565.375 99.4133 565.375 99.12C565.375 98.6133 565.095 98.2533 564.535 98.04C563.975 97.8267 563.028 97.5867 561.695 97.32C560.068 97 558.721 96.6533 557.655 96.28C556.615 95.9067 555.695 95.2667 554.895 94.36C554.121 93.4533 553.735 92.2 553.735 90.6C553.735 89.2133 554.095 87.96 554.815 86.84C555.561 85.6933 556.655 84.8 558.095 84.16C559.535 83.4933 561.281 83.16 563.335 83.16C566.375 83.16 568.748 83.9067 570.455 85.4C572.188 86.8933 573.228 88.84 573.575 91.24H565.695C565.561 90.6267 565.281 90.16 564.855 89.84C564.428 89.4933 563.855 89.32 563.135 89.32C562.681 89.32 562.335 89.4133 562.095 89.6C561.855 89.76 561.735 90.0133 561.735 90.36C561.735 90.8133 562.015 91.16 562.575 91.4C563.135 91.6133 564.028 91.84 565.255 92.08C566.881 92.4 568.255 92.76 569.375 93.16C570.495 93.56 571.468 94.2533 572.295 95.24C573.121 96.2 573.535 97.5333 573.535 99.24C573.535 100.573 573.148 101.773 572.375 102.84C571.601 103.907 570.481 104.747 569.015 105.36C567.575 105.973 565.881 106.28 563.935 106.28ZM575.859 94.72C575.859 92.3467 576.259 90.2933 577.059 88.56C577.885 86.8 579.005 85.4667 580.419 84.56C581.832 83.6267 583.419 83.16 585.179 83.16C586.645 83.16 587.912 83.4667 588.979 84.08C590.045 84.6667 590.859 85.48 591.419 86.52V83.44H600.259V106H591.419V102.92C590.859 103.96 590.045 104.787 588.979 105.4C587.912 105.987 586.645 106.28 585.179 106.28C583.419 106.28 581.832 105.827 580.419 104.92C579.005 103.987 577.885 102.653 577.059 100.92C576.259 99.16 575.859 97.0933 575.859 94.72ZM591.419 94.72C591.419 93.52 591.112 92.5867 590.499 91.92C589.885 91.2533 589.099 90.92 588.139 90.92C587.179 90.92 586.392 91.2533 585.779 91.92C585.165 92.5867 584.859 93.52 584.859 94.72C584.859 95.92 585.165 96.8533 585.779 97.52C586.392 98.1867 587.179 98.52 588.139 98.52C589.099 98.52 589.885 98.1867 590.499 97.52C591.112 96.8533 591.419 95.92 591.419 94.72ZM618.286 98.44V106H614.926C608.739 106 605.646 102.92 605.646 96.76V90.84H602.846V83.44H605.646V78H614.526V83.44H618.206V90.84H614.526V96.92C614.526 97.4533 614.646 97.84 614.886 98.08C615.153 98.32 615.579 98.44 616.166 98.44H618.286ZM626.148 81.64C624.601 81.64 623.361 81.2267 622.428 80.4C621.495 79.5733 621.028 78.5333 621.028 77.28C621.028 76 621.495 74.9467 622.428 74.12C623.361 73.2667 624.601 72.84 626.148 72.84C627.668 72.84 628.895 73.2667 629.828 74.12C630.761 74.9467 631.228 76 631.228 77.28C631.228 78.5333 630.761 79.5733 629.828 80.4C628.895 81.2267 627.668 81.64 626.148 81.64ZM630.548 83.44V106H621.668V83.44H630.548ZM645.279 106.28C643.012 106.28 640.972 105.813 639.159 104.88C637.345 103.947 635.919 102.613 634.879 100.88C633.865 99.12 633.359 97.0667 633.359 94.72C633.359 92.3733 633.865 90.3333 634.879 88.6C635.919 86.84 637.345 85.4933 639.159 84.56C640.972 83.6267 643.012 83.16 645.279 83.16C647.545 83.16 649.585 83.6267 651.399 84.56C653.212 85.4933 654.625 86.84 655.639 88.6C656.679 90.3333 657.199 92.3733 657.199 94.72C657.199 97.0667 656.679 99.12 655.639 100.88C654.625 102.613 653.212 103.947 651.399 104.88C649.585 105.813 647.545 106.28 645.279 106.28ZM645.279 98.6C646.105 98.6 646.799 98.28 647.359 97.64C647.919 96.9733 648.199 96 648.199 94.72C648.199 93.44 647.919 92.48 647.359 91.84C646.799 91.1733 646.105 90.84 645.279 90.84C644.452 90.84 643.759 91.1733 643.199 91.84C642.639 92.48 642.359 93.44 642.359 94.72C642.359 96 642.625 96.9733 643.159 97.64C643.719 98.28 644.425 98.6 645.279 98.6ZM675.788 83.28C678.375 83.28 680.388 84.1467 681.828 85.88C683.295 87.6133 684.028 89.96 684.028 92.92V106H675.188V94.04C675.188 92.9733 674.895 92.1333 674.308 91.52C673.748 90.88 672.988 90.56 672.028 90.56C671.042 90.56 670.268 90.88 669.708 91.52C669.148 92.1333 668.868 92.9733 668.868 94.04V106H659.988V83.44H668.868V86.88C669.562 85.8133 670.482 84.9467 671.628 84.28C672.802 83.6133 674.188 83.28 675.788 83.28ZM705.756 106.28C702.369 106.28 699.569 105.493 697.356 103.92C695.169 102.32 693.982 99.9867 693.796 96.92H703.236C703.369 98.5467 704.089 99.36 705.396 99.36C705.876 99.36 706.276 99.2533 706.596 99.04C706.942 98.8 707.116 98.44 707.116 97.96C707.116 97.2933 706.756 96.76 706.036 96.36C705.316 95.9333 704.196 95.4533 702.676 94.92C700.862 94.28 699.356 93.6533 698.156 93.04C696.982 92.4267 695.969 91.5333 695.116 90.36C694.262 89.1867 693.849 87.68 693.876 85.84C693.876 84 694.342 82.44 695.276 81.16C696.236 79.8533 697.529 78.8667 699.156 78.2C700.809 77.5333 702.662 77.2 704.716 77.2C708.182 77.2 710.929 78 712.956 79.6C715.009 81.2 716.089 83.4533 716.196 86.36H706.636C706.609 85.56 706.409 84.9867 706.036 84.64C705.662 84.2933 705.209 84.12 704.676 84.12C704.302 84.12 703.996 84.2533 703.756 84.52C703.516 84.76 703.396 85.1067 703.396 85.56C703.396 86.2 703.742 86.7333 704.436 87.16C705.156 87.56 706.289 88.0533 707.836 88.64C709.622 89.3067 711.089 89.9467 712.236 90.56C713.409 91.1733 714.422 92.0267 715.276 93.12C716.129 94.2133 716.556 95.5867 716.556 97.24C716.556 98.9733 716.129 100.533 715.276 101.92C714.422 103.28 713.182 104.347 711.556 105.12C709.929 105.893 707.996 106.28 705.756 106.28ZM733.716 98.44V106H730.356C724.169 106 721.076 102.92 721.076 96.76V90.84H718.276V83.44H721.076V78H729.956V83.44H733.636V90.84H729.956V96.92C729.956 97.4533 730.076 97.84 730.316 98.08C730.582 98.32 731.009 98.44 731.596 98.44H733.716ZM735.898 94.72C735.898 92.3467 736.298 90.2933 737.098 88.56C737.924 86.8 739.044 85.4667 740.458 84.56C741.871 83.6267 743.458 83.16 745.218 83.16C746.684 83.16 747.951 83.4667 749.018 84.08C750.084 84.6667 750.898 85.48 751.458 86.52V83.44H760.298V106H751.458V102.92C750.898 103.96 750.084 104.787 749.018 105.4C747.951 105.987 746.684 106.28 745.218 106.28C743.458 106.28 741.871 105.827 740.458 104.92C739.044 103.987 737.924 102.653 737.098 100.92C736.298 99.16 735.898 97.0933 735.898 94.72ZM751.458 94.72C751.458 93.52 751.151 92.5867 750.538 91.92C749.924 91.2533 749.138 90.92 748.178 90.92C747.218 90.92 746.431 91.2533 745.818 91.92C745.204 92.5867 744.898 93.52 744.898 94.72C744.898 95.92 745.204 96.8533 745.818 97.52C746.431 98.1867 747.218 98.52 748.178 98.52C749.138 98.52 749.924 98.1867 750.538 97.52C751.151 96.8533 751.458 95.92 751.458 94.72ZM773.165 87.6C774.072 86.2933 775.178 85.2533 776.485 84.48C777.792 83.68 779.152 83.28 780.565 83.28V92.76H778.045C776.365 92.76 775.125 93.0533 774.325 93.64C773.552 94.2267 773.165 95.2667 773.165 96.76V106H764.285V83.44H773.165V87.6ZM796.997 98.44V106H793.637C787.45 106 784.357 102.92 784.357 96.76V90.84H781.557V83.44H784.357V78H793.237V83.44H796.917V90.84H793.237V96.92C793.237 97.4533 793.357 97.84 793.597 98.08C793.864 98.32 794.29 98.44 794.877 98.44H796.997ZM822.219 94.52C822.219 95.1333 822.179 95.72 822.099 96.28H807.819C807.952 98.2267 808.766 99.2 810.259 99.2C811.219 99.2 811.912 98.76 812.339 97.88H821.739C821.419 99.48 820.739 100.92 819.699 102.2C818.686 103.453 817.392 104.453 815.819 105.2C814.272 105.92 812.566 106.28 810.699 106.28C808.459 106.28 806.459 105.813 804.699 104.88C802.966 103.947 801.606 102.613 800.619 100.88C799.659 99.12 799.179 97.0667 799.179 94.72C799.179 92.3733 799.659 90.3333 800.619 88.6C801.606 86.84 802.966 85.4933 804.699 84.56C806.459 83.6267 808.459 83.16 810.699 83.16C812.939 83.16 814.926 83.6267 816.659 84.56C818.419 85.4667 819.779 86.7733 820.739 88.48C821.726 90.1867 822.219 92.2 822.219 94.52ZM813.219 92.4C813.219 91.6533 812.979 91.0933 812.499 90.72C812.019 90.32 811.419 90.12 810.699 90.12C809.126 90.12 808.206 90.88 807.939 92.4H813.219ZM833.907 87.6C834.814 86.2933 835.921 85.2533 837.227 84.48C838.534 83.68 839.894 83.28 841.307 83.28V92.76H838.787C837.107 92.76 835.867 93.0533 835.067 93.64C834.294 94.2267 833.907 95.2667 833.907 96.76V106H825.027V83.44H833.907V87.6Z" fill="white"/>
<path d="M149.976 244.4V241.08H157.496V270H153.816V244.4H149.976ZM165.508 270.24C164.815 270.24 164.228 270 163.748 269.52C163.268 269.04 163.028 268.453 163.028 267.76C163.028 267.067 163.268 266.48 163.748 266C164.228 265.52 164.815 265.28 165.508 265.28C166.175 265.28 166.735 265.52 167.188 266C167.668 266.48 167.908 267.067 167.908 267.76C167.908 268.453 167.668 269.04 167.188 269.52C166.735 270 166.175 270.24 165.508 270.24ZM194.76 242.12C197.8 242.12 200.427 242.693 202.64 243.84C204.88 244.96 206.587 246.573 207.76 248.68C208.96 250.787 209.56 253.267 209.56 256.12C209.56 258.973 208.96 261.453 207.76 263.56C206.587 265.64 204.88 267.24 202.64 268.36C200.427 269.453 197.8 270 194.76 270H186.08V242.12H194.76ZM194.76 267C198.36 267 201.107 266.053 203 264.16C204.893 262.24 205.84 259.56 205.84 256.12C205.84 252.653 204.88 249.947 202.96 248C201.067 246.053 198.333 245.08 194.76 245.08H189.72V267H194.76ZM223.921 270.36C221.868 270.36 220.001 269.893 218.321 268.96C216.668 268.027 215.361 266.707 214.401 265C213.468 263.267 213.001 261.267 213.001 259C213.001 256.76 213.481 254.787 214.441 253.08C215.428 251.347 216.761 250.027 218.441 249.12C220.121 248.187 222.001 247.72 224.081 247.72C226.161 247.72 228.041 248.187 229.721 249.12C231.401 250.027 232.721 251.333 233.681 253.04C234.668 254.747 235.161 256.733 235.161 259C235.161 261.267 234.655 263.267 233.641 265C232.655 266.707 231.308 268.027 229.601 268.96C227.895 269.893 226.001 270.36 223.921 270.36ZM223.921 267.16C225.228 267.16 226.455 266.853 227.601 266.24C228.748 265.627 229.668 264.707 230.361 263.48C231.081 262.253 231.441 260.76 231.441 259C231.441 257.24 231.095 255.747 230.401 254.52C229.708 253.293 228.801 252.387 227.681 251.8C226.561 251.187 225.348 250.88 224.041 250.88C222.708 250.88 221.481 251.187 220.361 251.8C219.268 252.387 218.388 253.293 217.721 254.52C217.055 255.747 216.721 257.24 216.721 259C216.721 260.787 217.041 262.293 217.681 263.52C218.348 264.747 219.228 265.667 220.321 266.28C221.415 266.867 222.615 267.16 223.921 267.16ZM269.491 248.08L256.291 280.32H252.531L256.851 269.76L248.011 248.08H252.051L258.931 265.84L265.731 248.08H269.491ZM282.71 270.36C280.657 270.36 278.79 269.893 277.11 268.96C275.457 268.027 274.15 266.707 273.19 265C272.257 263.267 271.79 261.267 271.79 259C271.79 256.76 272.27 254.787 273.23 253.08C274.217 251.347 275.55 250.027 277.23 249.12C278.91 248.187 280.79 247.72 282.87 247.72C284.95 247.72 286.83 248.187 288.51 249.12C290.19 250.027 291.51 251.333 292.47 253.04C293.457 254.747 293.95 256.733 293.95 259C293.95 261.267 293.444 263.267 292.43 265C291.444 266.707 290.097 268.027 288.39 268.96C286.684 269.893 284.79 270.36 282.71 270.36ZM282.71 267.16C284.017 267.16 285.244 266.853 286.39 266.24C287.537 265.627 288.457 264.707 289.15 263.48C289.87 262.253 290.23 260.76 290.23 259C290.23 257.24 289.884 255.747 289.19 254.52C288.497 253.293 287.59 252.387 286.47 251.8C285.35 251.187 284.137 250.88 282.83 250.88C281.497 250.88 280.27 251.187 279.15 251.8C278.057 252.387 277.177 253.293 276.51 254.52C275.844 255.747 275.51 257.24 275.51 259C275.51 260.787 275.83 262.293 276.47 263.52C277.137 264.747 278.017 265.667 279.11 266.28C280.204 266.867 281.404 267.16 282.71 267.16ZM318.176 248.08V270H314.536V266.76C313.843 267.88 312.87 268.76 311.616 269.4C310.39 270.013 309.03 270.32 307.536 270.32C305.83 270.32 304.296 269.973 302.936 269.28C301.576 268.56 300.496 267.493 299.696 266.08C298.923 264.667 298.536 262.947 298.536 260.92V248.08H302.136V260.44C302.136 262.6 302.683 264.267 303.776 265.44C304.87 266.587 306.363 267.16 308.256 267.16C310.203 267.16 311.736 266.56 312.856 265.36C313.976 264.16 314.536 262.413 314.536 260.12V248.08H318.176ZM344.026 247.72C345.92 247.72 347.573 248.133 348.986 248.96C350.426 249.787 351.493 250.827 352.186 252.08V248.08H355.866V270.48C355.866 272.48 355.44 274.253 354.586 275.8C353.733 277.373 352.506 278.6 350.906 279.48C349.333 280.36 347.493 280.8 345.386 280.8C342.506 280.8 340.106 280.12 338.186 278.76C336.266 277.4 335.133 275.547 334.786 273.2H338.386C338.786 274.533 339.613 275.6 340.866 276.4C342.12 277.227 343.626 277.64 345.386 277.64C347.386 277.64 349.013 277.013 350.266 275.76C351.546 274.507 352.186 272.747 352.186 270.48V265.88C351.466 267.16 350.4 268.227 348.986 269.08C347.573 269.933 345.92 270.36 344.026 270.36C342.08 270.36 340.306 269.88 338.706 268.92C337.133 267.96 335.893 266.613 334.986 264.88C334.08 263.147 333.626 261.173 333.626 258.96C333.626 256.72 334.08 254.76 334.986 253.08C335.893 251.373 337.133 250.053 338.706 249.12C340.306 248.187 342.08 247.72 344.026 247.72ZM352.186 259C352.186 257.347 351.853 255.907 351.186 254.68C350.52 253.453 349.613 252.52 348.466 251.88C347.346 251.213 346.106 250.88 344.746 250.88C343.386 250.88 342.146 251.2 341.026 251.84C339.906 252.48 339.013 253.413 338.346 254.64C337.68 255.867 337.346 257.307 337.346 258.96C337.346 260.64 337.68 262.107 338.346 263.36C339.013 264.587 339.906 265.533 341.026 266.2C342.146 266.84 343.386 267.16 344.746 267.16C346.106 267.16 347.346 266.84 348.466 266.2C349.613 265.533 350.52 264.587 351.186 263.36C351.853 262.107 352.186 260.653 352.186 259ZM371.578 270.36C369.524 270.36 367.658 269.893 365.978 268.96C364.324 268.027 363.018 266.707 362.058 265C361.124 263.267 360.658 261.267 360.658 259C360.658 256.76 361.138 254.787 362.098 253.08C363.084 251.347 364.418 250.027 366.098 249.12C367.778 248.187 369.658 247.72 371.738 247.72C373.818 247.72 375.698 248.187 377.378 249.12C379.058 250.027 380.378 251.333 381.338 253.04C382.324 254.747 382.818 256.733 382.818 259C382.818 261.267 382.311 263.267 381.298 265C380.311 266.707 378.964 268.027 377.258 268.96C375.551 269.893 373.658 270.36 371.578 270.36ZM371.578 267.16C372.884 267.16 374.111 266.853 375.258 266.24C376.404 265.627 377.324 264.707 378.018 263.48C378.738 262.253 379.098 260.76 379.098 259C379.098 257.24 378.751 255.747 378.058 254.52C377.364 253.293 376.458 252.387 375.338 251.8C374.218 251.187 373.004 250.88 371.698 250.88C370.364 250.88 369.138 251.187 368.018 251.8C366.924 252.387 366.044 253.293 365.378 254.52C364.711 255.747 364.378 257.24 364.378 259C364.378 260.787 364.698 262.293 365.338 263.52C366.004 264.747 366.884 265.667 367.978 266.28C369.071 266.867 370.271 267.16 371.578 267.16ZM395.363 270.36C393.683 270.36 392.177 270.08 390.843 269.52C389.51 268.933 388.457 268.133 387.683 267.12C386.91 266.08 386.483 264.893 386.403 263.56H390.163C390.27 264.653 390.777 265.547 391.683 266.24C392.617 266.933 393.83 267.28 395.323 267.28C396.71 267.28 397.803 266.973 398.603 266.36C399.403 265.747 399.803 264.973 399.803 264.04C399.803 263.08 399.377 262.373 398.523 261.92C397.67 261.44 396.35 260.973 394.563 260.52C392.937 260.093 391.603 259.667 390.563 259.24C389.55 258.787 388.67 258.133 387.923 257.28C387.203 256.4 386.843 255.253 386.843 253.84C386.843 252.72 387.177 251.693 387.843 250.76C388.51 249.827 389.457 249.093 390.683 248.56C391.91 248 393.31 247.72 394.883 247.72C397.31 247.72 399.27 248.333 400.763 249.56C402.257 250.787 403.057 252.467 403.163 254.6H399.523C399.443 253.453 398.977 252.533 398.123 251.84C397.297 251.147 396.177 250.8 394.763 250.8C393.457 250.8 392.417 251.08 391.643 251.64C390.87 252.2 390.483 252.933 390.483 253.84C390.483 254.56 390.71 255.16 391.163 255.64C391.643 256.093 392.23 256.467 392.923 256.76C393.643 257.027 394.63 257.333 395.883 257.68C397.457 258.107 398.737 258.533 399.723 258.96C400.71 259.36 401.55 259.973 402.243 260.8C402.963 261.627 403.337 262.707 403.363 264.04C403.363 265.24 403.03 266.32 402.363 267.28C401.697 268.24 400.75 269 399.523 269.56C398.323 270.093 396.937 270.36 395.363 270.36ZM416.262 270.36C414.582 270.36 413.075 270.08 411.742 269.52C410.409 268.933 409.355 268.133 408.582 267.12C407.809 266.08 407.382 264.893 407.302 263.56H411.062C411.169 264.653 411.675 265.547 412.582 266.24C413.515 266.933 414.729 267.28 416.222 267.28C417.609 267.28 418.702 266.973 419.502 266.36C420.302 265.747 420.702 264.973 420.702 264.04C420.702 263.08 420.275 262.373 419.422 261.92C418.569 261.44 417.249 260.973 415.462 260.52C413.835 260.093 412.502 259.667 411.462 259.24C410.449 258.787 409.569 258.133 408.822 257.28C408.102 256.4 407.742 255.253 407.742 253.84C407.742 252.72 408.075 251.693 408.742 250.76C409.409 249.827 410.355 249.093 411.582 248.56C412.809 248 414.209 247.72 415.782 247.72C418.209 247.72 420.169 248.333 421.662 249.56C423.155 250.787 423.955 252.467 424.062 254.6H420.422C420.342 253.453 419.875 252.533 419.022 251.84C418.195 251.147 417.075 250.8 415.662 250.8C414.355 250.8 413.315 251.08 412.542 251.64C411.769 252.2 411.382 252.933 411.382 253.84C411.382 254.56 411.609 255.16 412.062 255.64C412.542 256.093 413.129 256.467 413.822 256.76C414.542 257.027 415.529 257.333 416.782 257.68C418.355 258.107 419.635 258.533 420.622 258.96C421.609 259.36 422.449 259.973 423.142 260.8C423.862 261.627 424.235 262.707 424.262 264.04C424.262 265.24 423.929 266.32 423.262 267.28C422.595 268.24 421.649 269 420.422 269.56C419.222 270.093 417.835 270.36 416.262 270.36ZM431.28 244.52C430.587 244.52 430 244.28 429.52 243.8C429.04 243.32 428.8 242.733 428.8 242.04C428.8 241.347 429.04 240.76 429.52 240.28C430 239.8 430.587 239.56 431.28 239.56C431.947 239.56 432.507 239.8 432.96 240.28C433.44 240.76 433.68 241.347 433.68 242.04C433.68 242.733 433.44 243.32 432.96 243.8C432.507 244.28 431.947 244.52 431.28 244.52ZM433.04 248.08V270H429.4V248.08H433.04ZM442.884 252.12C443.604 250.867 444.671 249.827 446.084 249C447.524 248.147 449.191 247.72 451.084 247.72C453.031 247.72 454.791 248.187 456.364 249.12C457.964 250.053 459.217 251.373 460.124 253.08C461.031 254.76 461.484 256.72 461.484 258.96C461.484 261.173 461.031 263.147 460.124 264.88C459.217 266.613 457.964 267.96 456.364 268.92C454.791 269.88 453.031 270.36 451.084 270.36C449.217 270.36 447.564 269.947 446.124 269.12C444.711 268.267 443.631 267.213 442.884 265.96V280.4H439.244V248.08H442.884V252.12ZM457.764 258.96C457.764 257.307 457.431 255.867 456.764 254.64C456.097 253.413 455.191 252.48 454.044 251.84C452.924 251.2 451.684 250.88 450.324 250.88C448.991 250.88 447.751 251.213 446.604 251.88C445.484 252.52 444.577 253.467 443.884 254.72C443.217 255.947 442.884 257.373 442.884 259C442.884 260.653 443.217 262.107 443.884 263.36C444.577 264.587 445.484 265.533 446.604 266.2C447.751 266.84 448.991 267.16 450.324 267.16C451.684 267.16 452.924 266.84 454.044 266.2C455.191 265.533 456.097 264.587 456.764 263.36C457.431 262.107 457.764 260.64 457.764 258.96ZM506.139 248.08L499.299 270H495.539L490.259 252.6L484.979 270H481.219L474.339 248.08H478.059L483.099 266.48L488.539 248.08H492.259L497.579 266.52L502.539 248.08H506.139ZM511.632 244.52C510.939 244.52 510.352 244.28 509.872 243.8C509.392 243.32 509.152 242.733 509.152 242.04C509.152 241.347 509.392 240.76 509.872 240.28C510.352 239.8 510.939 239.56 511.632 239.56C512.299 239.56 512.859 239.8 513.312 240.28C513.792 240.76 514.032 241.347 514.032 242.04C514.032 242.733 513.792 243.32 513.312 243.8C512.859 244.28 512.299 244.52 511.632 244.52ZM513.392 248.08V270H509.752V248.08H513.392ZM524.036 251.08V264C524.036 265.067 524.262 265.827 524.716 266.28C525.169 266.707 525.956 266.92 527.076 266.92H529.756V270H526.476C524.449 270 522.929 269.533 521.916 268.6C520.902 267.667 520.396 266.133 520.396 264V251.08H517.556V248.08H520.396V242.56H524.036V248.08H529.756V251.08H524.036ZM545.046 247.68C546.699 247.68 548.193 248.04 549.526 248.76C550.859 249.453 551.899 250.507 552.646 251.92C553.419 253.333 553.806 255.053 553.806 257.08V270H550.206V257.6C550.206 255.413 549.659 253.747 548.566 252.6C547.473 251.427 545.979 250.84 544.086 250.84C542.166 250.84 540.633 251.44 539.486 252.64C538.366 253.84 537.806 255.587 537.806 257.88V270H534.166V240.4H537.806V251.2C538.526 250.08 539.513 249.213 540.766 248.6C542.046 247.987 543.473 247.68 545.046 247.68ZM589.296 248.08L576.096 280.32H572.336L576.656 269.76L567.816 248.08H571.856L578.736 265.84L585.536 248.08H589.296ZM602.515 270.36C600.462 270.36 598.595 269.893 596.915 268.96C595.262 268.027 593.955 266.707 592.995 265C592.062 263.267 591.595 261.267 591.595 259C591.595 256.76 592.075 254.787 593.035 253.08C594.022 251.347 595.355 250.027 597.035 249.12C598.715 248.187 600.595 247.72 602.675 247.72C604.755 247.72 606.635 248.187 608.315 249.12C609.995 250.027 611.315 251.333 612.275 253.04C613.262 254.747 613.755 256.733 613.755 259C613.755 261.267 613.248 263.267 612.235 265C611.248 266.707 609.902 268.027 608.195 268.96C606.488 269.893 604.595 270.36 602.515 270.36ZM602.515 267.16C603.822 267.16 605.048 266.853 606.195 266.24C607.342 265.627 608.262 264.707 608.955 263.48C609.675 262.253 610.035 260.76 610.035 259C610.035 257.24 609.688 255.747 608.995 254.52C608.302 253.293 607.395 252.387 606.275 251.8C605.155 251.187 603.942 250.88 602.635 250.88C601.302 250.88 600.075 251.187 598.955 251.8C597.862 252.387 596.982 253.293 596.315 254.52C595.648 255.747 595.315 257.24 595.315 259C595.315 260.787 595.635 262.293 596.275 263.52C596.942 264.747 597.822 265.667 598.915 266.28C600.008 266.867 601.208 267.16 602.515 267.16ZM637.981 248.08V270H634.341V266.76C633.648 267.88 632.674 268.76 631.421 269.4C630.194 270.013 628.834 270.32 627.341 270.32C625.634 270.32 624.101 269.973 622.741 269.28C621.381 268.56 620.301 267.493 619.501 266.08C618.728 264.667 618.341 262.947 618.341 260.92V248.08H621.941V260.44C621.941 262.6 622.488 264.267 623.581 265.44C624.674 266.587 626.168 267.16 628.061 267.16C630.008 267.16 631.541 266.56 632.661 265.36C633.781 264.16 634.341 262.413 634.341 260.12V248.08H637.981ZM647.767 251.64C648.407 250.387 649.314 249.413 650.487 248.72C651.687 248.027 653.14 247.68 654.847 247.68V251.44H653.887C649.807 251.44 647.767 253.653 647.767 258.08V270H644.127V248.08H647.767V251.64ZM678.633 251.08H674.033V270H670.393V251.08H667.553V248.08H670.393V246.52C670.393 244.067 671.019 242.28 672.273 241.16C673.553 240.013 675.593 239.44 678.393 239.44V242.48C676.793 242.48 675.659 242.8 674.993 243.44C674.353 244.053 674.033 245.08 674.033 246.52V248.08H678.633V251.08ZM686.517 251.64C687.157 250.387 688.064 249.413 689.237 248.72C690.437 248.027 691.89 247.68 693.597 247.68V251.44H692.637C688.557 251.44 686.517 253.653 686.517 258.08V270H682.877V248.08H686.517V251.64ZM699.679 244.52C698.985 244.52 698.399 244.28 697.919 243.8C697.439 243.32 697.199 242.733 697.199 242.04C697.199 241.347 697.439 240.76 697.919 240.28C698.399 239.8 698.985 239.56 699.679 239.56C700.345 239.56 700.905 239.8 701.359 240.28C701.839 240.76 702.079 241.347 702.079 242.04C702.079 242.733 701.839 243.32 701.359 243.8C700.905 244.28 700.345 244.52 699.679 244.52ZM701.439 248.08V270H697.799V248.08H701.439ZM727.643 258.2C727.643 258.893 727.603 259.627 727.523 260.4H710.003C710.136 262.56 710.869 264.253 712.203 265.48C713.563 266.68 715.203 267.28 717.123 267.28C718.696 267.28 720.003 266.92 721.043 266.2C722.109 265.453 722.856 264.467 723.283 263.24H727.203C726.616 265.347 725.443 267.067 723.683 268.4C721.923 269.707 719.736 270.36 717.123 270.36C715.043 270.36 713.176 269.893 711.523 268.96C709.896 268.027 708.616 266.707 707.683 265C706.749 263.267 706.283 261.267 706.283 259C706.283 256.733 706.736 254.747 707.643 253.04C708.549 251.333 709.816 250.027 711.443 249.12C713.096 248.187 714.989 247.72 717.123 247.72C719.203 247.72 721.043 248.173 722.643 249.08C724.243 249.987 725.469 251.24 726.323 252.84C727.203 254.413 727.643 256.2 727.643 258.2ZM723.883 257.44C723.883 256.053 723.576 254.867 722.963 253.88C722.349 252.867 721.509 252.107 720.443 251.6C719.403 251.067 718.243 250.8 716.963 250.8C715.123 250.8 713.549 251.387 712.243 252.56C710.963 253.733 710.229 255.36 710.043 257.44H723.883ZM743.127 247.68C745.794 247.68 747.954 248.493 749.607 250.12C751.261 251.72 752.087 254.04 752.087 257.08V270H748.487V257.6C748.487 255.413 747.941 253.747 746.847 252.6C745.754 251.427 744.261 250.84 742.367 250.84C740.447 250.84 738.914 251.44 737.767 252.64C736.647 253.84 736.087 255.587 736.087 257.88V270H732.447V248.08H736.087V251.2C736.807 250.08 737.781 249.213 739.007 248.6C740.261 247.987 741.634 247.68 743.127 247.68ZM756.673 258.96C756.673 256.72 757.126 254.76 758.033 253.08C758.94 251.373 760.18 250.053 761.753 249.12C763.353 248.187 765.14 247.72 767.113 247.72C768.82 247.72 770.406 248.12 771.873 248.92C773.34 249.693 774.46 250.72 775.233 252V240.4H778.913V270H775.233V265.88C774.513 267.187 773.446 268.267 772.033 269.12C770.62 269.947 768.966 270.36 767.073 270.36C765.126 270.36 763.353 269.88 761.753 268.92C760.18 267.96 758.94 266.613 758.033 264.88C757.126 263.147 756.673 261.173 756.673 258.96ZM775.233 259C775.233 257.347 774.9 255.907 774.233 254.68C773.566 253.453 772.66 252.52 771.513 251.88C770.393 251.213 769.153 250.88 767.793 250.88C766.433 250.88 765.193 251.2 764.073 251.84C762.953 252.48 762.06 253.413 761.393 254.64C760.726 255.867 760.393 257.307 760.393 258.96C760.393 260.64 760.726 262.107 761.393 263.36C762.06 264.587 762.953 265.533 764.073 266.2C765.193 266.84 766.433 267.16 767.793 267.16C769.153 267.16 770.393 266.84 771.513 266.2C772.66 265.533 773.566 264.587 774.233 263.36C774.9 262.107 775.233 260.653 775.233 259ZM792.824 270.36C791.144 270.36 789.638 270.08 788.304 269.52C786.971 268.933 785.918 268.133 785.144 267.12C784.371 266.08 783.944 264.893 783.864 263.56H787.624C787.731 264.653 788.238 265.547 789.144 266.24C790.078 266.933 791.291 267.28 792.784 267.28C794.171 267.28 795.264 266.973 796.064 266.36C796.864 265.747 797.264 264.973 797.264 264.04C797.264 263.08 796.838 262.373 795.984 261.92C795.131 261.44 793.811 260.973 792.024 260.52C790.398 260.093 789.064 259.667 788.024 259.24C787.011 258.787 786.131 258.133 785.384 257.28C784.664 256.4 784.304 255.253 784.304 253.84C784.304 252.72 784.638 251.693 785.304 250.76C785.971 249.827 786.918 249.093 788.144 248.56C789.371 248 790.771 247.72 792.344 247.72C794.771 247.72 796.731 248.333 798.224 249.56C799.718 250.787 800.518 252.467 800.624 254.6H796.984C796.904 253.453 796.438 252.533 795.584 251.84C794.758 251.147 793.638 250.8 792.224 250.8C790.918 250.8 789.878 251.08 789.104 251.64C788.331 252.2 787.944 252.933 787.944 253.84C787.944 254.56 788.171 255.16 788.624 255.64C789.104 256.093 789.691 256.467 790.384 256.76C791.104 257.027 792.091 257.333 793.344 257.68C794.918 258.107 796.198 258.533 797.184 258.96C798.171 259.36 799.011 259.973 799.704 260.8C800.424 261.627 800.798 262.707 800.824 264.04C800.824 265.24 800.491 266.32 799.824 267.28C799.158 268.24 798.211 269 796.984 269.56C795.784 270.093 794.398 270.36 792.824 270.36ZM813.083 241.76C815.723 241.76 817.856 242.507 819.483 244C821.109 245.493 821.923 247.493 821.923 250C821.923 252.8 821.056 254.88 819.323 256.24C817.589 257.573 815.243 258.24 812.283 258.24L812.163 262.04H809.003L808.843 255.72H810.003C812.643 255.72 814.709 255.32 816.203 254.52C817.696 253.72 818.443 252.213 818.443 250C818.443 248.4 817.963 247.133 817.003 246.2C816.043 245.267 814.749 244.8 813.123 244.8C811.469 244.8 810.163 245.253 809.203 246.16C808.269 247.04 807.803 248.253 807.803 249.8H804.363C804.363 248.2 804.723 246.8 805.443 245.6C806.163 244.373 807.176 243.427 808.483 242.76C809.816 242.093 811.349 241.76 813.083 241.76ZM810.563 270.24C809.869 270.24 809.283 270 808.803 269.52C808.323 269.04 808.083 268.453 808.083 267.76C808.083 267.067 808.323 266.48 808.803 266C809.283 265.52 809.869 265.28 810.563 265.28C811.229 265.28 811.789 265.52 812.243 266C812.723 266.48 812.963 267.067 812.963 267.76C812.963 268.453 812.723 269.04 812.243 269.52C811.789 270 811.229 270.24 810.563 270.24ZM140.301 347.08C143.687 344.36 146.341 342.133 148.261 340.4C150.181 338.64 151.794 336.813 153.101 334.92C154.434 333 155.101 331.12 155.101 329.28C155.101 327.547 154.674 326.187 153.821 325.2C152.994 324.187 151.647 323.68 149.781 323.68C147.967 323.68 146.554 324.253 145.541 325.4C144.554 326.52 144.021 328.027 143.941 329.92H140.421C140.527 326.933 141.434 324.627 143.141 323C144.847 321.373 147.047 320.56 149.741 320.56C152.487 320.56 154.661 321.32 156.261 322.84C157.887 324.36 158.701 326.453 158.701 329.12C158.701 331.333 158.034 333.493 156.701 335.6C155.394 337.68 153.901 339.52 152.221 341.12C150.541 342.693 148.394 344.533 145.781 346.64H159.541V349.68H140.301V347.08ZM165.508 350.24C164.815 350.24 164.228 350 163.748 349.52C163.268 349.04 163.028 348.453 163.028 347.76C163.028 347.067 163.268 346.48 163.748 346C164.228 345.52 164.815 345.28 165.508 345.28C166.175 345.28 166.735 345.52 167.188 346C167.668 346.48 167.908 347.067 167.908 347.76C167.908 348.453 167.668 349.04 167.188 349.52C166.735 350 166.175 350.24 165.508 350.24ZM189.72 322.12V350H186.08V322.12H189.72ZM203.684 350.36C202.004 350.36 200.497 350.08 199.164 349.52C197.83 348.933 196.777 348.133 196.004 347.12C195.23 346.08 194.804 344.893 194.724 343.56H198.484C198.59 344.653 199.097 345.547 200.004 346.24C200.937 346.933 202.15 347.28 203.644 347.28C205.03 347.28 206.124 346.973 206.924 346.36C207.724 345.747 208.124 344.973 208.124 344.04C208.124 343.08 207.697 342.373 206.844 341.92C205.99 341.44 204.67 340.973 202.884 340.52C201.257 340.093 199.924 339.667 198.884 339.24C197.87 338.787 196.99 338.133 196.244 337.28C195.524 336.4 195.164 335.253 195.164 333.84C195.164 332.72 195.497 331.693 196.164 330.76C196.83 329.827 197.777 329.093 199.004 328.56C200.23 328 201.63 327.72 203.204 327.72C205.63 327.72 207.59 328.333 209.084 329.56C210.577 330.787 211.377 332.467 211.484 334.6H207.844C207.764 333.453 207.297 332.533 206.444 331.84C205.617 331.147 204.497 330.8 203.084 330.8C201.777 330.8 200.737 331.08 199.964 331.64C199.19 332.2 198.804 332.933 198.804 333.84C198.804 334.56 199.03 335.16 199.484 335.64C199.964 336.093 200.55 336.467 201.244 336.76C201.964 337.027 202.95 337.333 204.204 337.68C205.777 338.107 207.057 338.533 208.044 338.96C209.03 339.36 209.87 339.973 210.564 340.8C211.284 341.627 211.657 342.707 211.684 344.04C211.684 345.24 211.35 346.32 210.684 347.28C210.017 348.24 209.07 349 207.844 349.56C206.644 350.093 205.257 350.36 203.684 350.36ZM236.526 327.72C238.42 327.72 240.073 328.133 241.486 328.96C242.926 329.787 243.993 330.827 244.686 332.08V328.08H248.366V350.48C248.366 352.48 247.94 354.253 247.086 355.8C246.233 357.373 245.006 358.6 243.406 359.48C241.833 360.36 239.993 360.8 237.886 360.8C235.006 360.8 232.606 360.12 230.686 358.76C228.766 357.4 227.633 355.547 227.286 353.2H230.886C231.286 354.533 232.113 355.6 233.366 356.4C234.62 357.227 236.126 357.64 237.886 357.64C239.886 357.64 241.513 357.013 242.766 355.76C244.046 354.507 244.686 352.747 244.686 350.48V345.88C243.966 347.16 242.9 348.227 241.486 349.08C240.073 349.933 238.42 350.36 236.526 350.36C234.58 350.36 232.806 349.88 231.206 348.92C229.633 347.96 228.393 346.613 227.486 344.88C226.58 343.147 226.126 341.173 226.126 338.96C226.126 336.72 226.58 334.76 227.486 333.08C228.393 331.373 229.633 330.053 231.206 329.12C232.806 328.187 234.58 327.72 236.526 327.72ZM244.686 339C244.686 337.347 244.353 335.907 243.686 334.68C243.02 333.453 242.113 332.52 240.966 331.88C239.846 331.213 238.606 330.88 237.246 330.88C235.886 330.88 234.646 331.2 233.526 331.84C232.406 332.48 231.513 333.413 230.846 334.64C230.18 335.867 229.846 337.307 229.846 338.96C229.846 340.64 230.18 342.107 230.846 343.36C231.513 344.587 232.406 345.533 233.526 346.2C234.646 346.84 235.886 347.16 237.246 347.16C238.606 347.16 239.846 346.84 240.966 346.2C242.113 345.533 243.02 344.587 243.686 343.36C244.353 342.107 244.686 340.653 244.686 339ZM264.078 350.36C262.024 350.36 260.158 349.893 258.478 348.96C256.824 348.027 255.518 346.707 254.558 345C253.624 343.267 253.158 341.267 253.158 339C253.158 336.76 253.638 334.787 254.598 333.08C255.584 331.347 256.918 330.027 258.598 329.12C260.278 328.187 262.158 327.72 264.238 327.72C266.318 327.72 268.198 328.187 269.878 329.12C271.558 330.027 272.878 331.333 273.838 333.04C274.824 334.747 275.318 336.733 275.318 339C275.318 341.267 274.811 343.267 273.798 345C272.811 346.707 271.464 348.027 269.758 348.96C268.051 349.893 266.158 350.36 264.078 350.36ZM264.078 347.16C265.384 347.16 266.611 346.853 267.758 346.24C268.904 345.627 269.824 344.707 270.518 343.48C271.238 342.253 271.598 340.76 271.598 339C271.598 337.24 271.251 335.747 270.558 334.52C269.864 333.293 268.958 332.387 267.838 331.8C266.718 331.187 265.504 330.88 264.198 330.88C262.864 330.88 261.638 331.187 260.518 331.8C259.424 332.387 258.544 333.293 257.878 334.52C257.211 335.747 256.878 337.24 256.878 339C256.878 340.787 257.198 342.293 257.838 343.52C258.504 344.747 259.384 345.667 260.478 346.28C261.571 346.867 262.771 347.16 264.078 347.16ZM287.863 350.36C286.183 350.36 284.677 350.08 283.343 349.52C282.01 348.933 280.957 348.133 280.183 347.12C279.41 346.08 278.983 344.893 278.903 343.56H282.663C282.77 344.653 283.277 345.547 284.183 346.24C285.117 346.933 286.33 347.28 287.823 347.28C289.21 347.28 290.303 346.973 291.103 346.36C291.903 345.747 292.303 344.973 292.303 344.04C292.303 343.08 291.877 342.373 291.023 341.92C290.17 341.44 288.85 340.973 287.063 340.52C285.437 340.093 284.103 339.667 283.063 339.24C282.05 338.787 281.17 338.133 280.423 337.28C279.703 336.4 279.343 335.253 279.343 333.84C279.343 332.72 279.677 331.693 280.343 330.76C281.01 329.827 281.957 329.093 283.183 328.56C284.41 328 285.81 327.72 287.383 327.72C289.81 327.72 291.77 328.333 293.263 329.56C294.757 330.787 295.557 332.467 295.663 334.6H292.023C291.943 333.453 291.477 332.533 290.623 331.84C289.797 331.147 288.677 330.8 287.263 330.8C285.957 330.8 284.917 331.08 284.143 331.64C283.37 332.2 282.983 332.933 282.983 333.84C282.983 334.56 283.21 335.16 283.663 335.64C284.143 336.093 284.73 336.467 285.423 336.76C286.143 337.027 287.13 337.333 288.383 337.68C289.957 338.107 291.237 338.533 292.223 338.96C293.21 339.36 294.05 339.973 294.743 340.8C295.463 341.627 295.837 342.707 295.863 344.04C295.863 345.24 295.53 346.32 294.863 347.28C294.197 348.24 293.25 349 292.023 349.56C290.823 350.093 289.437 350.36 287.863 350.36ZM308.762 350.36C307.082 350.36 305.575 350.08 304.242 349.52C302.909 348.933 301.855 348.133 301.082 347.12C300.309 346.08 299.882 344.893 299.802 343.56H303.562C303.669 344.653 304.175 345.547 305.082 346.24C306.015 346.933 307.229 347.28 308.722 347.28C310.109 347.28 311.202 346.973 312.002 346.36C312.802 345.747 313.202 344.973 313.202 344.04C313.202 343.08 312.775 342.373 311.922 341.92C311.069 341.44 309.749 340.973 307.962 340.52C306.335 340.093 305.002 339.667 303.962 339.24C302.949 338.787 302.069 338.133 301.322 337.28C300.602 336.4 300.242 335.253 300.242 333.84C300.242 332.72 300.575 331.693 301.242 330.76C301.909 329.827 302.855 329.093 304.082 328.56C305.309 328 306.709 327.72 308.282 327.72C310.709 327.72 312.669 328.333 314.162 329.56C315.655 330.787 316.455 332.467 316.562 334.6H312.922C312.842 333.453 312.375 332.533 311.522 331.84C310.695 331.147 309.575 330.8 308.162 330.8C306.855 330.8 305.815 331.08 305.042 331.64C304.269 332.2 303.882 332.933 303.882 333.84C303.882 334.56 304.109 335.16 304.562 335.64C305.042 336.093 305.629 336.467 306.322 336.76C307.042 337.027 308.029 337.333 309.282 337.68C310.855 338.107 312.135 338.533 313.122 338.96C314.109 339.36 314.949 339.973 315.642 340.8C316.362 341.627 316.735 342.707 316.762 344.04C316.762 345.24 316.429 346.32 315.762 347.28C315.095 348.24 314.149 349 312.922 349.56C311.722 350.093 310.335 350.36 308.762 350.36ZM323.78 324.52C323.087 324.52 322.5 324.28 322.02 323.8C321.54 323.32 321.3 322.733 321.3 322.04C321.3 321.347 321.54 320.76 322.02 320.28C322.5 319.8 323.087 319.56 323.78 319.56C324.447 319.56 325.007 319.8 325.46 320.28C325.94 320.76 326.18 321.347 326.18 322.04C326.18 322.733 325.94 323.32 325.46 323.8C325.007 324.28 324.447 324.52 323.78 324.52ZM325.54 328.08V350H321.9V328.08H325.54ZM335.384 332.12C336.104 330.867 337.171 329.827 338.584 329C340.024 328.147 341.691 327.72 343.584 327.72C345.531 327.72 347.291 328.187 348.864 329.12C350.464 330.053 351.717 331.373 352.624 333.08C353.531 334.76 353.984 336.72 353.984 338.96C353.984 341.173 353.531 343.147 352.624 344.88C351.717 346.613 350.464 347.96 348.864 348.92C347.291 349.88 345.531 350.36 343.584 350.36C341.717 350.36 340.064 349.947 338.624 349.12C337.211 348.267 336.131 347.213 335.384 345.96V360.4H331.744V328.08H335.384V332.12ZM350.264 338.96C350.264 337.307 349.931 335.867 349.264 334.64C348.597 333.413 347.691 332.48 346.544 331.84C345.424 331.2 344.184 330.88 342.824 330.88C341.491 330.88 340.251 331.213 339.104 331.88C337.984 332.52 337.077 333.467 336.384 334.72C335.717 335.947 335.384 337.373 335.384 339C335.384 340.653 335.717 342.107 336.384 343.36C337.077 344.587 337.984 345.533 339.104 346.2C340.251 346.84 341.491 347.16 342.824 347.16C344.184 347.16 345.424 346.84 346.544 346.2C347.691 345.533 348.597 344.587 349.264 343.36C349.931 342.107 350.264 340.64 350.264 338.96ZM368.079 338.96C368.079 336.72 368.533 334.76 369.439 333.08C370.346 331.373 371.586 330.053 373.159 329.12C374.759 328.187 376.533 327.72 378.479 327.72C380.399 327.72 382.066 328.133 383.479 328.96C384.893 329.787 385.946 330.827 386.639 332.08V328.08H390.319V350H386.639V345.92C385.919 347.2 384.839 348.267 383.399 349.12C381.986 349.947 380.333 350.36 378.439 350.36C376.493 350.36 374.733 349.88 373.159 348.92C371.586 347.96 370.346 346.613 369.439 344.88C368.533 343.147 368.079 341.173 368.079 338.96ZM386.639 339C386.639 337.347 386.306 335.907 385.639 334.68C384.973 333.453 384.066 332.52 382.919 331.88C381.799 331.213 380.559 330.88 379.199 330.88C377.839 330.88 376.599 331.2 375.479 331.84C374.359 332.48 373.466 333.413 372.799 334.64C372.133 335.867 371.799 337.307 371.799 338.96C371.799 340.64 372.133 342.107 372.799 343.36C373.466 344.587 374.359 345.533 375.479 346.2C376.599 346.84 377.839 347.16 379.199 347.16C380.559 347.16 381.799 346.84 382.919 346.2C384.066 345.533 384.973 344.587 385.639 343.36C386.306 342.107 386.639 340.653 386.639 339ZM410.775 332.16C411.521 330.853 412.615 329.787 414.055 328.96C415.495 328.133 417.135 327.72 418.975 327.72C420.948 327.72 422.721 328.187 424.295 329.12C425.868 330.053 427.108 331.373 428.015 333.08C428.921 334.76 429.375 336.72 429.375 338.96C429.375 341.173 428.921 343.147 428.015 344.88C427.108 346.613 425.855 347.96 424.255 348.92C422.681 349.88 420.921 350.36 418.975 350.36C417.081 350.36 415.415 349.947 413.975 349.12C412.561 348.293 411.495 347.24 410.775 345.96V350H407.135V320.4H410.775V332.16ZM425.655 338.96C425.655 337.307 425.321 335.867 424.655 334.64C423.988 333.413 423.081 332.48 421.935 331.84C420.815 331.2 419.575 330.88 418.215 330.88C416.881 330.88 415.641 331.213 414.495 331.88C413.375 332.52 412.468 333.467 411.775 334.72C411.108 335.947 410.775 337.373 410.775 339C410.775 340.653 411.108 342.107 411.775 343.36C412.468 344.587 413.375 345.533 414.495 346.2C415.641 346.84 416.881 347.16 418.215 347.16C419.575 347.16 420.815 346.84 421.935 346.2C423.081 345.533 423.988 344.587 424.655 343.36C425.321 342.107 425.655 340.64 425.655 338.96ZM432.806 338.96C432.806 336.72 433.259 334.76 434.166 333.08C435.073 331.373 436.313 330.053 437.886 329.12C439.486 328.187 441.259 327.72 443.206 327.72C445.126 327.72 446.793 328.133 448.206 328.96C449.619 329.787 450.673 330.827 451.366 332.08V328.08H455.046V350H451.366V345.92C450.646 347.2 449.566 348.267 448.126 349.12C446.713 349.947 445.059 350.36 443.166 350.36C441.219 350.36 439.459 349.88 437.886 348.92C436.313 347.96 435.073 346.613 434.166 344.88C433.259 343.147 432.806 341.173 432.806 338.96ZM451.366 339C451.366 337.347 451.033 335.907 450.366 334.68C449.699 333.453 448.793 332.52 447.646 331.88C446.526 331.213 445.286 330.88 443.926 330.88C442.566 330.88 441.326 331.2 440.206 331.84C439.086 332.48 438.193 333.413 437.526 334.64C436.859 335.867 436.526 337.307 436.526 338.96C436.526 340.64 436.859 342.107 437.526 343.36C438.193 344.587 439.086 345.533 440.206 346.2C441.326 346.84 442.566 347.16 443.926 347.16C445.286 347.16 446.526 346.84 447.646 346.2C448.793 345.533 449.699 344.587 450.366 343.36C451.033 342.107 451.366 340.653 451.366 339ZM459.837 338.96C459.837 336.72 460.291 334.76 461.197 333.08C462.104 331.373 463.344 330.053 464.917 329.12C466.517 328.187 468.304 327.72 470.277 327.72C471.984 327.72 473.571 328.12 475.037 328.92C476.504 329.693 477.624 330.72 478.397 332V320.4H482.077V350H478.397V345.88C477.677 347.187 476.611 348.267 475.197 349.12C473.784 349.947 472.131 350.36 470.237 350.36C468.291 350.36 466.517 349.88 464.917 348.92C463.344 347.96 462.104 346.613 461.197 344.88C460.291 343.147 459.837 341.173 459.837 338.96ZM478.397 339C478.397 337.347 478.064 335.907 477.397 334.68C476.731 333.453 475.824 332.52 474.677 331.88C473.557 331.213 472.317 330.88 470.957 330.88C469.597 330.88 468.357 331.2 467.237 331.84C466.117 332.48 465.224 333.413 464.557 334.64C463.891 335.867 463.557 337.307 463.557 338.96C463.557 340.64 463.891 342.107 464.557 343.36C465.224 344.587 466.117 345.533 467.237 346.2C468.357 346.84 469.597 347.16 470.957 347.16C472.317 347.16 473.557 346.84 474.677 346.2C475.824 345.533 476.731 344.587 477.397 343.36C478.064 342.107 478.397 340.653 478.397 339ZM503.333 331.08V344C503.333 345.067 503.559 345.827 504.013 346.28C504.466 346.707 505.253 346.92 506.372 346.92H509.053V350H505.773C503.746 350 502.226 349.533 501.213 348.6C500.199 347.667 499.693 346.133 499.693 344V331.08H496.853V328.08H499.693V322.56H503.333V328.08H509.053V331.08H503.333ZM524.343 327.68C525.996 327.68 527.489 328.04 528.823 328.76C530.156 329.453 531.196 330.507 531.943 331.92C532.716 333.333 533.103 335.053 533.103 337.08V350H529.503V337.6C529.503 335.413 528.956 333.747 527.863 332.6C526.769 331.427 525.276 330.84 523.383 330.84C521.463 330.84 519.929 331.44 518.783 332.64C517.663 333.84 517.103 335.587 517.103 337.88V350H513.463V320.4H517.103V331.2C517.823 330.08 518.809 329.213 520.063 328.6C521.343 327.987 522.769 327.68 524.343 327.68ZM540.929 324.52C540.235 324.52 539.649 324.28 539.169 323.8C538.689 323.32 538.449 322.733 538.449 322.04C538.449 321.347 538.689 320.76 539.169 320.28C539.649 319.8 540.235 319.56 540.929 319.56C541.595 319.56 542.155 319.8 542.609 320.28C543.089 320.76 543.329 321.347 543.329 322.04C543.329 322.733 543.089 323.32 542.609 323.8C542.155 324.28 541.595 324.52 540.929 324.52ZM542.689 328.08V350H539.049V328.08H542.689ZM559.573 327.68C562.239 327.68 564.399 328.493 566.053 330.12C567.706 331.72 568.533 334.04 568.533 337.08V350H564.933V337.6C564.933 335.413 564.386 333.747 563.293 332.6C562.199 331.427 560.706 330.84 558.813 330.84C556.893 330.84 555.359 331.44 554.213 332.64C553.093 333.84 552.533 335.587 552.533 337.88V350H548.893V328.08H552.533V331.2C553.253 330.08 554.226 329.213 555.453 328.6C556.706 327.987 558.079 327.68 559.573 327.68ZM583.518 327.72C585.412 327.72 587.065 328.133 588.478 328.96C589.918 329.787 590.985 330.827 591.678 332.08V328.08H595.358V350.48C595.358 352.48 594.932 354.253 594.078 355.8C593.225 357.373 591.998 358.6 590.398 359.48C588.825 360.36 586.985 360.8 584.878 360.8C581.998 360.8 579.598 360.12 577.678 358.76C575.758 357.4 574.625 355.547 574.278 353.2H577.878C578.278 354.533 579.105 355.6 580.358 356.4C581.612 357.227 583.118 357.64 584.878 357.64C586.878 357.64 588.505 357.013 589.758 355.76C591.038 354.507 591.678 352.747 591.678 350.48V345.88C590.958 347.16 589.892 348.227 588.478 349.08C587.065 349.933 585.412 350.36 583.518 350.36C581.572 350.36 579.798 349.88 578.198 348.92C576.625 347.96 575.385 346.613 574.478 344.88C573.572 343.147 573.118 341.173 573.118 338.96C573.118 336.72 573.572 334.76 574.478 333.08C575.385 331.373 576.625 330.053 578.198 329.12C579.798 328.187 581.572 327.72 583.518 327.72ZM591.678 339C591.678 337.347 591.345 335.907 590.678 334.68C590.012 333.453 589.105 332.52 587.958 331.88C586.838 331.213 585.598 330.88 584.238 330.88C582.878 330.88 581.638 331.2 580.518 331.84C579.398 332.48 578.505 333.413 577.838 334.64C577.172 335.867 576.838 337.307 576.838 338.96C576.838 340.64 577.172 342.107 577.838 343.36C578.505 344.587 579.398 345.533 580.518 346.2C581.638 346.84 582.878 347.16 584.238 347.16C585.598 347.16 586.838 346.84 587.958 346.2C589.105 345.533 590.012 344.587 590.678 343.36C591.345 342.107 591.678 340.653 591.678 339ZM608.63 321.76C611.27 321.76 613.403 322.507 615.03 324C616.656 325.493 617.47 327.493 617.47 330C617.47 332.8 616.603 334.88 614.87 336.24C613.136 337.573 610.79 338.24 607.83 338.24L607.71 342.04H604.55L604.39 335.72H605.55C608.19 335.72 610.256 335.32 611.75 334.52C613.243 333.72 613.99 332.213 613.99 330C613.99 328.4 613.51 327.133 612.55 326.2C611.59 325.267 610.296 324.8 608.67 324.8C607.016 324.8 605.71 325.253 604.75 326.16C603.816 327.04 603.35 328.253 603.35 329.8H599.91C599.91 328.2 600.27 326.8 600.99 325.6C601.71 324.373 602.723 323.427 604.03 322.76C605.363 322.093 606.896 321.76 608.63 321.76ZM606.11 350.24C605.416 350.24 604.83 350 604.35 349.52C603.87 349.04 603.63 348.453 603.63 347.76C603.63 347.067 603.87 346.48 604.35 346C604.83 345.52 605.416 345.28 606.11 345.28C606.776 345.28 607.336 345.52 607.79 346C608.27 346.48 608.51 347.067 608.51 347.76C608.51 348.453 608.27 349.04 607.79 349.52C607.336 350 606.776 350.24 606.11 350.24ZM140.114 408.36C140.3 405.907 141.247 403.987 142.954 402.6C144.66 401.213 146.874 400.52 149.594 400.52C151.407 400.52 152.967 400.853 154.274 401.52C155.607 402.16 156.607 403.04 157.274 404.16C157.967 405.28 158.314 406.547 158.314 407.96C158.314 409.613 157.834 411.04 156.874 412.24C155.94 413.44 154.714 414.213 153.194 414.56V414.76C154.927 415.187 156.3 416.027 157.314 417.28C158.327 418.533 158.834 420.173 158.834 422.2C158.834 423.72 158.487 425.093 157.794 426.32C157.1 427.52 156.06 428.467 154.674 429.16C153.287 429.853 151.62 430.2 149.674 430.2C146.847 430.2 144.527 429.467 142.714 428C140.9 426.507 139.887 424.4 139.674 421.68H143.194C143.38 423.28 144.034 424.587 145.154 425.6C146.274 426.613 147.767 427.12 149.634 427.12C151.5 427.12 152.914 426.64 153.874 425.68C154.86 424.693 155.354 423.427 155.354 421.88C155.354 419.88 154.687 418.44 153.354 417.56C152.02 416.68 150.007 416.24 147.314 416.24H146.394V413.2H147.354C149.807 413.173 151.66 412.773 152.914 412C154.167 411.2 154.794 409.973 154.794 408.32C154.794 406.907 154.327 405.773 153.394 404.92C152.487 404.067 151.18 403.64 149.474 403.64C147.82 403.64 146.487 404.067 145.474 404.92C144.46 405.773 143.86 406.92 143.674 408.36H140.114ZM165.508 430.24C164.815 430.24 164.228 430 163.748 429.52C163.268 429.04 163.028 428.453 163.028 427.76C163.028 427.067 163.268 426.48 163.748 426C164.228 425.52 164.815 425.28 165.508 425.28C166.175 425.28 166.735 425.52 167.188 426C167.668 426.48 167.908 427.067 167.908 427.76C167.908 428.453 167.668 429.04 167.188 429.52C166.735 430 166.175 430.24 165.508 430.24ZM207.56 402.12V430H203.92V417.36H189.72V430H186.08V402.12H189.72V414.36H203.92V402.12H207.56ZM223.335 430.36C221.282 430.36 219.415 429.893 217.735 428.96C216.082 428.027 214.775 426.707 213.815 425C212.882 423.267 212.415 421.267 212.415 419C212.415 416.76 212.895 414.787 213.855 413.08C214.842 411.347 216.175 410.027 217.855 409.12C219.535 408.187 221.415 407.72 223.495 407.72C225.575 407.72 227.455 408.187 229.135 409.12C230.815 410.027 232.135 411.333 233.095 413.04C234.082 414.747 234.575 416.733 234.575 419C234.575 421.267 234.069 423.267 233.055 425C232.069 426.707 230.722 428.027 229.015 428.96C227.309 429.893 225.415 430.36 223.335 430.36ZM223.335 427.16C224.642 427.16 225.869 426.853 227.015 426.24C228.162 425.627 229.082 424.707 229.775 423.48C230.495 422.253 230.855 420.76 230.855 419C230.855 417.24 230.509 415.747 229.815 414.52C229.122 413.293 228.215 412.387 227.095 411.8C225.975 411.187 224.762 410.88 223.455 410.88C222.122 410.88 220.895 411.187 219.775 411.8C218.682 412.387 217.802 413.293 217.135 414.52C216.469 415.747 216.135 417.24 216.135 419C216.135 420.787 216.455 422.293 217.095 423.52C217.762 424.747 218.642 425.667 219.735 426.28C220.829 426.867 222.029 427.16 223.335 427.16ZM268.561 408.08L261.721 430H257.961L252.681 412.6L247.401 430H243.641L236.761 408.08H240.481L245.521 426.48L250.961 408.08H254.681L260.001 426.52L264.961 408.08H268.561ZM281.478 418.96C281.478 416.72 281.931 414.76 282.838 413.08C283.744 411.373 284.984 410.053 286.558 409.12C288.158 408.187 289.944 407.72 291.918 407.72C293.624 407.72 295.211 408.12 296.678 408.92C298.144 409.693 299.264 410.72 300.038 412V400.4H303.718V430H300.038V425.88C299.318 427.187 298.251 428.267 296.838 429.12C295.424 429.947 293.771 430.36 291.878 430.36C289.931 430.36 288.158 429.88 286.558 428.92C284.984 427.96 283.744 426.613 282.838 424.88C281.931 423.147 281.478 421.173 281.478 418.96ZM300.038 419C300.038 417.347 299.704 415.907 299.038 414.68C298.371 413.453 297.464 412.52 296.318 411.88C295.198 411.213 293.958 410.88 292.598 410.88C291.238 410.88 289.998 411.2 288.878 411.84C287.758 412.48 286.864 413.413 286.198 414.64C285.531 415.867 285.198 417.307 285.198 418.96C285.198 420.64 285.531 422.107 286.198 423.36C286.864 424.587 287.758 425.533 288.878 426.2C289.998 426.84 291.238 427.16 292.598 427.16C293.958 427.16 295.198 426.84 296.318 426.2C297.464 425.533 298.371 424.587 299.038 423.36C299.704 422.107 300.038 420.653 300.038 419ZM319.429 430.36C317.376 430.36 315.509 429.893 313.829 428.96C312.176 428.027 310.869 426.707 309.909 425C308.976 423.267 308.509 421.267 308.509 419C308.509 416.76 308.989 414.787 309.949 413.08C310.936 411.347 312.269 410.027 313.949 409.12C315.629 408.187 317.509 407.72 319.589 407.72C321.669 407.72 323.549 408.187 325.229 409.12C326.909 410.027 328.229 411.333 329.189 413.04C330.176 414.747 330.669 416.733 330.669 419C330.669 421.267 330.162 423.267 329.149 425C328.162 426.707 326.816 428.027 325.109 428.96C323.402 429.893 321.509 430.36 319.429 430.36ZM319.429 427.16C320.736 427.16 321.962 426.853 323.109 426.24C324.256 425.627 325.176 424.707 325.869 423.48C326.589 422.253 326.949 420.76 326.949 419C326.949 417.24 326.602 415.747 325.909 414.52C325.216 413.293 324.309 412.387 323.189 411.8C322.069 411.187 320.856 410.88 319.549 410.88C318.216 410.88 316.989 411.187 315.869 411.8C314.776 412.387 313.896 413.293 313.229 414.52C312.562 415.747 312.229 417.24 312.229 419C312.229 420.787 312.549 422.293 313.189 423.52C313.856 424.747 314.736 425.667 315.829 426.28C316.922 426.867 318.122 427.16 319.429 427.16ZM364.999 408.08L351.799 440.32H348.039L352.359 429.76L343.519 408.08H347.559L354.439 425.84L361.239 408.08H364.999ZM378.218 430.36C376.165 430.36 374.298 429.893 372.618 428.96C370.965 428.027 369.658 426.707 368.698 425C367.765 423.267 367.298 421.267 367.298 419C367.298 416.76 367.778 414.787 368.738 413.08C369.725 411.347 371.058 410.027 372.738 409.12C374.418 408.187 376.298 407.72 378.378 407.72C380.458 407.72 382.338 408.187 384.018 409.12C385.698 410.027 387.018 411.333 387.978 413.04C388.965 414.747 389.458 416.733 389.458 419C389.458 421.267 388.951 423.267 387.938 425C386.951 426.707 385.605 428.027 383.898 428.96C382.191 429.893 380.298 430.36 378.218 430.36ZM378.218 427.16C379.525 427.16 380.751 426.853 381.898 426.24C383.045 425.627 383.965 424.707 384.658 423.48C385.378 422.253 385.738 420.76 385.738 419C385.738 417.24 385.391 415.747 384.698 414.52C384.005 413.293 383.098 412.387 381.978 411.8C380.858 411.187 379.645 410.88 378.338 410.88C377.005 410.88 375.778 411.187 374.658 411.8C373.565 412.387 372.685 413.293 372.018 414.52C371.351 415.747 371.018 417.24 371.018 419C371.018 420.787 371.338 422.293 371.978 423.52C372.645 424.747 373.525 425.667 374.618 426.28C375.711 426.867 376.911 427.16 378.218 427.16ZM413.684 408.08V430H410.044V426.76C409.351 427.88 408.377 428.76 407.124 429.4C405.897 430.013 404.537 430.32 403.044 430.32C401.337 430.32 399.804 429.973 398.444 429.28C397.084 428.56 396.004 427.493 395.204 426.08C394.431 424.667 394.044 422.947 394.044 420.92V408.08H397.644V420.44C397.644 422.6 398.191 424.267 399.284 425.44C400.377 426.587 401.871 427.16 403.764 427.16C405.711 427.16 407.244 426.56 408.364 425.36C409.484 424.16 410.044 422.413 410.044 420.12V408.08H413.684ZM434.134 411.64C434.774 410.387 435.681 409.413 436.854 408.72C438.054 408.027 439.507 407.68 441.214 407.68V411.44H440.254C436.174 411.44 434.134 413.653 434.134 418.08V430H430.494V408.08H434.134V411.64ZM465.416 418.2C465.416 418.893 465.376 419.627 465.296 420.4H447.776C447.909 422.56 448.643 424.253 449.976 425.48C451.336 426.68 452.976 427.28 454.896 427.28C456.469 427.28 457.776 426.92 458.816 426.2C459.883 425.453 460.629 424.467 461.056 423.24H464.976C464.389 425.347 463.216 427.067 461.456 428.4C459.696 429.707 457.509 430.36 454.896 430.36C452.816 430.36 450.949 429.893 449.296 428.96C447.669 428.027 446.389 426.707 445.456 425C444.523 423.267 444.056 421.267 444.056 419C444.056 416.733 444.509 414.747 445.416 413.04C446.323 411.333 447.589 410.027 449.216 409.12C450.869 408.187 452.763 407.72 454.896 407.72C456.976 407.72 458.816 408.173 460.416 409.08C462.016 409.987 463.243 411.24 464.096 412.84C464.976 414.413 465.416 416.2 465.416 418.2ZM461.656 417.44C461.656 416.053 461.349 414.867 460.736 413.88C460.123 412.867 459.283 412.107 458.216 411.6C457.176 411.067 456.016 410.8 454.736 410.8C452.896 410.8 451.323 411.387 450.016 412.56C448.736 413.733 448.003 415.36 447.816 417.44H461.656ZM468.861 418.96C468.861 416.72 469.314 414.76 470.221 413.08C471.127 411.373 472.367 410.053 473.941 409.12C475.541 408.187 477.314 407.72 479.261 407.72C481.181 407.72 482.847 408.133 484.261 408.96C485.674 409.787 486.727 410.827 487.421 412.08V408.08H491.101V430H487.421V425.92C486.701 427.2 485.621 428.267 484.181 429.12C482.767 429.947 481.114 430.36 479.221 430.36C477.274 430.36 475.514 429.88 473.941 428.92C472.367 427.96 471.127 426.613 470.221 424.88C469.314 423.147 468.861 421.173 468.861 418.96ZM487.421 419C487.421 417.347 487.087 415.907 486.421 414.68C485.754 413.453 484.847 412.52 483.701 411.88C482.581 411.213 481.341 410.88 479.981 410.88C478.621 410.88 477.381 411.2 476.261 411.84C475.141 412.48 474.247 413.413 473.581 414.64C472.914 415.867 472.581 417.307 472.581 418.96C472.581 420.64 472.914 422.107 473.581 423.36C474.247 424.587 475.141 425.533 476.261 426.2C477.381 426.84 478.621 427.16 479.981 427.16C481.341 427.16 482.581 426.84 483.701 426.2C484.847 425.533 485.754 424.587 486.421 423.36C487.087 422.107 487.421 420.653 487.421 419ZM495.892 419C495.892 416.733 496.345 414.76 497.252 413.08C498.159 411.373 499.412 410.053 501.012 409.12C502.639 408.187 504.492 407.72 506.572 407.72C509.265 407.72 511.479 408.373 513.212 409.68C514.972 410.987 516.132 412.8 516.692 415.12H512.772C512.399 413.787 511.665 412.733 510.572 411.96C509.505 411.187 508.172 410.8 506.572 410.8C504.492 410.8 502.812 411.52 501.532 412.96C500.252 414.373 499.612 416.387 499.612 419C499.612 421.64 500.252 423.68 501.532 425.12C502.812 426.56 504.492 427.28 506.572 427.28C508.172 427.28 509.505 426.907 510.572 426.16C511.639 425.413 512.372 424.347 512.772 422.96H516.692C516.105 425.2 514.932 427 513.172 428.36C511.412 429.693 509.212 430.36 506.572 430.36C504.492 430.36 502.639 429.893 501.012 428.96C499.412 428.027 498.159 426.707 497.252 425C496.345 423.293 495.892 421.293 495.892 419ZM525.989 411.08V424C525.989 425.067 526.215 425.827 526.669 426.28C527.122 426.707 527.909 426.92 529.029 426.92H531.709V430H528.429C526.402 430 524.882 429.533 523.869 428.6C522.855 427.667 522.349 426.133 522.349 424V411.08H519.509V408.08H522.349V402.56H525.989V408.08H531.709V411.08H525.989ZM575.983 408.08L569.143 430H565.383L560.103 412.6L554.823 430H551.063L544.183 408.08H547.903L552.943 426.48L558.383 408.08H562.103L567.423 426.52L572.383 408.08H575.983ZM590.476 407.68C592.129 407.68 593.622 408.04 594.956 408.76C596.289 409.453 597.329 410.507 598.076 411.92C598.849 413.333 599.236 415.053 599.236 417.08V430H595.636V417.6C595.636 415.413 595.089 413.747 593.996 412.6C592.902 411.427 591.409 410.84 589.516 410.84C587.596 410.84 586.062 411.44 584.916 412.64C583.796 413.84 583.236 415.587 583.236 417.88V430H579.596V400.4H583.236V411.2C583.956 410.08 584.942 409.213 586.196 408.6C587.476 407.987 588.902 407.68 590.476 407.68ZM625.182 418.2C625.182 418.893 625.142 419.627 625.062 420.4H607.542C607.675 422.56 608.408 424.253 609.742 425.48C611.102 426.68 612.742 427.28 614.662 427.28C616.235 427.28 617.542 426.92 618.582 426.2C619.648 425.453 620.395 424.467 620.822 423.24H624.742C624.155 425.347 622.982 427.067 621.222 428.4C619.462 429.707 617.275 430.36 614.662 430.36C612.582 430.36 610.715 429.893 609.062 428.96C607.435 428.027 606.155 426.707 605.222 425C604.288 423.267 603.822 421.267 603.822 419C603.822 416.733 604.275 414.747 605.182 413.04C606.088 411.333 607.355 410.027 608.982 409.12C610.635 408.187 612.528 407.72 614.662 407.72C616.742 407.72 618.582 408.173 620.182 409.08C621.782 409.987 623.008 411.24 623.862 412.84C624.742 414.413 625.182 416.2 625.182 418.2ZM621.422 417.44C621.422 416.053 621.115 414.867 620.502 413.88C619.888 412.867 619.048 412.107 617.982 411.6C616.942 411.067 615.782 410.8 614.502 410.8C612.662 410.8 611.088 411.387 609.782 412.56C608.502 413.733 607.768 415.36 607.582 417.44H621.422ZM640.666 407.68C643.333 407.68 645.493 408.493 647.146 410.12C648.8 411.72 649.626 414.04 649.626 417.08V430H646.026V417.6C646.026 415.413 645.48 413.747 644.386 412.6C643.293 411.427 641.8 410.84 639.906 410.84C637.986 410.84 636.453 411.44 635.306 412.64C634.186 413.84 633.626 415.587 633.626 417.88V430H629.986V408.08H633.626V411.2C634.346 410.08 635.32 409.213 636.546 408.6C637.8 407.987 639.173 407.68 640.666 407.68ZM685.116 408.08L671.916 440.32H668.156L672.476 429.76L663.636 408.08H667.676L674.556 425.84L681.356 408.08H685.116ZM698.335 430.36C696.282 430.36 694.415 429.893 692.735 428.96C691.082 428.027 689.775 426.707 688.815 425C687.882 423.267 687.415 421.267 687.415 419C687.415 416.76 687.895 414.787 688.855 413.08C689.842 411.347 691.175 410.027 692.855 409.12C694.535 408.187 696.415 407.72 698.495 407.72C700.575 407.72 702.455 408.187 704.135 409.12C705.815 410.027 707.135 411.333 708.095 413.04C709.082 414.747 709.575 416.733 709.575 419C709.575 421.267 709.069 423.267 708.055 425C707.069 426.707 705.722 428.027 704.015 428.96C702.309 429.893 700.415 430.36 698.335 430.36ZM698.335 427.16C699.642 427.16 700.869 426.853 702.015 426.24C703.162 425.627 704.082 424.707 704.775 423.48C705.495 422.253 705.855 420.76 705.855 419C705.855 417.24 705.509 415.747 704.815 414.52C704.122 413.293 703.215 412.387 702.095 411.8C700.975 411.187 699.762 410.88 698.455 410.88C697.122 410.88 695.895 411.187 694.775 411.8C693.682 412.387 692.802 413.293 692.135 414.52C691.469 415.747 691.135 417.24 691.135 419C691.135 420.787 691.455 422.293 692.095 423.52C692.762 424.747 693.642 425.667 694.735 426.28C695.829 426.867 697.029 427.16 698.335 427.16ZM733.801 408.08V430H730.161V426.76C729.468 427.88 728.495 428.76 727.241 429.4C726.015 430.013 724.655 430.32 723.161 430.32C721.455 430.32 719.921 429.973 718.561 429.28C717.201 428.56 716.121 427.493 715.321 426.08C714.548 424.667 714.161 422.947 714.161 420.92V408.08H717.761V420.44C717.761 422.6 718.308 424.267 719.401 425.44C720.495 426.587 721.988 427.16 723.881 427.16C725.828 427.16 727.361 426.56 728.481 425.36C729.601 424.16 730.161 422.413 730.161 420.12V408.08H733.801ZM761.491 407.68C763.145 407.68 764.638 408.04 765.971 408.76C767.305 409.453 768.345 410.507 769.091 411.92C769.865 413.333 770.251 415.053 770.251 417.08V430H766.651V417.6C766.651 415.413 766.105 413.747 765.011 412.6C763.918 411.427 762.425 410.84 760.531 410.84C758.611 410.84 757.078 411.44 755.931 412.64C754.811 413.84 754.251 415.587 754.251 417.88V430H750.611V400.4H754.251V411.2C754.971 410.08 755.958 409.213 757.211 408.6C758.491 407.987 759.918 407.68 761.491 407.68ZM796.197 418.2C796.197 418.893 796.157 419.627 796.077 420.4H778.557C778.691 422.56 779.424 424.253 780.757 425.48C782.117 426.68 783.757 427.28 785.677 427.28C787.251 427.28 788.557 426.92 789.597 426.2C790.664 425.453 791.411 424.467 791.837 423.24H795.757C795.171 425.347 793.997 427.067 792.237 428.4C790.477 429.707 788.291 430.36 785.677 430.36C783.597 430.36 781.731 429.893 780.077 428.96C778.451 428.027 777.171 426.707 776.237 425C775.304 423.267 774.837 421.267 774.837 419C774.837 416.733 775.291 414.747 776.197 413.04C777.104 411.333 778.371 410.027 779.997 409.12C781.651 408.187 783.544 407.72 785.677 407.72C787.757 407.72 789.597 408.173 791.197 409.08C792.797 409.987 794.024 411.24 794.877 412.84C795.757 414.413 796.197 416.2 796.197 418.2ZM792.437 417.44C792.437 416.053 792.131 414.867 791.517 413.88C790.904 412.867 790.064 412.107 788.997 411.6C787.957 411.067 786.797 410.8 785.517 410.8C783.677 410.8 782.104 411.387 780.797 412.56C779.517 413.733 778.784 415.36 778.597 417.44H792.437ZM799.642 418.96C799.642 416.72 800.095 414.76 801.002 413.08C801.909 411.373 803.149 410.053 804.722 409.12C806.322 408.187 808.095 407.72 810.042 407.72C811.962 407.72 813.629 408.133 815.042 408.96C816.455 409.787 817.509 410.827 818.202 412.08V408.08H821.882V430H818.202V425.92C817.482 427.2 816.402 428.267 814.962 429.12C813.549 429.947 811.895 430.36 810.002 430.36C808.055 430.36 806.295 429.88 804.722 428.92C803.149 427.96 801.909 426.613 801.002 424.88C800.095 423.147 799.642 421.173 799.642 418.96ZM818.202 419C818.202 417.347 817.869 415.907 817.202 414.68C816.535 413.453 815.629 412.52 814.482 411.88C813.362 411.213 812.122 410.88 810.762 410.88C809.402 410.88 808.162 411.2 807.042 411.84C805.922 412.48 805.029 413.413 804.362 414.64C803.695 415.867 803.362 417.307 803.362 418.96C803.362 420.64 803.695 422.107 804.362 423.36C805.029 424.587 805.922 425.533 807.042 426.2C808.162 426.84 809.402 427.16 810.762 427.16C812.122 427.16 813.362 426.84 814.482 426.2C815.629 425.533 816.535 424.587 817.202 423.36C817.869 422.107 818.202 420.653 818.202 419ZM831.673 411.64C832.313 410.387 833.22 409.413 834.393 408.72C835.593 408.027 837.046 407.68 838.753 407.68V411.44H837.793C833.713 411.44 831.673 413.653 831.673 418.08V430H828.033V408.08H831.673V411.64ZM852.259 418.96C852.259 416.72 852.712 414.76 853.619 413.08C854.526 411.373 855.766 410.053 857.339 409.12C858.939 408.187 860.712 407.72 862.659 407.72C864.579 407.72 866.246 408.133 867.659 408.96C869.072 409.787 870.126 410.827 870.819 412.08V408.08H874.499V430H870.819V425.92C870.099 427.2 869.019 428.267 867.579 429.12C866.166 429.947 864.512 430.36 862.619 430.36C860.672 430.36 858.912 429.88 857.339 428.92C855.766 427.96 854.526 426.613 853.619 424.88C852.712 423.147 852.259 421.173 852.259 418.96ZM870.819 419C870.819 417.347 870.486 415.907 869.819 414.68C869.152 413.453 868.246 412.52 867.099 411.88C865.979 411.213 864.739 410.88 863.379 410.88C862.019 410.88 860.779 411.2 859.659 411.84C858.539 412.48 857.646 413.413 856.979 414.64C856.312 415.867 855.979 417.307 855.979 418.96C855.979 420.64 856.312 422.107 856.979 423.36C857.646 424.587 858.539 425.533 859.659 426.2C860.779 426.84 862.019 427.16 863.379 427.16C864.739 427.16 865.979 426.84 867.099 426.2C868.246 425.533 869.152 424.587 869.819 423.36C870.486 422.107 870.819 420.653 870.819 419ZM917.674 407.68C919.381 407.68 920.901 408.04 922.234 408.76C923.568 409.453 924.621 410.507 925.394 411.92C926.168 413.333 926.554 415.053 926.554 417.08V430H922.954V417.6C922.954 415.413 922.408 413.747 921.314 412.6C920.248 411.427 918.794 410.84 916.954 410.84C915.061 410.84 913.554 411.453 912.434 412.68C911.314 413.88 910.754 415.627 910.754 417.92V430H907.154V417.6C907.154 415.413 906.608 413.747 905.514 412.6C904.448 411.427 902.994 410.84 901.154 410.84C899.261 410.84 897.754 411.453 896.634 412.68C895.514 413.88 894.954 415.627 894.954 417.92V430H891.314V408.08H894.954V411.24C895.674 410.093 896.634 409.213 897.834 408.6C899.061 407.987 900.408 407.68 901.874 407.68C903.714 407.68 905.341 408.093 906.754 408.92C908.168 409.747 909.221 410.96 909.914 412.56C910.528 411.013 911.541 409.813 912.954 408.96C914.368 408.107 915.941 407.68 917.674 407.68ZM931.165 418.96C931.165 416.72 931.619 414.76 932.525 413.08C933.432 411.373 934.672 410.053 936.245 409.12C937.845 408.187 939.619 407.72 941.565 407.72C943.485 407.72 945.152 408.133 946.565 408.96C947.979 409.787 949.032 410.827 949.725 412.08V408.08H953.405V430H949.725V425.92C949.005 427.2 947.925 428.267 946.485 429.12C945.072 429.947 943.419 430.36 941.525 430.36C939.579 430.36 937.819 429.88 936.245 428.92C934.672 427.96 933.432 426.613 932.525 424.88C931.619 423.147 931.165 421.173 931.165 418.96ZM949.725 419C949.725 417.347 949.392 415.907 948.725 414.68C948.059 413.453 947.152 412.52 946.005 411.88C944.885 411.213 943.645 410.88 942.285 410.88C940.925 410.88 939.685 411.2 938.565 411.84C937.445 412.48 936.552 413.413 935.885 414.64C935.219 415.867 934.885 417.307 934.885 418.96C934.885 420.64 935.219 422.107 935.885 423.36C936.552 424.587 937.445 425.533 938.565 426.2C939.685 426.84 940.925 427.16 942.285 427.16C943.645 427.16 944.885 426.84 946.005 426.2C947.152 425.533 948.059 424.587 948.725 423.36C949.392 422.107 949.725 420.653 949.725 419ZM961.517 404.52C960.823 404.52 960.237 404.28 959.757 403.8C959.303 403.32 959.077 402.733 959.077 402.04C959.077 401.347 959.303 400.76 959.757 400.28C960.237 399.8 960.823 399.56 961.517 399.56C962.21 399.56 962.783 399.8 963.237 400.28C963.717 400.76 963.957 401.347 963.957 402.04C963.957 402.733 963.717 403.32 963.237 403.8C962.783 404.28 962.21 404.52 961.517 404.52ZM963.317 434.76C963.317 436.707 962.823 438.133 961.837 439.04C960.85 439.947 959.41 440.4 957.517 440.4H955.397V437.32H956.917C957.93 437.32 958.637 437.12 959.037 436.72C959.463 436.32 959.677 435.64 959.677 434.68V408.08H963.317V434.76ZM979.038 430.36C976.985 430.36 975.118 429.893 973.438 428.96C971.785 428.027 970.478 426.707 969.518 425C968.585 423.267 968.118 421.267 968.118 419C968.118 416.76 968.598 414.787 969.558 413.08C970.545 411.347 971.878 410.027 973.558 409.12C975.238 408.187 977.118 407.72 979.198 407.72C981.278 407.72 983.158 408.187 984.838 409.12C986.518 410.027 987.838 411.333 988.798 413.04C989.785 414.747 990.278 416.733 990.278 419C990.278 421.267 989.772 423.267 988.758 425C987.772 426.707 986.425 428.027 984.718 428.96C983.012 429.893 981.118 430.36 979.038 430.36ZM979.038 427.16C980.345 427.16 981.572 426.853 982.718 426.24C983.865 425.627 984.785 424.707 985.478 423.48C986.198 422.253 986.558 420.76 986.558 419C986.558 417.24 986.212 415.747 985.518 414.52C984.825 413.293 983.918 412.387 982.798 411.8C981.678 411.187 980.465 410.88 979.158 410.88C977.825 410.88 976.598 411.187 975.478 411.8C974.385 412.387 973.505 413.293 972.838 414.52C972.172 415.747 971.838 417.24 971.838 419C971.838 420.787 972.158 422.293 972.798 423.52C973.465 424.747 974.345 425.667 975.438 426.28C976.532 426.867 977.732 427.16 979.038 427.16ZM998.704 411.64C999.344 410.387 1000.25 409.413 1001.42 408.72C1002.62 408.027 1004.08 407.68 1005.78 407.68V411.44H1004.82C1000.74 411.44 998.704 413.653 998.704 418.08V430H995.064V408.08H998.704V411.64ZM1029.69 407.72C1031.58 407.72 1033.24 408.133 1034.65 408.96C1036.09 409.787 1037.16 410.827 1037.85 412.08V408.08H1041.53V430.48C1041.53 432.48 1041.1 434.253 1040.25 435.8C1039.4 437.373 1038.17 438.6 1036.57 439.48C1035 440.36 1033.16 440.8 1031.05 440.8C1028.17 440.8 1025.77 440.12 1023.85 438.76C1021.93 437.4 1020.8 435.547 1020.45 433.2H1024.05C1024.45 434.533 1025.28 435.6 1026.53 436.4C1027.78 437.227 1029.29 437.64 1031.05 437.64C1033.05 437.64 1034.68 437.013 1035.93 435.76C1037.21 434.507 1037.85 432.747 1037.85 430.48V425.88C1037.13 427.16 1036.06 428.227 1034.65 429.08C1033.24 429.933 1031.58 430.36 1029.69 430.36C1027.74 430.36 1025.97 429.88 1024.37 428.92C1022.8 427.96 1021.56 426.613 1020.65 424.88C1019.74 423.147 1019.29 421.173 1019.29 418.96C1019.29 416.72 1019.74 414.76 1020.65 413.08C1021.56 411.373 1022.8 410.053 1024.37 409.12C1025.97 408.187 1027.74 407.72 1029.69 407.72ZM1037.85 419C1037.85 417.347 1037.52 415.907 1036.85 414.68C1036.18 413.453 1035.28 412.52 1034.13 411.88C1033.01 411.213 1031.77 410.88 1030.41 410.88C1029.05 410.88 1027.81 411.2 1026.69 411.84C1025.57 412.48 1024.68 413.413 1024.01 414.64C1023.34 415.867 1023.01 417.307 1023.01 418.96C1023.01 420.64 1023.34 422.107 1024.01 423.36C1024.68 424.587 1025.57 425.533 1026.69 426.2C1027.81 426.84 1029.05 427.16 1030.41 427.16C1031.77 427.16 1033.01 426.84 1034.13 426.2C1035.28 425.533 1036.18 424.587 1036.85 423.36C1037.52 422.107 1037.85 420.653 1037.85 419ZM1057.24 430.36C1055.19 430.36 1053.32 429.893 1051.64 428.96C1049.99 428.027 1048.68 426.707 1047.72 425C1046.79 423.267 1046.32 421.267 1046.32 419C1046.32 416.76 1046.8 414.787 1047.76 413.08C1048.75 411.347 1050.08 410.027 1051.76 409.12C1053.44 408.187 1055.32 407.72 1057.4 407.72C1059.48 407.72 1061.36 408.187 1063.04 409.12C1064.72 410.027 1066.04 411.333 1067 413.04C1067.99 414.747 1068.48 416.733 1068.48 419C1068.48 421.267 1067.97 423.267 1066.96 425C1065.97 426.707 1064.63 428.027 1062.92 428.96C1061.21 429.893 1059.32 430.36 1057.24 430.36ZM1057.24 427.16C1058.55 427.16 1059.77 426.853 1060.92 426.24C1062.07 425.627 1062.99 424.707 1063.68 423.48C1064.4 422.253 1064.76 420.76 1064.76 419C1064.76 417.24 1064.41 415.747 1063.72 414.52C1063.03 413.293 1062.12 412.387 1061 411.8C1059.88 411.187 1058.67 410.88 1057.36 410.88C1056.03 410.88 1054.8 411.187 1053.68 411.8C1052.59 412.387 1051.71 413.293 1051.04 414.52C1050.37 415.747 1050.04 417.24 1050.04 419C1050.04 420.787 1050.36 422.293 1051 423.52C1051.67 424.747 1052.55 425.667 1053.64 426.28C1054.73 426.867 1055.93 427.16 1057.24 427.16ZM1081.03 430.36C1079.35 430.36 1077.84 430.08 1076.51 429.52C1075.17 428.933 1074.12 428.133 1073.35 427.12C1072.57 426.08 1072.15 424.893 1072.07 423.56H1075.83C1075.93 424.653 1076.44 425.547 1077.35 426.24C1078.28 426.933 1079.49 427.28 1080.99 427.28C1082.37 427.28 1083.47 426.973 1084.27 426.36C1085.07 425.747 1085.47 424.973 1085.47 424.04C1085.47 423.08 1085.04 422.373 1084.19 421.92C1083.33 421.44 1082.01 420.973 1080.23 420.52C1078.6 420.093 1077.27 419.667 1076.23 419.24C1075.21 418.787 1074.33 418.133 1073.59 417.28C1072.87 416.4 1072.51 415.253 1072.51 413.84C1072.51 412.72 1072.84 411.693 1073.51 410.76C1074.17 409.827 1075.12 409.093 1076.35 408.56C1077.57 408 1078.97 407.72 1080.55 407.72C1082.97 407.72 1084.93 408.333 1086.43 409.56C1087.92 410.787 1088.72 412.467 1088.83 414.6H1085.19C1085.11 413.453 1084.64 412.533 1083.79 411.84C1082.96 411.147 1081.84 410.8 1080.43 410.8C1079.12 410.8 1078.08 411.08 1077.31 411.64C1076.53 412.2 1076.15 412.933 1076.15 413.84C1076.15 414.56 1076.37 415.16 1076.83 415.64C1077.31 416.093 1077.89 416.467 1078.59 416.76C1079.31 417.027 1080.29 417.333 1081.55 417.68C1083.12 418.107 1084.4 418.533 1085.39 418.96C1086.37 419.36 1087.21 419.973 1087.91 420.8C1088.63 421.627 1089 422.707 1089.03 424.04C1089.03 425.24 1088.69 426.32 1088.03 427.28C1087.36 428.24 1086.41 429 1085.19 429.56C1083.99 430.093 1082.6 430.36 1081.03 430.36ZM1101.93 430.36C1100.25 430.36 1098.74 430.08 1097.41 429.52C1096.07 428.933 1095.02 428.133 1094.25 427.12C1093.47 426.08 1093.05 424.893 1092.97 423.56H1096.73C1096.83 424.653 1097.34 425.547 1098.25 426.24C1099.18 426.933 1100.39 427.28 1101.89 427.28C1103.27 427.28 1104.37 426.973 1105.17 426.36C1105.97 425.747 1106.37 424.973 1106.37 424.04C1106.37 423.08 1105.94 422.373 1105.09 421.92C1104.23 421.44 1102.91 420.973 1101.13 420.52C1099.5 420.093 1098.17 419.667 1097.13 419.24C1096.11 418.787 1095.23 418.133 1094.49 417.28C1093.77 416.4 1093.41 415.253 1093.41 413.84C1093.41 412.72 1093.74 411.693 1094.41 410.76C1095.07 409.827 1096.02 409.093 1097.25 408.56C1098.47 408 1099.87 407.72 1101.45 407.72C1103.87 407.72 1105.83 408.333 1107.33 409.56C1108.82 410.787 1109.62 412.467 1109.73 414.6H1106.09C1106.01 413.453 1105.54 412.533 1104.69 411.84C1103.86 411.147 1102.74 410.8 1101.33 410.8C1100.02 410.8 1098.98 411.08 1098.21 411.64C1097.43 412.2 1097.05 412.933 1097.05 413.84C1097.05 414.56 1097.27 415.16 1097.73 415.64C1098.21 416.093 1098.79 416.467 1099.49 416.76C1100.21 417.027 1101.19 417.333 1102.45 417.68C1104.02 418.107 1105.3 418.533 1106.29 418.96C1107.27 419.36 1108.11 419.973 1108.81 420.8C1109.53 421.627 1109.9 422.707 1109.93 424.04C1109.93 425.24 1109.59 426.32 1108.93 427.28C1108.26 428.24 1107.31 429 1106.09 429.56C1104.89 430.093 1103.5 430.36 1101.93 430.36ZM1116.94 404.52C1116.25 404.52 1115.66 404.28 1115.18 403.8C1114.7 403.32 1114.46 402.733 1114.46 402.04C1114.46 401.347 1114.7 400.76 1115.18 400.28C1115.66 399.8 1116.25 399.56 1116.94 399.56C1117.61 399.56 1118.17 399.8 1118.62 400.28C1119.1 400.76 1119.34 401.347 1119.34 402.04C1119.34 402.733 1119.1 403.32 1118.62 403.8C1118.17 404.28 1117.61 404.52 1116.94 404.52ZM1118.7 408.08V430H1115.06V408.08H1118.7ZM1128.55 412.12C1129.27 410.867 1130.33 409.827 1131.75 409C1133.19 408.147 1134.85 407.72 1136.75 407.72C1138.69 407.72 1140.45 408.187 1142.03 409.12C1143.63 410.053 1144.88 411.373 1145.79 413.08C1146.69 414.76 1147.15 416.72 1147.15 418.96C1147.15 421.173 1146.69 423.147 1145.79 424.88C1144.88 426.613 1143.63 427.96 1142.03 428.92C1140.45 429.88 1138.69 430.36 1136.75 430.36C1134.88 430.36 1133.23 429.947 1131.79 429.12C1130.37 428.267 1129.29 427.213 1128.55 425.96V440.4H1124.91V408.08H1128.55V412.12ZM1143.43 418.96C1143.43 417.307 1143.09 415.867 1142.43 414.64C1141.76 413.413 1140.85 412.48 1139.71 411.84C1138.59 411.2 1137.35 410.88 1135.99 410.88C1134.65 410.88 1133.41 411.213 1132.27 411.88C1131.15 412.52 1130.24 413.467 1129.55 414.72C1128.88 415.947 1128.55 417.373 1128.55 419C1128.55 420.653 1128.88 422.107 1129.55 423.36C1130.24 424.587 1131.15 425.533 1132.27 426.2C1133.41 426.84 1134.65 427.16 1135.99 427.16C1137.35 427.16 1138.59 426.84 1139.71 426.2C1140.85 425.533 1141.76 424.587 1142.43 423.36C1143.09 422.107 1143.43 420.64 1143.43 418.96ZM1159.06 401.76C1161.7 401.76 1163.83 402.507 1165.46 404C1167.09 405.493 1167.9 407.493 1167.9 410C1167.9 412.8 1167.03 414.88 1165.3 416.24C1163.57 417.573 1161.22 418.24 1158.26 418.24L1158.14 422.04H1154.98L1154.82 415.72H1155.98C1158.62 415.72 1160.69 415.32 1162.18 414.52C1163.67 413.72 1164.42 412.213 1164.42 410C1164.42 408.4 1163.94 407.133 1162.98 406.2C1162.02 405.267 1160.73 404.8 1159.1 404.8C1157.45 404.8 1156.14 405.253 1155.18 406.16C1154.25 407.04 1153.78 408.253 1153.78 409.8H1150.34C1150.34 408.2 1150.7 406.8 1151.42 405.6C1152.14 404.373 1153.15 403.427 1154.46 402.76C1155.79 402.093 1157.33 401.76 1159.06 401.76ZM1156.54 430.24C1155.85 430.24 1155.26 430 1154.78 429.52C1154.3 429.04 1154.06 428.453 1154.06 427.76C1154.06 427.067 1154.3 426.48 1154.78 426C1155.26 425.52 1155.85 425.28 1156.54 425.28C1157.21 425.28 1157.77 425.52 1158.22 426C1158.7 426.48 1158.94 427.067 1158.94 427.76C1158.94 428.453 1158.7 429.04 1158.22 429.52C1157.77 430 1157.21 430.24 1156.54 430.24Z" fill="black"/>
</svg>
