<svg width="1280" height="600" viewBox="0 0 1280 600" fill="none" xmlns="http://www.w3.org/2000/svg">
<rect width="1280" height="600" fill="white"/>
<rect x="50.5" y="65.5" width="1178" height="468" rx="11.5" stroke="#474242"/>
<rect x="329" y="33" width="581" height="117" rx="12" fill="#9E2A2B"/>
<path d="M399.501 91.8C399.501 89 400.061 86.5067 401.181 84.32C402.327 82.1333 403.954 80.44 406.061 79.24C408.167 78.0133 410.647 77.4 413.501 77.4C415.954 77.4 418.141 77.8667 420.061 78.8C422.007 79.7067 423.581 81 424.781 82.68C426.007 84.36 426.821 86.32 427.221 88.56H417.861C417.434 87.6267 416.821 86.9067 416.021 86.4C415.247 85.8667 414.354 85.6 413.341 85.6C411.847 85.6 410.661 86.16 409.781 87.28C408.927 88.4 408.501 89.9067 408.501 91.8C408.501 93.6933 408.927 95.2 409.781 96.32C410.661 97.44 411.847 98 413.341 98C414.354 98 415.247 97.7467 416.021 97.24C416.821 96.7067 417.434 95.9733 417.861 95.04H427.221C426.821 97.28 426.007 99.24 424.781 100.92C423.581 102.6 422.007 103.907 420.061 104.84C418.141 105.747 415.954 106.2 413.501 106.2C410.647 106.2 408.167 105.6 406.061 104.4C403.954 103.173 402.327 101.467 401.181 99.28C400.061 97.0933 399.501 94.6 399.501 91.8ZM441.138 106.28C438.871 106.28 436.831 105.813 435.018 104.88C433.205 103.947 431.778 102.613 430.738 100.88C429.725 99.12 429.218 97.0667 429.218 94.72C429.218 92.3733 429.725 90.3333 430.738 88.6C431.778 86.84 433.205 85.4933 435.018 84.56C436.831 83.6267 438.871 83.16 441.138 83.16C443.405 83.16 445.445 83.6267 447.258 84.56C449.071 85.4933 450.485 86.84 451.498 88.6C452.538 90.3333 453.058 92.3733 453.058 94.72C453.058 97.0667 452.538 99.12 451.498 100.88C450.485 102.613 449.071 103.947 447.258 104.88C445.445 105.813 443.405 106.28 441.138 106.28ZM441.138 98.6C441.965 98.6 442.658 98.28 443.218 97.64C443.778 96.9733 444.058 96 444.058 94.72C444.058 93.44 443.778 92.48 443.218 91.84C442.658 91.1733 441.965 90.84 441.138 90.84C440.311 90.84 439.618 91.1733 439.058 91.84C438.498 92.48 438.218 93.44 438.218 94.72C438.218 96 438.485 96.9733 439.018 97.64C439.578 98.28 440.285 98.6 441.138 98.6ZM471.648 83.28C474.234 83.28 476.248 84.1467 477.688 85.88C479.154 87.6133 479.888 89.96 479.888 92.92V106H471.048V94.04C471.048 92.9733 470.754 92.1333 470.168 91.52C469.608 90.88 468.848 90.56 467.888 90.56C466.901 90.56 466.128 90.88 465.568 91.52C465.008 92.1333 464.728 92.9733 464.728 94.04V106H455.848V83.44H464.728V86.88C465.421 85.8133 466.341 84.9467 467.488 84.28C468.661 83.6133 470.048 83.28 471.648 83.28ZM495.178 97.56L498.778 83.44H508.218L500.698 106H489.618L482.098 83.44H491.538L495.178 97.56ZM532.414 94.52C532.414 95.1333 532.374 95.72 532.294 96.28H518.014C518.148 98.2267 518.961 99.2 520.454 99.2C521.414 99.2 522.108 98.76 522.534 97.88H531.934C531.614 99.48 530.934 100.92 529.894 102.2C528.881 103.453 527.588 104.453 526.014 105.2C524.468 105.92 522.761 106.28 520.894 106.28C518.654 106.28 516.654 105.813 514.894 104.88C513.161 103.947 511.801 102.613 510.814 100.88C509.854 99.12 509.374 97.0667 509.374 94.72C509.374 92.3733 509.854 90.3333 510.814 88.6C511.801 86.84 513.161 85.4933 514.894 84.56C516.654 83.6267 518.654 83.16 520.894 83.16C523.134 83.16 525.121 83.6267 526.854 84.56C528.614 85.4667 529.974 86.7733 530.934 88.48C531.921 90.1867 532.414 92.2 532.414 94.52ZM523.414 92.4C523.414 91.6533 523.174 91.0933 522.694 90.72C522.214 90.32 521.614 90.12 520.894 90.12C519.321 90.12 518.401 90.88 518.134 92.4H523.414ZM544.103 87.6C545.009 86.2933 546.116 85.2533 547.423 84.48C548.729 83.68 550.089 83.28 551.503 83.28V92.76H548.983C547.303 92.76 546.063 93.0533 545.263 93.64C544.489 94.2267 544.103 95.2667 544.103 96.76V106H535.223V83.44H544.103V87.6ZM563.935 106.28C561.801 106.28 559.908 105.933 558.255 105.24C556.628 104.547 555.335 103.587 554.375 102.36C553.415 101.133 552.868 99.7467 552.735 98.2H561.255C561.361 98.8667 561.641 99.36 562.095 99.68C562.575 100 563.175 100.16 563.895 100.16C564.348 100.16 564.708 100.067 564.975 99.88C565.241 99.6667 565.375 99.4133 565.375 99.12C565.375 98.6133 565.095 98.2533 564.535 98.04C563.975 97.8267 563.028 97.5867 561.695 97.32C560.068 97 558.721 96.6533 557.655 96.28C556.615 95.9067 555.695 95.2667 554.895 94.36C554.121 93.4533 553.735 92.2 553.735 90.6C553.735 89.2133 554.095 87.96 554.815 86.84C555.561 85.6933 556.655 84.8 558.095 84.16C559.535 83.4933 561.281 83.16 563.335 83.16C566.375 83.16 568.748 83.9067 570.455 85.4C572.188 86.8933 573.228 88.84 573.575 91.24H565.695C565.561 90.6267 565.281 90.16 564.855 89.84C564.428 89.4933 563.855 89.32 563.135 89.32C562.681 89.32 562.335 89.4133 562.095 89.6C561.855 89.76 561.735 90.0133 561.735 90.36C561.735 90.8133 562.015 91.16 562.575 91.4C563.135 91.6133 564.028 91.84 565.255 92.08C566.881 92.4 568.255 92.76 569.375 93.16C570.495 93.56 571.468 94.2533 572.295 95.24C573.121 96.2 573.535 97.5333 573.535 99.24C573.535 100.573 573.148 101.773 572.375 102.84C571.601 103.907 570.481 104.747 569.015 105.36C567.575 105.973 565.881 106.28 563.935 106.28ZM575.859 94.72C575.859 92.3467 576.259 90.2933 577.059 88.56C577.885 86.8 579.005 85.4667 580.419 84.56C581.832 83.6267 583.419 83.16 585.179 83.16C586.645 83.16 587.912 83.4667 588.979 84.08C590.045 84.6667 590.859 85.48 591.419 86.52V83.44H600.259V106H591.419V102.92C590.859 103.96 590.045 104.787 588.979 105.4C587.912 105.987 586.645 106.28 585.179 106.28C583.419 106.28 581.832 105.827 580.419 104.92C579.005 103.987 577.885 102.653 577.059 100.92C576.259 99.16 575.859 97.0933 575.859 94.72ZM591.419 94.72C591.419 93.52 591.112 92.5867 590.499 91.92C589.885 91.2533 589.099 90.92 588.139 90.92C587.179 90.92 586.392 91.2533 585.779 91.92C585.165 92.5867 584.859 93.52 584.859 94.72C584.859 95.92 585.165 96.8533 585.779 97.52C586.392 98.1867 587.179 98.52 588.139 98.52C589.099 98.52 589.885 98.1867 590.499 97.52C591.112 96.8533 591.419 95.92 591.419 94.72ZM618.286 98.44V106H614.926C608.739 106 605.646 102.92 605.646 96.76V90.84H602.846V83.44H605.646V78H614.526V83.44H618.206V90.84H614.526V96.92C614.526 97.4533 614.646 97.84 614.886 98.08C615.153 98.32 615.579 98.44 616.166 98.44H618.286ZM626.148 81.64C624.601 81.64 623.361 81.2267 622.428 80.4C621.495 79.5733 621.028 78.5333 621.028 77.28C621.028 76 621.495 74.9467 622.428 74.12C623.361 73.2667 624.601 72.84 626.148 72.84C627.668 72.84 628.895 73.2667 629.828 74.12C630.761 74.9467 631.228 76 631.228 77.28C631.228 78.5333 630.761 79.5733 629.828 80.4C628.895 81.2267 627.668 81.64 626.148 81.64ZM630.548 83.44V106H621.668V83.44H630.548ZM645.279 106.28C643.012 106.28 640.972 105.813 639.159 104.88C637.345 103.947 635.919 102.613 634.879 100.88C633.865 99.12 633.359 97.0667 633.359 94.72C633.359 92.3733 633.865 90.3333 634.879 88.6C635.919 86.84 637.345 85.4933 639.159 84.56C640.972 83.6267 643.012 83.16 645.279 83.16C647.545 83.16 649.585 83.6267 651.399 84.56C653.212 85.4933 654.625 86.84 655.639 88.6C656.679 90.3333 657.199 92.3733 657.199 94.72C657.199 97.0667 656.679 99.12 655.639 100.88C654.625 102.613 653.212 103.947 651.399 104.88C649.585 105.813 647.545 106.28 645.279 106.28ZM645.279 98.6C646.105 98.6 646.799 98.28 647.359 97.64C647.919 96.9733 648.199 96 648.199 94.72C648.199 93.44 647.919 92.48 647.359 91.84C646.799 91.1733 646.105 90.84 645.279 90.84C644.452 90.84 643.759 91.1733 643.199 91.84C642.639 92.48 642.359 93.44 642.359 94.72C642.359 96 642.625 96.9733 643.159 97.64C643.719 98.28 644.425 98.6 645.279 98.6ZM675.788 83.28C678.375 83.28 680.388 84.1467 681.828 85.88C683.295 87.6133 684.028 89.96 684.028 92.92V106H675.188V94.04C675.188 92.9733 674.895 92.1333 674.308 91.52C673.748 90.88 672.988 90.56 672.028 90.56C671.042 90.56 670.268 90.88 669.708 91.52C669.148 92.1333 668.868 92.9733 668.868 94.04V106H659.988V83.44H668.868V86.88C669.562 85.8133 670.482 84.9467 671.628 84.28C672.802 83.6133 674.188 83.28 675.788 83.28ZM705.756 106.28C702.369 106.28 699.569 105.493 697.356 103.92C695.169 102.32 693.982 99.9867 693.796 96.92H703.236C703.369 98.5467 704.089 99.36 705.396 99.36C705.876 99.36 706.276 99.2533 706.596 99.04C706.942 98.8 707.116 98.44 707.116 97.96C707.116 97.2933 706.756 96.76 706.036 96.36C705.316 95.9333 704.196 95.4533 702.676 94.92C700.862 94.28 699.356 93.6533 698.156 93.04C696.982 92.4267 695.969 91.5333 695.116 90.36C694.262 89.1867 693.849 87.68 693.876 85.84C693.876 84 694.342 82.44 695.276 81.16C696.236 79.8533 697.529 78.8667 699.156 78.2C700.809 77.5333 702.662 77.2 704.716 77.2C708.182 77.2 710.929 78 712.956 79.6C715.009 81.2 716.089 83.4533 716.196 86.36H706.636C706.609 85.56 706.409 84.9867 706.036 84.64C705.662 84.2933 705.209 84.12 704.676 84.12C704.302 84.12 703.996 84.2533 703.756 84.52C703.516 84.76 703.396 85.1067 703.396 85.56C703.396 86.2 703.742 86.7333 704.436 87.16C705.156 87.56 706.289 88.0533 707.836 88.64C709.622 89.3067 711.089 89.9467 712.236 90.56C713.409 91.1733 714.422 92.0267 715.276 93.12C716.129 94.2133 716.556 95.5867 716.556 97.24C716.556 98.9733 716.129 100.533 715.276 101.92C714.422 103.28 713.182 104.347 711.556 105.12C709.929 105.893 707.996 106.28 705.756 106.28ZM733.716 98.44V106H730.356C724.169 106 721.076 102.92 721.076 96.76V90.84H718.276V83.44H721.076V78H729.956V83.44H733.636V90.84H729.956V96.92C729.956 97.4533 730.076 97.84 730.316 98.08C730.582 98.32 731.009 98.44 731.596 98.44H733.716ZM735.898 94.72C735.898 92.3467 736.298 90.2933 737.098 88.56C737.924 86.8 739.044 85.4667 740.458 84.56C741.871 83.6267 743.458 83.16 745.218 83.16C746.684 83.16 747.951 83.4667 749.018 84.08C750.084 84.6667 750.898 85.48 751.458 86.52V83.44H760.298V106H751.458V102.92C750.898 103.96 750.084 104.787 749.018 105.4C747.951 105.987 746.684 106.28 745.218 106.28C743.458 106.28 741.871 105.827 740.458 104.92C739.044 103.987 737.924 102.653 737.098 100.92C736.298 99.16 735.898 97.0933 735.898 94.72ZM751.458 94.72C751.458 93.52 751.151 92.5867 750.538 91.92C749.924 91.2533 749.138 90.92 748.178 90.92C747.218 90.92 746.431 91.2533 745.818 91.92C745.204 92.5867 744.898 93.52 744.898 94.72C744.898 95.92 745.204 96.8533 745.818 97.52C746.431 98.1867 747.218 98.52 748.178 98.52C749.138 98.52 749.924 98.1867 750.538 97.52C751.151 96.8533 751.458 95.92 751.458 94.72ZM773.165 87.6C774.072 86.2933 775.178 85.2533 776.485 84.48C777.792 83.68 779.152 83.28 780.565 83.28V92.76H778.045C776.365 92.76 775.125 93.0533 774.325 93.64C773.552 94.2267 773.165 95.2667 773.165 96.76V106H764.285V83.44H773.165V87.6ZM796.997 98.44V106H793.637C787.45 106 784.357 102.92 784.357 96.76V90.84H781.557V83.44H784.357V78H793.237V83.44H796.917V90.84H793.237V96.92C793.237 97.4533 793.357 97.84 793.597 98.08C793.864 98.32 794.29 98.44 794.877 98.44H796.997ZM822.219 94.52C822.219 95.1333 822.179 95.72 822.099 96.28H807.819C807.952 98.2267 808.766 99.2 810.259 99.2C811.219 99.2 811.912 98.76 812.339 97.88H821.739C821.419 99.48 820.739 100.92 819.699 102.2C818.686 103.453 817.392 104.453 815.819 105.2C814.272 105.92 812.566 106.28 810.699 106.28C808.459 106.28 806.459 105.813 804.699 104.88C802.966 103.947 801.606 102.613 800.619 100.88C799.659 99.12 799.179 97.0667 799.179 94.72C799.179 92.3733 799.659 90.3333 800.619 88.6C801.606 86.84 802.966 85.4933 804.699 84.56C806.459 83.6267 808.459 83.16 810.699 83.16C812.939 83.16 814.926 83.6267 816.659 84.56C818.419 85.4667 819.779 86.7733 820.739 88.48C821.726 90.1867 822.219 92.2 822.219 94.52ZM813.219 92.4C813.219 91.6533 812.979 91.0933 812.499 90.72C812.019 90.32 811.419 90.12 810.699 90.12C809.126 90.12 808.206 90.88 807.939 92.4H813.219ZM833.907 87.6C834.814 86.2933 835.921 85.2533 837.227 84.48C838.534 83.68 839.894 83.28 841.307 83.28V92.76H838.787C837.107 92.76 835.867 93.0533 835.067 93.64C834.294 94.2267 833.907 95.2667 833.907 96.76V106H825.027V83.44H833.907V87.6Z" fill="white"/>
<path d="M148.263 299.96V296.972H155.031V323H151.719V299.96H148.263ZM162.242 323.216C161.618 323.216 161.09 323 160.658 322.568C160.226 322.136 160.01 321.608 160.01 320.984C160.01 320.36 160.226 319.832 160.658 319.4C161.09 318.968 161.618 318.752 162.242 318.752C162.842 318.752 163.346 318.968 163.754 319.4C164.186 319.832 164.402 320.36 164.402 320.984C164.402 321.608 164.186 322.136 163.754 322.568C163.346 323 162.842 323.216 162.242 323.216ZM196.2 297.908V300.572H189.36V323H186.084V300.572H179.208V297.908H196.2ZM218.233 312.38C218.233 313.004 218.197 313.664 218.125 314.36H202.357C202.477 316.304 203.137 317.828 204.337 318.932C205.561 320.012 207.037 320.552 208.765 320.552C210.181 320.552 211.357 320.228 212.293 319.58C213.253 318.908 213.925 318.02 214.309 316.916H217.837C217.309 318.812 216.253 320.36 214.669 321.56C213.085 322.736 211.117 323.324 208.765 323.324C206.893 323.324 205.213 322.904 203.725 322.064C202.261 321.224 201.109 320.036 200.269 318.5C199.429 316.94 199.009 315.14 199.009 313.1C199.009 311.06 199.417 309.272 200.233 307.736C201.049 306.2 202.189 305.024 203.653 304.208C205.141 303.368 206.845 302.948 208.765 302.948C210.637 302.948 212.293 303.356 213.733 304.172C215.173 304.988 216.277 306.116 217.045 307.556C217.837 308.972 218.233 310.58 218.233 312.38ZM214.849 311.696C214.849 310.448 214.573 309.38 214.021 308.492C213.469 307.58 212.713 306.896 211.753 306.44C210.817 305.96 209.773 305.72 208.621 305.72C206.965 305.72 205.549 306.248 204.373 307.304C203.221 308.36 202.561 309.824 202.393 311.696H214.849ZM225.833 296.36V323H222.557V296.36H225.833ZM234.693 296.36V323H231.417V296.36H234.693ZM266.866 303.272L254.986 332.288H251.602L255.49 322.784L247.534 303.272H251.17L257.362 319.256L263.482 303.272H266.866ZM278.763 323.324C276.915 323.324 275.235 322.904 273.723 322.064C272.235 321.224 271.059 320.036 270.195 318.5C269.355 316.94 268.935 315.14 268.935 313.1C268.935 311.084 269.367 309.308 270.231 307.772C271.119 306.212 272.319 305.024 273.831 304.208C275.343 303.368 277.035 302.948 278.907 302.948C280.779 302.948 282.471 303.368 283.983 304.208C285.495 305.024 286.683 306.2 287.547 307.736C288.435 309.272 288.879 311.06 288.879 313.1C288.879 315.14 288.423 316.94 287.511 318.5C286.623 320.036 285.411 321.224 283.875 322.064C282.339 322.904 280.635 323.324 278.763 323.324ZM278.763 320.444C279.939 320.444 281.043 320.168 282.075 319.616C283.107 319.064 283.935 318.236 284.559 317.132C285.207 316.028 285.531 314.684 285.531 313.1C285.531 311.516 285.219 310.172 284.595 309.068C283.971 307.964 283.155 307.148 282.147 306.62C281.139 306.068 280.047 305.792 278.871 305.792C277.671 305.792 276.567 306.068 275.559 306.62C274.575 307.148 273.783 307.964 273.183 309.068C272.583 310.172 272.283 311.516 272.283 313.1C272.283 314.708 272.571 316.064 273.147 317.168C273.747 318.272 274.539 319.1 275.523 319.652C276.507 320.18 277.587 320.444 278.763 320.444ZM310.682 303.272V323H307.406V320.084C306.782 321.092 305.906 321.884 304.778 322.46C303.674 323.012 302.45 323.288 301.106 323.288C299.57 323.288 298.19 322.976 296.966 322.352C295.742 321.704 294.77 320.744 294.05 319.472C293.354 318.2 293.006 316.652 293.006 314.828V303.272H296.246V314.396C296.246 316.34 296.738 317.84 297.722 318.896C298.706 319.928 300.05 320.444 301.754 320.444C303.506 320.444 304.886 319.904 305.894 318.824C306.902 317.744 307.406 316.172 307.406 314.108V303.272H310.682ZM319.489 306.476C320.065 305.348 320.881 304.472 321.937 303.848C323.017 303.224 324.325 302.912 325.861 302.912V306.296H324.997C321.325 306.296 319.489 308.288 319.489 312.272V323H316.213V303.272H319.489V306.476ZM343.237 305.972V317.6C343.237 318.56 343.441 319.244 343.849 319.652C344.257 320.036 344.965 320.228 345.973 320.228H348.385V323H345.433C343.609 323 342.241 322.58 341.329 321.74C340.417 320.9 339.961 319.52 339.961 317.6V305.972H337.405V303.272H339.961V298.304H343.237V303.272H348.385V305.972H343.237ZM370.354 312.38C370.354 313.004 370.318 313.664 370.246 314.36H354.478C354.598 316.304 355.258 317.828 356.458 318.932C357.682 320.012 359.158 320.552 360.886 320.552C362.302 320.552 363.478 320.228 364.414 319.58C365.374 318.908 366.046 318.02 366.43 316.916H369.958C369.43 318.812 368.374 320.36 366.79 321.56C365.206 322.736 363.238 323.324 360.886 323.324C359.014 323.324 357.334 322.904 355.846 322.064C354.382 321.224 353.23 320.036 352.39 318.5C351.55 316.94 351.13 315.14 351.13 313.1C351.13 311.06 351.538 309.272 352.354 307.736C353.17 306.2 354.31 305.024 355.774 304.208C357.262 303.368 358.966 302.948 360.886 302.948C362.758 302.948 364.414 303.356 365.854 304.172C367.294 304.988 368.398 306.116 369.166 307.556C369.958 308.972 370.354 310.58 370.354 312.38ZM366.97 311.696C366.97 310.448 366.694 309.38 366.142 308.492C365.59 307.58 364.834 306.896 363.874 306.44C362.938 305.96 361.894 305.72 360.742 305.72C359.086 305.72 357.67 306.248 356.494 307.304C355.342 308.36 354.682 309.824 354.514 311.696H366.97ZM373.454 313.064C373.454 311.048 373.862 309.284 374.678 307.772C375.494 306.236 376.61 305.048 378.026 304.208C379.466 303.368 381.062 302.948 382.814 302.948C384.542 302.948 386.042 303.32 387.314 304.064C388.586 304.808 389.534 305.744 390.158 306.872V303.272H393.47V323H390.158V319.328C389.51 320.48 388.538 321.44 387.242 322.208C385.97 322.952 384.482 323.324 382.778 323.324C381.026 323.324 379.442 322.892 378.026 322.028C376.61 321.164 375.494 319.952 374.678 318.392C373.862 316.832 373.454 315.056 373.454 313.064ZM390.158 313.1C390.158 311.612 389.858 310.316 389.258 309.212C388.658 308.108 387.842 307.268 386.81 306.692C385.802 306.092 384.686 305.792 383.462 305.792C382.238 305.792 381.122 306.08 380.114 306.656C379.106 307.232 378.302 308.072 377.702 309.176C377.102 310.28 376.802 311.576 376.802 313.064C376.802 314.576 377.102 315.896 377.702 317.024C378.302 318.128 379.106 318.98 380.114 319.58C381.122 320.156 382.238 320.444 383.462 320.444C384.686 320.444 385.802 320.156 386.81 319.58C387.842 318.98 388.658 318.128 389.258 317.024C389.858 315.896 390.158 314.588 390.158 313.1ZM397.782 313.1C397.782 311.06 398.19 309.284 399.006 307.772C399.822 306.236 400.95 305.048 402.39 304.208C403.854 303.368 405.522 302.948 407.394 302.948C409.818 302.948 411.81 303.536 413.37 304.712C414.954 305.888 415.998 307.52 416.502 309.608H412.974C412.638 308.408 411.978 307.46 410.994 306.764C410.034 306.068 408.834 305.72 407.394 305.72C405.522 305.72 404.01 306.368 402.858 307.664C401.706 308.936 401.13 310.748 401.13 313.1C401.13 315.476 401.706 317.312 402.858 318.608C404.01 319.904 405.522 320.552 407.394 320.552C408.834 320.552 410.034 320.216 410.994 319.544C411.954 318.872 412.614 317.912 412.974 316.664H416.502C415.974 318.68 414.918 320.3 413.334 321.524C411.75 322.724 409.77 323.324 407.394 323.324C405.522 323.324 403.854 322.904 402.39 322.064C400.95 321.224 399.822 320.036 399.006 318.5C398.19 316.964 397.782 315.164 397.782 313.1ZM430.666 302.912C432.154 302.912 433.498 303.236 434.698 303.884C435.898 304.508 436.834 305.456 437.506 306.728C438.202 308 438.55 309.548 438.55 311.372V323H435.31V311.84C435.31 309.872 434.818 308.372 433.834 307.34C432.85 306.284 431.506 305.756 429.802 305.756C428.074 305.756 426.694 306.296 425.662 307.376C424.654 308.456 424.15 310.028 424.15 312.092V323H420.874V296.36H424.15V306.08C424.798 305.072 425.686 304.292 426.814 303.74C427.966 303.188 429.25 302.912 430.666 302.912ZM461.901 312.38C461.901 313.004 461.865 313.664 461.793 314.36H446.025C446.145 316.304 446.805 317.828 448.005 318.932C449.229 320.012 450.705 320.552 452.433 320.552C453.849 320.552 455.025 320.228 455.961 319.58C456.921 318.908 457.593 318.02 457.977 316.916H461.505C460.977 318.812 459.921 320.36 458.337 321.56C456.753 322.736 454.785 323.324 452.433 323.324C450.561 323.324 448.881 322.904 447.393 322.064C445.929 321.224 444.777 320.036 443.937 318.5C443.097 316.94 442.677 315.14 442.677 313.1C442.677 311.06 443.085 309.272 443.901 307.736C444.717 306.2 445.857 305.024 447.321 304.208C448.809 303.368 450.513 302.948 452.433 302.948C454.305 302.948 455.961 303.356 457.401 304.172C458.841 304.988 459.945 306.116 460.713 307.556C461.505 308.972 461.901 310.58 461.901 312.38ZM458.517 311.696C458.517 310.448 458.241 309.38 457.689 308.492C457.137 307.58 456.381 306.896 455.421 306.44C454.485 305.96 453.441 305.72 452.289 305.72C450.633 305.72 449.217 306.248 448.041 307.304C446.889 308.36 446.229 309.824 446.061 311.696H458.517ZM469.501 306.476C470.077 305.348 470.893 304.472 471.949 303.848C473.029 303.224 474.337 302.912 475.873 302.912V306.296H475.009C471.337 306.296 469.501 308.288 469.501 312.272V323H466.225V303.272H469.501V306.476ZM488.028 313.064C488.028 311.048 488.436 309.284 489.252 307.772C490.068 306.236 491.184 305.048 492.6 304.208C494.04 303.368 495.636 302.948 497.388 302.948C499.116 302.948 500.616 303.32 501.888 304.064C503.16 304.808 504.108 305.744 504.732 306.872V303.272H508.044V323H504.732V319.328C504.084 320.48 503.112 321.44 501.816 322.208C500.544 322.952 499.056 323.324 497.352 323.324C495.6 323.324 494.016 322.892 492.6 322.028C491.184 321.164 490.068 319.952 489.252 318.392C488.436 316.832 488.028 315.056 488.028 313.064ZM504.732 313.1C504.732 311.612 504.432 310.316 503.832 309.212C503.232 308.108 502.416 307.268 501.384 306.692C500.376 306.092 499.26 305.792 498.036 305.792C496.812 305.792 495.696 306.08 494.688 306.656C493.68 307.232 492.876 308.072 492.276 309.176C491.676 310.28 491.376 311.576 491.376 313.064C491.376 314.576 491.676 315.896 492.276 317.024C492.876 318.128 493.68 318.98 494.688 319.58C495.696 320.156 496.812 320.444 498.036 320.444C499.26 320.444 500.376 320.156 501.384 319.58C502.416 318.98 503.232 318.128 503.832 317.024C504.432 315.896 504.732 314.588 504.732 313.1ZM530.162 323.324C528.65 323.324 527.294 323.072 526.094 322.568C524.894 322.04 523.946 321.32 523.25 320.408C522.554 319.472 522.17 318.404 522.098 317.204H525.482C525.578 318.188 526.034 318.992 526.85 319.616C527.69 320.24 528.782 320.552 530.126 320.552C531.374 320.552 532.358 320.276 533.078 319.724C533.798 319.172 534.158 318.476 534.158 317.636C534.158 316.772 533.774 316.136 533.006 315.728C532.238 315.296 531.05 314.876 529.442 314.468C527.978 314.084 526.778 313.7 525.842 313.316C524.93 312.908 524.138 312.32 523.466 311.552C522.818 310.76 522.494 309.728 522.494 308.456C522.494 307.448 522.794 306.524 523.394 305.684C523.994 304.844 524.846 304.184 525.95 303.704C527.054 303.2 528.314 302.948 529.73 302.948C531.914 302.948 533.678 303.5 535.022 304.604C536.366 305.708 537.086 307.22 537.182 309.14H533.906C533.834 308.108 533.414 307.28 532.646 306.656C531.902 306.032 530.894 305.72 529.622 305.72C528.446 305.72 527.51 305.972 526.814 306.476C526.118 306.98 525.77 307.64 525.77 308.456C525.77 309.104 525.974 309.644 526.382 310.076C526.814 310.484 527.342 310.82 527.966 311.084C528.614 311.324 529.502 311.6 530.63 311.912C532.046 312.296 533.198 312.68 534.086 313.064C534.974 313.424 535.73 313.976 536.354 314.72C537.002 315.464 537.338 316.436 537.362 317.636C537.362 318.716 537.062 319.688 536.462 320.552C535.862 321.416 535.01 322.1 533.906 322.604C532.826 323.084 531.578 323.324 530.162 323.324ZM545.983 305.972V317.6C545.983 318.56 546.187 319.244 546.595 319.652C547.003 320.036 547.711 320.228 548.719 320.228H551.131V323H548.179C546.355 323 544.987 322.58 544.075 321.74C543.163 320.9 542.707 319.52 542.707 317.6V305.972H540.151V303.272H542.707V298.304H545.983V303.272H551.131V305.972H545.983ZM563.704 323.324C561.856 323.324 560.176 322.904 558.664 322.064C557.176 321.224 556 320.036 555.136 318.5C554.296 316.94 553.876 315.14 553.876 313.1C553.876 311.084 554.308 309.308 555.172 307.772C556.06 306.212 557.26 305.024 558.772 304.208C560.284 303.368 561.976 302.948 563.848 302.948C565.72 302.948 567.412 303.368 568.924 304.208C570.436 305.024 571.624 306.2 572.488 307.736C573.376 309.272 573.82 311.06 573.82 313.1C573.82 315.14 573.364 316.94 572.452 318.5C571.564 320.036 570.352 321.224 568.816 322.064C567.28 322.904 565.576 323.324 563.704 323.324ZM563.704 320.444C564.88 320.444 565.984 320.168 567.016 319.616C568.048 319.064 568.876 318.236 569.5 317.132C570.148 316.028 570.472 314.684 570.472 313.1C570.472 311.516 570.16 310.172 569.536 309.068C568.912 307.964 568.096 307.148 567.088 306.62C566.08 306.068 564.988 305.792 563.812 305.792C562.612 305.792 561.508 306.068 560.5 306.62C559.516 307.148 558.724 307.964 558.124 309.068C557.524 310.172 557.224 311.516 557.224 313.1C557.224 314.708 557.512 316.064 558.088 317.168C558.688 318.272 559.48 319.1 560.464 319.652C561.448 320.18 562.528 320.444 563.704 320.444ZM581.403 306.476C581.979 305.348 582.795 304.472 583.851 303.848C584.931 303.224 586.239 302.912 587.775 302.912V306.296H586.911C583.239 306.296 581.403 308.288 581.403 312.272V323H578.127V303.272H581.403V306.476ZM608.549 303.272L596.669 332.288H593.285L597.173 322.784L589.217 303.272H592.853L599.045 319.256L605.165 303.272H608.549ZM620.216 313.064C620.216 311.048 620.624 309.284 621.44 307.772C622.256 306.236 623.372 305.048 624.788 304.208C626.228 303.368 627.824 302.948 629.576 302.948C631.304 302.948 632.804 303.32 634.076 304.064C635.348 304.808 636.296 305.744 636.92 306.872V303.272H640.232V323H636.92V319.328C636.272 320.48 635.3 321.44 634.004 322.208C632.732 322.952 631.244 323.324 629.54 323.324C627.788 323.324 626.204 322.892 624.788 322.028C623.372 321.164 622.256 319.952 621.44 318.392C620.624 316.832 620.216 315.056 620.216 313.064ZM636.92 313.1C636.92 311.612 636.62 310.316 636.02 309.212C635.42 308.108 634.604 307.268 633.572 306.692C632.564 306.092 631.448 305.792 630.224 305.792C629 305.792 627.884 306.08 626.876 306.656C625.868 307.232 625.064 308.072 624.464 309.176C623.864 310.28 623.564 311.576 623.564 313.064C623.564 314.576 623.864 315.896 624.464 317.024C625.064 318.128 625.868 318.98 626.876 319.58C627.884 320.156 629 320.444 630.224 320.444C631.448 320.444 632.564 320.156 633.572 319.58C634.604 318.98 635.42 318.128 636.02 317.024C636.62 315.896 636.92 314.588 636.92 313.1ZM655.38 302.912C657.78 302.912 659.724 303.644 661.212 305.108C662.7 306.548 663.444 308.636 663.444 311.372V323H660.204V311.84C660.204 309.872 659.712 308.372 658.728 307.34C657.744 306.284 656.4 305.756 654.696 305.756C652.968 305.756 651.588 306.296 650.556 307.376C649.548 308.456 649.044 310.028 649.044 312.092V323H645.768V303.272H649.044V306.08C649.692 305.072 650.568 304.292 651.672 303.74C652.8 303.188 654.036 302.912 655.38 302.912ZM667.571 313.064C667.571 311.048 667.979 309.284 668.795 307.772C669.611 306.236 670.727 305.048 672.143 304.208C673.583 303.368 675.191 302.948 676.967 302.948C678.503 302.948 679.931 303.308 681.251 304.028C682.571 304.724 683.579 305.648 684.275 306.8V296.36H687.587V323H684.275V319.292C683.627 320.468 682.667 321.44 681.395 322.208C680.123 322.952 678.635 323.324 676.931 323.324C675.179 323.324 673.583 322.892 672.143 322.028C670.727 321.164 669.611 319.952 668.795 318.392C667.979 316.832 667.571 315.056 667.571 313.064ZM684.275 313.1C684.275 311.612 683.975 310.316 683.375 309.212C682.775 308.108 681.959 307.268 680.927 306.692C679.919 306.092 678.803 305.792 677.579 305.792C676.355 305.792 675.239 306.08 674.231 306.656C673.223 307.232 672.419 308.072 671.819 309.176C671.219 310.28 670.919 311.576 670.919 313.064C670.919 314.576 671.219 315.896 671.819 317.024C672.419 318.128 673.223 318.98 674.231 319.58C675.239 320.156 676.355 320.444 677.579 320.444C678.803 320.444 679.919 320.156 680.927 319.58C681.959 318.98 682.775 318.128 683.375 317.024C683.975 315.896 684.275 314.588 684.275 313.1ZM705.997 306.908C706.645 305.78 707.605 304.844 708.877 304.1C710.173 303.332 711.673 302.948 713.377 302.948C715.129 302.948 716.713 303.368 718.129 304.208C719.569 305.048 720.697 306.236 721.513 307.772C722.329 309.284 722.737 311.048 722.737 313.064C722.737 315.056 722.329 316.832 721.513 318.392C720.697 319.952 719.569 321.164 718.129 322.028C716.713 322.892 715.129 323.324 713.377 323.324C711.697 323.324 710.209 322.952 708.913 322.208C707.641 321.44 706.669 320.492 705.997 319.364V332.36H702.721V303.272H705.997V306.908ZM719.389 313.064C719.389 311.576 719.089 310.28 718.489 309.176C717.889 308.072 717.073 307.232 716.041 306.656C715.033 306.08 713.917 305.792 712.693 305.792C711.493 305.792 710.377 306.092 709.345 306.692C708.337 307.268 707.521 308.12 706.897 309.248C706.297 310.352 705.997 311.636 705.997 313.1C705.997 314.588 706.297 315.896 706.897 317.024C707.521 318.128 708.337 318.98 709.345 319.58C710.377 320.156 711.493 320.444 712.693 320.444C713.917 320.444 715.033 320.156 716.041 319.58C717.073 318.98 717.889 318.128 718.489 317.024C719.089 315.896 719.389 314.576 719.389 313.064ZM730.325 306.476C730.901 305.348 731.717 304.472 732.773 303.848C733.853 303.224 735.161 302.912 736.697 302.912V306.296H735.833C732.161 306.296 730.325 308.288 730.325 312.272V323H727.049V303.272H730.325V306.476ZM739.255 313.064C739.255 311.048 739.663 309.284 740.479 307.772C741.295 306.236 742.411 305.048 743.827 304.208C745.267 303.368 746.863 302.948 748.615 302.948C750.343 302.948 751.843 303.32 753.115 304.064C754.387 304.808 755.335 305.744 755.959 306.872V303.272H759.271V323H755.959V319.328C755.311 320.48 754.339 321.44 753.043 322.208C751.771 322.952 750.283 323.324 748.579 323.324C746.827 323.324 745.243 322.892 743.827 322.028C742.411 321.164 741.295 319.952 740.479 318.392C739.663 316.832 739.255 315.056 739.255 313.064ZM755.959 313.1C755.959 311.612 755.659 310.316 755.059 309.212C754.459 308.108 753.643 307.268 752.611 306.692C751.603 306.092 750.487 305.792 749.263 305.792C748.039 305.792 746.923 306.08 745.915 306.656C744.907 307.232 744.103 308.072 743.503 309.176C742.903 310.28 742.603 311.576 742.603 313.064C742.603 314.576 742.903 315.896 743.503 317.024C744.103 318.128 744.907 318.98 745.915 319.58C746.923 320.156 748.039 320.444 749.263 320.444C750.487 320.444 751.603 320.156 752.611 319.58C753.643 318.98 754.459 318.128 755.059 317.024C755.659 315.896 755.959 314.588 755.959 313.1ZM763.583 313.1C763.583 311.06 763.991 309.284 764.807 307.772C765.623 306.236 766.751 305.048 768.191 304.208C769.655 303.368 771.323 302.948 773.195 302.948C775.619 302.948 777.611 303.536 779.171 304.712C780.755 305.888 781.799 307.52 782.303 309.608H778.775C778.439 308.408 777.779 307.46 776.795 306.764C775.835 306.068 774.635 305.72 773.195 305.72C771.323 305.72 769.811 306.368 768.659 307.664C767.507 308.936 766.931 310.748 766.931 313.1C766.931 315.476 767.507 317.312 768.659 318.608C769.811 319.904 771.323 320.552 773.195 320.552C774.635 320.552 775.835 320.216 776.795 319.544C777.755 318.872 778.415 317.912 778.775 316.664H782.303C781.775 318.68 780.719 320.3 779.135 321.524C777.551 322.724 775.571 323.324 773.195 323.324C771.323 323.324 769.655 322.904 768.191 322.064C766.751 321.224 765.623 320.036 764.807 318.5C763.991 316.964 763.583 315.164 763.583 313.1ZM790.67 305.972V317.6C790.67 318.56 790.874 319.244 791.282 319.652C791.69 320.036 792.398 320.228 793.406 320.228H795.818V323H792.866C791.042 323 789.674 322.58 788.762 321.74C787.85 320.9 787.394 319.52 787.394 317.6V305.972H784.838V303.272H787.394V298.304H790.67V303.272H795.818V305.972H790.67ZM801.48 300.068C800.856 300.068 800.328 299.852 799.896 299.42C799.464 298.988 799.248 298.46 799.248 297.836C799.248 297.212 799.464 296.684 799.896 296.252C800.328 295.82 800.856 295.604 801.48 295.604C802.08 295.604 802.584 295.82 802.992 296.252C803.424 296.684 803.64 297.212 803.64 297.836C803.64 298.46 803.424 298.988 802.992 299.42C802.584 299.852 802.08 300.068 801.48 300.068ZM803.064 303.272V323H799.788V303.272H803.064ZM807.423 313.1C807.423 311.06 807.831 309.284 808.647 307.772C809.463 306.236 810.591 305.048 812.031 304.208C813.495 303.368 815.163 302.948 817.035 302.948C819.459 302.948 821.451 303.536 823.011 304.712C824.595 305.888 825.639 307.52 826.143 309.608H822.615C822.279 308.408 821.619 307.46 820.635 306.764C819.675 306.068 818.475 305.72 817.035 305.72C815.163 305.72 813.651 306.368 812.499 307.664C811.347 308.936 810.771 310.748 810.771 313.1C810.771 315.476 811.347 317.312 812.499 318.608C813.651 319.904 815.163 320.552 817.035 320.552C818.475 320.552 819.675 320.216 820.635 319.544C821.595 318.872 822.255 317.912 822.615 316.664H826.143C825.615 318.68 824.559 320.3 822.975 321.524C821.391 322.724 819.411 323.324 817.035 323.324C815.163 323.324 813.495 322.904 812.031 322.064C810.591 321.224 809.463 320.036 808.647 318.5C807.831 316.964 807.423 315.164 807.423 313.1ZM848.514 312.38C848.514 313.004 848.478 313.664 848.406 314.36H832.638C832.758 316.304 833.418 317.828 834.618 318.932C835.842 320.012 837.318 320.552 839.046 320.552C840.462 320.552 841.638 320.228 842.574 319.58C843.534 318.908 844.206 318.02 844.59 316.916H848.118C847.59 318.812 846.534 320.36 844.95 321.56C843.366 322.736 841.398 323.324 839.046 323.324C837.174 323.324 835.494 322.904 834.006 322.064C832.542 321.224 831.39 320.036 830.55 318.5C829.71 316.94 829.29 315.14 829.29 313.1C829.29 311.06 829.698 309.272 830.514 307.736C831.33 306.2 832.47 305.024 833.934 304.208C835.422 303.368 837.126 302.948 839.046 302.948C840.918 302.948 842.574 303.356 844.014 304.172C845.454 304.988 846.558 306.116 847.326 307.556C848.118 308.972 848.514 310.58 848.514 312.38ZM845.13 311.696C845.13 310.448 844.854 309.38 844.302 308.492C843.75 307.58 842.994 306.896 842.034 306.44C841.098 305.96 840.054 305.72 838.902 305.72C837.246 305.72 835.83 306.248 834.654 307.304C833.502 308.36 832.842 309.824 832.674 311.696H845.13ZM866.432 305.972V317.6C866.432 318.56 866.636 319.244 867.044 319.652C867.452 320.036 868.16 320.228 869.168 320.228H871.58V323H868.628C866.804 323 865.436 322.58 864.524 321.74C863.612 320.9 863.156 319.52 863.156 317.6V305.972H860.6V303.272H863.156V298.304H866.432V303.272H871.58V305.972H866.432ZM885.341 302.912C886.829 302.912 888.173 303.236 889.373 303.884C890.573 304.508 891.509 305.456 892.181 306.728C892.877 308 893.225 309.548 893.225 311.372V323H889.985V311.84C889.985 309.872 889.493 308.372 888.509 307.34C887.525 306.284 886.181 305.756 884.477 305.756C882.749 305.756 881.369 306.296 880.337 307.376C879.329 308.456 878.825 310.028 878.825 312.092V323H875.549V296.36H878.825V306.08C879.473 305.072 880.361 304.292 881.489 303.74C882.641 303.188 883.925 302.912 885.341 302.912ZM916.577 312.38C916.577 313.004 916.541 313.664 916.469 314.36H900.701C900.821 316.304 901.481 317.828 902.681 318.932C903.905 320.012 905.381 320.552 907.109 320.552C908.525 320.552 909.701 320.228 910.637 319.58C911.597 318.908 912.269 318.02 912.653 316.916H916.181C915.653 318.812 914.597 320.36 913.013 321.56C911.429 322.736 909.461 323.324 907.109 323.324C905.237 323.324 903.557 322.904 902.069 322.064C900.605 321.224 899.453 320.036 898.613 318.5C897.773 316.94 897.353 315.14 897.353 313.1C897.353 311.06 897.761 309.272 898.577 307.736C899.393 306.2 900.533 305.024 901.997 304.208C903.485 303.368 905.189 302.948 907.109 302.948C908.981 302.948 910.637 303.356 912.077 304.172C913.517 304.988 914.621 306.116 915.389 307.556C916.181 308.972 916.577 310.58 916.577 312.38ZM913.193 311.696C913.193 310.448 912.917 309.38 912.365 308.492C911.813 307.58 911.057 306.896 910.097 306.44C909.161 305.96 908.117 305.72 906.965 305.72C905.309 305.72 903.893 306.248 902.717 307.304C901.565 308.36 900.905 309.824 900.737 311.696H913.193ZM943.711 323L937.735 312.74H933.775V323H930.499V297.908H938.599C940.495 297.908 942.091 298.232 943.387 298.88C944.707 299.528 945.691 300.404 946.339 301.508C946.987 302.612 947.311 303.872 947.311 305.288C947.311 307.016 946.807 308.54 945.799 309.86C944.815 311.18 943.327 312.056 941.335 312.488L947.635 323H943.711ZM933.775 310.112H938.599C940.375 310.112 941.707 309.68 942.595 308.816C943.483 307.928 943.927 306.752 943.927 305.288C943.927 303.8 943.483 302.648 942.595 301.832C941.731 301.016 940.399 300.608 938.599 300.608H933.775V310.112ZM970.401 312.38C970.401 313.004 970.365 313.664 970.293 314.36H954.525C954.645 316.304 955.305 317.828 956.505 318.932C957.729 320.012 959.205 320.552 960.933 320.552C962.349 320.552 963.525 320.228 964.461 319.58C965.421 318.908 966.093 318.02 966.477 316.916H970.005C969.477 318.812 968.421 320.36 966.837 321.56C965.253 322.736 963.285 323.324 960.933 323.324C959.061 323.324 957.381 322.904 955.893 322.064C954.429 321.224 953.277 320.036 952.437 318.5C951.597 316.94 951.177 315.14 951.177 313.1C951.177 311.06 951.585 309.272 952.401 307.736C953.217 306.2 954.357 305.024 955.821 304.208C957.309 303.368 959.013 302.948 960.933 302.948C962.805 302.948 964.461 303.356 965.901 304.172C967.341 304.988 968.445 306.116 969.213 307.556C970.005 308.972 970.401 310.58 970.401 312.38ZM967.017 311.696C967.017 310.448 966.741 309.38 966.189 308.492C965.637 307.58 964.881 306.896 963.921 306.44C962.985 305.96 961.941 305.72 960.789 305.72C959.133 305.72 957.717 306.248 956.541 307.304C955.389 308.36 954.729 309.824 954.561 311.696H967.017ZM978.001 306.908C978.649 305.78 979.609 304.844 980.881 304.1C982.177 303.332 983.677 302.948 985.381 302.948C987.133 302.948 988.717 303.368 990.133 304.208C991.573 305.048 992.701 306.236 993.517 307.772C994.333 309.284 994.741 311.048 994.741 313.064C994.741 315.056 994.333 316.832 993.517 318.392C992.701 319.952 991.573 321.164 990.133 322.028C988.717 322.892 987.133 323.324 985.381 323.324C983.701 323.324 982.213 322.952 980.917 322.208C979.645 321.44 978.673 320.492 978.001 319.364V332.36H974.725V303.272H978.001V306.908ZM991.393 313.064C991.393 311.576 991.093 310.28 990.493 309.176C989.893 308.072 989.077 307.232 988.045 306.656C987.037 306.08 985.921 305.792 984.697 305.792C983.497 305.792 982.381 306.092 981.349 306.692C980.341 307.268 979.525 308.12 978.901 309.248C978.301 310.352 978.001 311.636 978.001 313.1C978.001 314.588 978.301 315.896 978.901 317.024C979.525 318.128 980.341 318.98 981.349 319.58C982.381 320.156 983.497 320.444 984.697 320.444C985.921 320.444 987.037 320.156 988.045 319.58C989.077 318.98 989.893 318.128 990.493 317.024C991.093 315.896 991.393 314.576 991.393 313.064ZM1007.66 323.324C1005.81 323.324 1004.13 322.904 1002.62 322.064C1001.13 321.224 999.953 320.036 999.089 318.5C998.249 316.94 997.829 315.14 997.829 313.1C997.829 311.084 998.261 309.308 999.125 307.772C1000.01 306.212 1001.21 305.024 1002.73 304.208C1004.24 303.368 1005.93 302.948 1007.8 302.948C1009.67 302.948 1011.37 303.368 1012.88 304.208C1014.39 305.024 1015.58 306.2 1016.44 307.736C1017.33 309.272 1017.77 311.06 1017.77 313.1C1017.77 315.14 1017.32 316.94 1016.41 318.5C1015.52 320.036 1014.31 321.224 1012.77 322.064C1011.23 322.904 1009.53 323.324 1007.66 323.324ZM1007.66 320.444C1008.83 320.444 1009.94 320.168 1010.97 319.616C1012 319.064 1012.83 318.236 1013.45 317.132C1014.1 316.028 1014.43 314.684 1014.43 313.1C1014.43 311.516 1014.11 310.172 1013.49 309.068C1012.87 307.964 1012.05 307.148 1011.04 306.62C1010.03 306.068 1008.94 305.792 1007.77 305.792C1006.57 305.792 1005.46 306.068 1004.45 306.62C1003.47 307.148 1002.68 307.964 1002.08 309.068C1001.48 310.172 1001.18 311.516 1001.18 313.1C1001.18 314.708 1001.47 316.064 1002.04 317.168C1002.64 318.272 1003.43 319.1 1004.42 319.652C1005.4 320.18 1006.48 320.444 1007.66 320.444ZM1025.36 306.476C1025.93 305.348 1026.75 304.472 1027.8 303.848C1028.88 303.224 1030.19 302.912 1031.73 302.912V306.296H1030.86C1027.19 306.296 1025.36 308.288 1025.36 312.272V323H1022.08V303.272H1025.36V306.476ZM1039.51 305.972V317.6C1039.51 318.56 1039.71 319.244 1040.12 319.652C1040.53 320.036 1041.23 320.228 1042.24 320.228H1044.65V323H1041.7C1039.88 323 1038.51 322.58 1037.6 321.74C1036.69 320.9 1036.23 319.52 1036.23 317.6V305.972H1033.67V303.272H1036.23V298.304H1039.51V303.272H1044.65V305.972H1039.51ZM1066.62 312.38C1066.62 313.004 1066.59 313.664 1066.52 314.36H1050.75C1050.87 316.304 1051.53 317.828 1052.73 318.932C1053.95 320.012 1055.43 320.552 1057.16 320.552C1058.57 320.552 1059.75 320.228 1060.68 319.58C1061.64 318.908 1062.32 318.02 1062.7 316.916H1066.23C1065.7 318.812 1064.64 320.36 1063.06 321.56C1061.48 322.736 1059.51 323.324 1057.16 323.324C1055.28 323.324 1053.6 322.904 1052.12 322.064C1050.65 321.224 1049.5 320.036 1048.66 318.5C1047.82 316.94 1047.4 315.14 1047.4 313.1C1047.4 311.06 1047.81 309.272 1048.62 307.736C1049.44 306.2 1050.58 305.024 1052.04 304.208C1053.53 303.368 1055.24 302.948 1057.16 302.948C1059.03 302.948 1060.68 303.356 1062.12 304.172C1063.56 304.988 1064.67 306.116 1065.44 307.556C1066.23 308.972 1066.62 310.58 1066.62 312.38ZM1063.24 311.696C1063.24 310.448 1062.96 309.38 1062.41 308.492C1061.86 307.58 1061.1 306.896 1060.14 306.44C1059.21 305.96 1058.16 305.72 1057.01 305.72C1055.36 305.72 1053.94 306.248 1052.76 307.304C1051.61 308.36 1050.95 309.824 1050.78 311.696H1063.24ZM1069.72 313.064C1069.72 311.048 1070.13 309.284 1070.95 307.772C1071.76 306.236 1072.88 305.048 1074.3 304.208C1075.74 303.368 1077.34 302.948 1079.12 302.948C1080.66 302.948 1082.08 303.308 1083.4 304.028C1084.72 304.724 1085.73 305.648 1086.43 306.8V296.36H1089.74V323H1086.43V319.292C1085.78 320.468 1084.82 321.44 1083.55 322.208C1082.28 322.952 1080.79 323.324 1079.08 323.324C1077.33 323.324 1075.74 322.892 1074.3 322.028C1072.88 321.164 1071.76 319.952 1070.95 318.392C1070.13 316.832 1069.72 315.056 1069.72 313.064ZM1086.43 313.1C1086.43 311.612 1086.13 310.316 1085.53 309.212C1084.93 308.108 1084.11 307.268 1083.08 306.692C1082.07 306.092 1080.96 305.792 1079.73 305.792C1078.51 305.792 1077.39 306.08 1076.38 306.656C1075.38 307.232 1074.57 308.072 1073.97 309.176C1073.37 310.28 1073.07 311.576 1073.07 313.064C1073.07 314.576 1073.37 315.896 1073.97 317.024C1074.57 318.128 1075.38 318.98 1076.38 319.58C1077.39 320.156 1078.51 320.444 1079.73 320.444C1080.96 320.444 1082.07 320.156 1083.08 319.58C1084.11 318.98 1084.93 318.128 1085.53 317.024C1086.13 315.896 1086.43 314.588 1086.43 313.1ZM188.712 377.252C187.056 377.252 185.568 376.964 184.248 376.388C182.952 375.788 181.932 374.972 181.188 373.94C180.444 372.884 180.06 371.672 180.036 370.304H183.528C183.648 371.48 184.128 372.476 184.968 373.292C185.832 374.084 187.08 374.48 188.712 374.48C190.272 374.48 191.496 374.096 192.384 373.328C193.296 372.536 193.752 371.528 193.752 370.304C193.752 369.344 193.488 368.564 192.96 367.964C192.432 367.364 191.772 366.908 190.98 366.596C190.188 366.284 189.12 365.948 187.776 365.588C186.12 365.156 184.788 364.724 183.78 364.292C182.796 363.86 181.944 363.188 181.224 362.276C180.528 361.34 180.18 360.092 180.18 358.532C180.18 357.164 180.528 355.952 181.224 354.896C181.92 353.84 182.892 353.024 184.14 352.448C185.412 351.872 186.864 351.584 188.496 351.584C190.848 351.584 192.768 352.172 194.256 353.348C195.768 354.524 196.62 356.084 196.812 358.028H193.212C193.092 357.068 192.588 356.228 191.7 355.508C190.812 354.764 189.636 354.392 188.172 354.392C186.804 354.392 185.688 354.752 184.824 355.472C183.96 356.168 183.528 357.152 183.528 358.424C183.528 359.336 183.78 360.08 184.284 360.656C184.812 361.232 185.448 361.676 186.192 361.988C186.96 362.276 188.028 362.612 189.396 362.996C191.052 363.452 192.384 363.908 193.392 364.364C194.4 364.796 195.264 365.48 195.984 366.416C196.704 367.328 197.064 368.576 197.064 370.16C197.064 371.384 196.74 372.536 196.092 373.616C195.444 374.696 194.484 375.572 193.212 376.244C191.94 376.916 190.44 377.252 188.712 377.252ZM205.161 360.908C205.809 359.78 206.769 358.844 208.041 358.1C209.337 357.332 210.837 356.948 212.541 356.948C214.293 356.948 215.877 357.368 217.293 358.208C218.733 359.048 219.861 360.236 220.677 361.772C221.493 363.284 221.901 365.048 221.901 367.064C221.901 369.056 221.493 370.832 220.677 372.392C219.861 373.952 218.733 375.164 217.293 376.028C215.877 376.892 214.293 377.324 212.541 377.324C210.861 377.324 209.373 376.952 208.077 376.208C206.805 375.44 205.833 374.492 205.161 373.364V386.36H201.885V357.272H205.161V360.908ZM218.553 367.064C218.553 365.576 218.253 364.28 217.653 363.176C217.053 362.072 216.237 361.232 215.205 360.656C214.197 360.08 213.081 359.792 211.857 359.792C210.657 359.792 209.541 360.092 208.509 360.692C207.501 361.268 206.685 362.12 206.061 363.248C205.461 364.352 205.161 365.636 205.161 367.1C205.161 368.588 205.461 369.896 206.061 371.024C206.685 372.128 207.501 372.98 208.509 373.58C209.541 374.156 210.657 374.444 211.857 374.444C213.081 374.444 214.197 374.156 215.205 373.58C216.237 372.98 217.053 372.128 217.653 371.024C218.253 369.896 218.553 368.576 218.553 367.064ZM244.213 366.38C244.213 367.004 244.177 367.664 244.105 368.36H228.337C228.457 370.304 229.117 371.828 230.317 372.932C231.541 374.012 233.017 374.552 234.745 374.552C236.161 374.552 237.337 374.228 238.273 373.58C239.233 372.908 239.905 372.02 240.289 370.916H243.817C243.289 372.812 242.233 374.36 240.649 375.56C239.065 376.736 237.097 377.324 234.745 377.324C232.873 377.324 231.193 376.904 229.705 376.064C228.241 375.224 227.089 374.036 226.249 372.5C225.409 370.94 224.989 369.14 224.989 367.1C224.989 365.06 225.397 363.272 226.213 361.736C227.029 360.2 228.169 359.024 229.633 358.208C231.121 357.368 232.825 356.948 234.745 356.948C236.617 356.948 238.273 357.356 239.713 358.172C241.153 358.988 242.257 360.116 243.025 361.556C243.817 362.972 244.213 364.58 244.213 366.38ZM240.829 365.696C240.829 364.448 240.553 363.38 240.001 362.492C239.449 361.58 238.693 360.896 237.733 360.44C236.797 359.96 235.753 359.72 234.601 359.72C232.945 359.72 231.529 360.248 230.353 361.304C229.201 362.36 228.541 363.824 228.373 365.696H240.829ZM266.538 366.38C266.538 367.004 266.502 367.664 266.43 368.36H250.662C250.782 370.304 251.442 371.828 252.642 372.932C253.866 374.012 255.342 374.552 257.07 374.552C258.486 374.552 259.662 374.228 260.598 373.58C261.558 372.908 262.23 372.02 262.614 370.916H266.142C265.614 372.812 264.558 374.36 262.974 375.56C261.39 376.736 259.422 377.324 257.07 377.324C255.198 377.324 253.518 376.904 252.03 376.064C250.566 375.224 249.414 374.036 248.574 372.5C247.734 370.94 247.314 369.14 247.314 367.1C247.314 365.06 247.722 363.272 248.538 361.736C249.354 360.2 250.494 359.024 251.958 358.208C253.446 357.368 255.15 356.948 257.07 356.948C258.942 356.948 260.598 357.356 262.038 358.172C263.478 358.988 264.582 360.116 265.35 361.556C266.142 362.972 266.538 364.58 266.538 366.38ZM263.154 365.696C263.154 364.448 262.878 363.38 262.326 362.492C261.774 361.58 261.018 360.896 260.058 360.44C259.122 359.96 258.078 359.72 256.926 359.72C255.27 359.72 253.854 360.248 252.678 361.304C251.526 362.36 250.866 363.824 250.698 365.696H263.154ZM269.638 367.1C269.638 365.06 270.046 363.284 270.862 361.772C271.678 360.236 272.806 359.048 274.246 358.208C275.71 357.368 277.378 356.948 279.25 356.948C281.674 356.948 283.666 357.536 285.226 358.712C286.81 359.888 287.854 361.52 288.358 363.608H284.83C284.494 362.408 283.834 361.46 282.85 360.764C281.89 360.068 280.69 359.72 279.25 359.72C277.378 359.72 275.866 360.368 274.714 361.664C273.562 362.936 272.986 364.748 272.986 367.1C272.986 369.476 273.562 371.312 274.714 372.608C275.866 373.904 277.378 374.552 279.25 374.552C280.69 374.552 281.89 374.216 282.85 373.544C283.81 372.872 284.47 371.912 284.83 370.664H288.358C287.83 372.68 286.774 374.3 285.19 375.524C283.606 376.724 281.626 377.324 279.25 377.324C277.378 377.324 275.71 376.904 274.246 376.064C272.806 375.224 271.678 374.036 270.862 372.5C270.046 370.964 269.638 369.164 269.638 367.1ZM302.521 356.912C304.009 356.912 305.353 357.236 306.553 357.884C307.753 358.508 308.689 359.456 309.361 360.728C310.057 362 310.405 363.548 310.405 365.372V377H307.165V365.84C307.165 363.872 306.673 362.372 305.689 361.34C304.705 360.284 303.361 359.756 301.657 359.756C299.929 359.756 298.549 360.296 297.517 361.376C296.509 362.456 296.005 364.028 296.005 366.092V377H292.729V350.36H296.005V360.08C296.653 359.072 297.541 358.292 298.669 357.74C299.821 357.188 301.105 356.912 302.521 356.912ZM320.004 351.908L319.608 369.908H316.872L316.476 351.908H320.004ZM318.384 377.216C317.76 377.216 317.232 377 316.8 376.568C316.368 376.136 316.152 375.608 316.152 374.984C316.152 374.36 316.368 373.832 316.8 373.4C317.232 372.968 317.76 372.752 318.384 372.752C318.984 372.752 319.488 372.968 319.896 373.4C320.328 373.832 320.544 374.36 320.544 374.984C320.544 375.608 320.328 376.136 319.896 376.568C319.488 377 318.984 377.216 318.384 377.216Z" fill="black"/>
</svg>
